<?xml version="1.0" encoding="UTF-8"?>
<svg version="1.1" xmlns="http://www.w3.org/2000/svg" width="112" height="112">
<path d="M0 0 C1.50292321 1.13589918 2.98136883 2.30470624 4.4375 3.5 C5.42492187 4.27601562 6.41234375 5.05203125 7.4296875 5.8515625 C17.06008203 13.94371608 23.37638945 26.6814639 24.71533203 39.07080078 C25.91523716 55.98074196 23.43907236 70.09766079 12.4375 83.5 C11.66148438 84.48742187 10.88546875 85.47484375 10.0859375 86.4921875 C1.99378392 96.12258203 -10.7439639 102.43888945 -23.13330078 103.77783203 C-40.04324196 104.97773716 -54.16016079 102.50157236 -67.5625 91.5 C-69.04363281 90.33597656 -69.04363281 90.33597656 -70.5546875 89.1484375 C-80.18508203 81.05628392 -86.50138945 68.3185361 -87.84033203 55.92919922 C-89.04023716 39.01925804 -86.56407236 24.90233921 -75.5625 11.5 C-74.78648438 10.51257813 -74.01046875 9.52515625 -73.2109375 8.5078125 C-55.75628726 -12.2647997 -21.83894221 -14.78577273 0 0 Z " fill="#ECE9CF" transform="translate(87.5625,8.5)"/>
<path d="M0 0 C0.66 0 1.32 0 2 0 C2.2475 1.093125 2.495 2.18625 2.75 3.3125 C4.08543321 7.25202797 4.5732909 7.95957777 8 10 C10.40806287 10.63552272 10.40806287 10.63552272 12.9375 10.9375 C17.27092643 11.68640826 19.81988642 12.81988642 23 16 C23.53625 15.67 24.0725 15.34 24.625 15 C27.5929092 13.75035402 29.80799279 13.72243416 33 14 C33.66 14.66 34.32 15.32 35 16 C37.08333333 15.83333333 37.08333333 15.83333333 39 15 C39.33 14.34 39.66 13.68 40 13 C43.10197875 11.44901062 46.18811613 10.73515313 49.5625 10.0625 C54.31740416 9.04421249 54.31740416 9.04421249 58 6 C58.80946422 2.89802603 58.80946422 2.89802603 59 0 C59.66 0 60.32 0 61 0 C62.90069876 5.62637122 63.3357493 10.64322768 63.3125 16.5625 C63.32861328 17.38685547 63.34472656 18.21121094 63.36132812 19.06054688 C63.36634493 25.33656537 62.14821968 29.52629248 57.9375 34.375 C56 36 56 36 54 36 C53.7525 37.093125 53.505 38.18625 53.25 39.3125 C51.91047017 43.264113 51.55910586 44.09832089 48 46 C44.46875 46.2578125 44.46875 46.2578125 40.5 46.125 C34.67286678 45.94873853 34.67286678 45.94873853 29 47 C26.99759451 46.68143549 24.99788438 46.34578768 23 46 C21.64567309 46 20.29121252 46.02171017 18.9375 46.0625 C15.19367149 46.00307415 13.19267627 45.86239449 10 44 C6 39.78378378 6 39.78378378 6 36 C5.01 35.67 4.02 35.34 3 35 C-1.67085802 28.68060386 -2.18176844 24.30419411 -2.1875 16.75 C-2.19974609 15.91597656 -2.21199219 15.08195312 -2.22460938 14.22265625 C-2.23670765 9.08492317 -1.66346536 4.8654718 0 0 Z " fill="#644229" transform="translate(24,35)"/>
<path d="M0 0 C1.50292321 1.13589918 2.98136883 2.30470624 4.4375 3.5 C5.42492187 4.27601562 6.41234375 5.05203125 7.4296875 5.8515625 C17.06008203 13.94371608 23.37638945 26.6814639 24.71533203 39.07080078 C25.91523716 55.98074196 23.43907236 70.09766079 12.4375 83.5 C11.66148438 84.48742187 10.88546875 85.47484375 10.0859375 86.4921875 C1.99378392 96.12258203 -10.7439639 102.43888945 -23.13330078 103.77783203 C-40.04324196 104.97773716 -54.16016079 102.50157236 -67.5625 91.5 C-69.04363281 90.33597656 -69.04363281 90.33597656 -70.5546875 89.1484375 C-80.18508203 81.05628392 -86.50138945 68.3185361 -87.84033203 55.92919922 C-89.04023716 39.01925804 -86.56407236 24.90233921 -75.5625 11.5 C-74.78648438 10.51257813 -74.01046875 9.52515625 -73.2109375 8.5078125 C-55.75628726 -12.2647997 -21.83894221 -14.78577273 0 0 Z M-70.5625 11.5 C-71.03171875 11.97695313 -71.5009375 12.45390625 -71.984375 12.9453125 C-82.42309677 24.08353625 -85.20268886 37.32614311 -84.875 52.01953125 C-84.25176207 64.37262636 -77.69249301 78.08011756 -68.5625 86.5 C-62.99773048 90.91246876 -57.12708306 94.7626449 -50.5625 97.5 C-49.87414063 97.7990625 -49.18578125 98.098125 -48.4765625 98.40625 C-36.37240567 102.86785047 -22.73861796 101.54930609 -10.8984375 97.04296875 C3.25959244 90.49446544 13.46169343 79.18694781 19.53515625 64.921875 C24.05198961 51.22431522 22.30739594 36.42609631 16.4375 23.5 C14.67975358 20.26254212 12.72094883 17.38528806 10.4375 14.5 C9.79748047 13.60087891 9.79748047 13.60087891 9.14453125 12.68359375 C1.92741673 3.22303601 -10.79736433 -3.86135043 -22.5625 -5.5 C-40.79845041 -6.4895477 -57.89369885 -2.53840127 -70.5625 11.5 Z " fill="#A3926B" transform="translate(87.5625,8.5)"/>
<path d="M0 0 C0.66 0 1.32 0 2 0 C3.90069876 5.62637122 4.3357493 10.64322768 4.3125 16.5625 C4.32861328 17.38685547 4.34472656 18.21121094 4.36132812 19.06054688 C4.36634493 25.33656537 3.14821968 29.52629248 -1.0625 34.375 C-3 36 -3 36 -5 36 C-5.2475 37.093125 -5.495 38.18625 -5.75 39.3125 C-7.08952983 43.264113 -7.44089414 44.09832089 -11 46 C-14.53125 46.2578125 -14.53125 46.2578125 -18.5 46.125 C-23.46813021 45.88581299 -23.46813021 45.88581299 -28.3359375 46.60546875 C-29.15964844 46.80076172 -29.15964844 46.80076172 -30 47 C-32.125 45.1875 -32.125 45.1875 -34 43 C-34.66 42.34 -35.32 41.68 -36 41 C-36.66 41 -37.32 41 -38 41 C-37.67 40.01 -37.34 39.02 -37 38 C-36.01 38 -35.02 38 -34 38 C-34.061875 37.21625 -34.12375 36.4325 -34.1875 35.625 C-34.125625 34.75875 -34.06375 33.8925 -34 33 C-33.01 32.34 -32.02 31.68 -31 31 C-29.33333333 31.66666667 -27.66666667 32.33333333 -26 33 C-25.01 32.34 -24.02 31.68 -23 31 C-23 32.65 -23 34.3 -23 36 C-17.01115018 35.7338289 -12.62922797 35.17759598 -8 31 C-6.57220726 27.89064982 -6.57220726 27.89064982 -6 25 C-7.22976562 25.14308594 -7.22976562 25.14308594 -8.484375 25.2890625 C-10.10085937 25.45535156 -10.10085937 25.45535156 -11.75 25.625 C-13.35101563 25.79902344 -13.35101563 25.79902344 -14.984375 25.9765625 C-18.03792399 26.00029475 -19.46162421 25.61420985 -22 24 C-22.4375 21.875 -22.4375 21.875 -22 19 C-20.3273289 17.24583979 -18.55236118 15.80473715 -16.62890625 14.33203125 C-14.86833905 13.07775666 -14.86833905 13.07775666 -14 11 C-12.07421875 10.47265625 -12.07421875 10.47265625 -9.6875 10.0625 C-4.79134994 9.09011064 -4.79134994 9.09011064 -1 6 C-0.19053578 2.89802603 -0.19053578 2.89802603 0 0 Z " fill="#603D1F" transform="translate(83,35)"/>
<path d="M0 0 C0.66 0 1.32 0 2 0 C2.2475 1.093125 2.495 2.18625 2.75 3.3125 C4.08543321 7.25202797 4.5732909 7.95957777 8 10 C10.40806287 10.63552272 10.40806287 10.63552272 12.9375 10.9375 C17.27092643 11.68640826 19.81988642 12.81988642 23 16 C23.53625 15.67 24.0725 15.34 24.625 15 C27.65696965 13.7233812 29.74003936 13.58383481 33 14 C34.875 16 34.875 16 36 18 C34.35 18 32.7 18 31 18 C31.495 18.433125 31.99 18.86625 32.5 19.3125 C34 21 34 21 34 24 C31.69 24 29.38 24 27 24 C27.33 22.35 27.66 20.7 28 19 C26.68 19 25.36 19 24 19 C24.185625 20.11375 24.37125 21.2275 24.5625 22.375 C25 26 25 26 24 28 C24.66 28 25.32 28 26 28 C25.67 28.99 25.34 29.98 25 31 C22.714658 29.857329 20.47326729 28.70072005 18.25 27.4375 C14.36236433 25.71796884 11.21909836 25.36371538 7 25 C7.33 27.64 7.66 30.28 8 33 C5.525 33.495 5.525 33.495 3 34 C-1.94023908 28.10358562 -2.18189253 24.14065142 -2.1875 16.75 C-2.19974609 15.91597656 -2.21199219 15.08195312 -2.22460938 14.22265625 C-2.23670765 9.08492317 -1.66346536 4.8654718 0 0 Z " fill="#624122" transform="translate(24,35)"/>
<path d="M0 0 C0.66 0.33 1.32 0.66 2 1 C1.50628906 1.37511719 1.01257813 1.75023437 0.50390625 2.13671875 C-3.62913755 5.3284978 -3.62913755 5.3284978 -5.9375 9.875 C-5.958125 10.57625 -5.97875 11.2775 -6 12 C-0.59255982 12.77249145 4.53862186 13.09752461 10 13 C9.73212125 16.92888829 9.47562903 18.54876221 6.5625 21.3125 C3.11718735 23.58136443 1.45379143 24.12076845 -2.625 24.0625 C-3.85089844 24.04896484 -3.85089844 24.04896484 -5.1015625 24.03515625 C-5.72804688 24.02355469 -6.35453125 24.01195313 -7 24 C-7.33 22.68 -7.66 21.36 -8 20 C-8.66 20.66 -9.32 21.32 -10 22 C-11.953125 21.890625 -11.953125 21.890625 -14 21 C-15.484375 19.109375 -15.484375 19.109375 -16.75 16.75 C-17.17796875 15.98171875 -17.6059375 15.2134375 -18.046875 14.421875 C-19.09006898 11.77113619 -19.18016322 9.8225571 -19 7 C-17.68 7 -16.36 7 -15 7 C-15.33 8.65 -15.66 10.3 -16 12 C-15.21625 11.814375 -14.4325 11.62875 -13.625 11.4375 C-11 11 -11 11 -9 12 C-9 11.01 -9 10.02 -9 9 C-9.99 8.67 -10.98 8.34 -12 8 C-12 7.34 -12 6.68 -12 6 C-10.88625 5.731875 -9.7725 5.46375 -8.625 5.1875 C-4.78159049 4.34190981 -4.78159049 4.34190981 -3 1 C-2.01 0.67 -1.02 0.34 0 0 Z " fill="#6E4C30" transform="translate(67,47)"/>
<path d="M0 0 C6.56219271 -0.33942376 10.37686392 0.46380474 15.875 4.3125 C17.55634713 6.8345207 17.19651668 9.05224987 17 12 C12.00797167 12.52547667 9.11343579 12.59933546 5.125 9.375 C2.19262779 6.56954139 0.86137758 4.01976205 0 0 Z " fill="#E8DCBD" transform="translate(31,60)"/>
<path d="M0 0 C-0.26787875 3.92888829 -0.52437097 5.54876221 -3.4375 8.3125 C-7.99004945 11.31052037 -10.60828193 11.08696319 -16 11 C-15.52722131 6.83954751 -15.01367009 4.01367009 -12 1 C-8.33352209 -0.62954574 -3.93044581 -0.06550743 0 0 Z " fill="#EAE3C6" transform="translate(77,60)"/>
<path d="M0 0 C1.32 0 2.64 0 4 0 C3.67 1.65 3.34 3.3 3 5 C3.78375 4.814375 4.5675 4.62875 5.375 4.4375 C8 4 8 4 10 5 C9.67 3.35 9.34 1.7 9 0 C9.99 0 10.98 0 12 0 C12.30938864 4.53770004 11.96407351 6.56167472 9 10 C8.67 10.99 8.34 11.98 8 13 C7.01 13 6.02 13 5 13 C2.14648443 9.76065697 0.13529106 6.29879417 -0.3125 2 C-0.209375 1.34 -0.10625 0.68 0 0 Z " fill="#E9E2BE" transform="translate(48,54)"/>
<path d="M0 0 C2.8125 -0.25 2.8125 -0.25 6 0 C7.875 2 7.875 2 9 4 C7.35 4 5.7 4 4 4 C4.495 4.433125 4.99 4.86625 5.5 5.3125 C7 7 7 7 7 10 C4.69 10 2.38 10 0 10 C0 9.01 0 8.02 0 7 C0.66 7 1.32 7 2 7 C2 6.01 2 5.02 2 4 C1.01 4 0.02 4 -1 4 C-0.67 2.68 -0.34 1.36 0 0 Z " fill="#66492F" transform="translate(51,49)"/>
<path d="M0 0 C0.185625 0.9590625 0.185625 0.9590625 0.375 1.9375 C0.684375 2.9584375 0.684375 2.9584375 1 4 C1.66 4.33 2.32 4.66 3 5 C3.07419134 9.21749219 3.1286204 13.43463811 3.16479492 17.65258789 C3.17987589 19.08722552 3.2003438 20.52181708 3.22631836 21.95629883 C3.26273437 24.01915859 3.27973243 26.08140858 3.29296875 28.14453125 C3.3086792 29.38565674 3.32438965 30.62678223 3.34057617 31.90551758 C3 35 3 35 1.48168945 36.9284668 C0.74825317 37.45887573 0.74825317 37.45887573 0 38 C0.16242188 37.36835937 0.32484375 36.73671875 0.4921875 36.0859375 C1.1783376 31.91625615 1.14458859 27.84307553 1.125 23.625 C1.12886719 22.8 1.13273437 21.975 1.13671875 21.125 C1.12907752 16.31102543 0.80603865 11.74667208 0 7 C-0.99 7.33 -1.98 7.66 -3 8 C-3 7.01 -3 6.02 -3 5 C-2.01 5 -1.02 5 0 5 C0 3.35 0 1.7 0 0 Z " fill="#EDDFBB" transform="translate(85,28)"/>
<path d="M0 0 C0.33 0 0.66 0 1 0 C0.99214478 1.05127075 0.99214478 1.05127075 0.98413086 2.1237793 C0.96329148 5.31167701 0.95031768 8.49956036 0.9375 11.6875 C0.92912109 12.79029297 0.92074219 13.89308594 0.91210938 15.02929688 C0.90888672 16.09599609 0.90566406 17.16269531 0.90234375 18.26171875 C0.89710693 19.24100342 0.89187012 20.22028809 0.88647461 21.22924805 C0.99691457 23.92469572 1.39465834 26.37545639 2 29 C-1.36790963 26.39752438 -2.27999256 23.04078941 -3 19 C-3.09010144 15.99786072 -2.88124563 13.05288655 -2.625 10.0625 C-2.56828125 9.28326172 -2.5115625 8.50402344 -2.453125 7.70117188 C-2.31315654 5.79993361 -2.15813968 3.89981314 -2 2 C-1.34 2 -0.68 2 0 2 C0 1.34 0 0.68 0 0 Z " fill="#E5DBBB" transform="translate(22,37)"/>
<path d="M0 0 C2.19636905 2.19636905 3.58511552 4.23760649 5 7 C4.67 7.99 4.34 8.98 4 10 C1.1875 10.625 1.1875 10.625 -2 11 C-2.99 10.34 -3.98 9.68 -5 9 C-5 7 -5 7 -3.625 5.375 C-2 4 -2 4 0 4 C0 2.68 0 1.36 0 0 Z " fill="#FBFADE" transform="translate(63,38)"/>
<path d="M0 0 C0 1.33333333 0 2.66666667 0 4 C-1.41538717 4.33872513 -2.83237963 4.67074624 -4.25 5 C-5.03890625 5.185625 -5.8278125 5.37125 -6.640625 5.5625 C-9 6 -9 6 -13 6 C-12.67 4.68 -12.34 3.36 -12 2 C-7.8803623 0.70756464 -4.33168317 -0.26252625 0 0 Z " fill="#A6936D" transform="translate(50,0)"/>
<path d="M0 0 C2.6855594 2.6855594 3.06049974 5.37621328 4 9 C0.25 12 0.25 12 -2 12 C-2 11.01 -2 10.02 -2 9 C-2.66 8.67 -3.32 8.34 -4 8 C-3.34 7.67 -2.68 7.34 -2 7 C-1.26924352 4.6859378 -0.59861742 2.35171131 0 0 Z " fill="#F7F7DE" transform="translate(86,88)"/>
<path d="M0 0 C-0.75 2.9375 -0.75 2.9375 -2 6 C-4.125 6.875 -4.125 6.875 -6 7 C-6.66 5.02 -7.32 3.04 -8 1 C-3.375 -1.125 -3.375 -1.125 0 0 Z " fill="#FCFAE4" transform="translate(44,6)"/>
<path d="M0 0 C2.19594095 0.48798688 4.1090026 1.05055193 6.15625 2 C9.69340701 3.24383543 13.10276907 3.45460088 16.8125 3.625 C17.85180664 3.68300781 17.85180664 3.68300781 18.91210938 3.7421875 C20.60767015 3.83573568 22.30379712 3.91892364 24 4 C24 4.33 24 4.66 24 5 C21.14557247 5.05437005 18.29219924 5.09384974 15.4375 5.125 C14.63763672 5.14175781 13.83777344 5.15851563 13.01367188 5.17578125 C7.93499665 5.21723982 3.81188094 4.64056075 -1 3 C-0.67 2.01 -0.34 1.02 0 0 Z " fill="#E4DABA" transform="translate(41,104)"/>
<path d="M0 0 C0 1.65 0 3.3 0 5 C0.99 5.33 1.98 5.66 3 6 C3 6.66 3 7.32 3 8 C4.98 8 6.96 8 9 8 C9 8.33 9 8.66 9 9 C2.13107822 9.7230444 2.13107822 9.7230444 -1.08984375 7.6640625 C-2.80497879 6.16989578 -4.43160073 4.64681923 -6 3 C-2.25 0 -2.25 0 0 0 Z " fill="#DDD5B7" transform="translate(39,63)"/>
<path d="M0 0 C0.66 0 1.32 0 2 0 C2.33 1.98 2.66 3.96 3 6 C4.98 6 6.96 6 9 6 C9 6.99 9 7.98 9 9 C7.02 9 5.04 9 3 9 C3 8.34 3 7.68 3 7 C1.68 6.67 0.36 6.34 -1 6 C-0.67 4.02 -0.34 2.04 0 0 Z " fill="#F6F3D4" transform="translate(39,62)"/>
<path d="M0 0 C0.66 0 1.32 0 2 0 C2 0.99 2 1.98 2 3 C2.66 3 3.32 3 4 3 C3.67 4.32 3.34 5.64 3 7 C1.68 7.33 0.36 7.66 -1 8 C-1 7.34 -1 6.68 -1 6 C-1.66 6 -2.32 6 -3 6 C-2.42655063 3.13275314 -2.1385485 2.1385485 0 0 Z " fill="#59361A" transform="translate(78,63)"/>
<path d="M0 0 C0.66 0 1.32 0 2 0 C3.6290678 4.79137588 4.20577428 8.05632546 3 13 C2.87625 12.071875 2.87625 12.071875 2.75 11.125 C2.18741541 8.81562433 2.18741541 8.81562433 -0.0625 7.75 C-0.701875 7.5025 -1.34125 7.255 -2 7 C-1.34 4.69 -0.68 2.38 0 0 Z " fill="#674F30" transform="translate(83,35)"/>
<path d="M0 0 C0.66 0.33 1.32 0.66 2 1 C1.50628906 1.37511719 1.01257813 1.75023437 0.50390625 2.13671875 C-3.62913755 5.3284978 -3.62913755 5.3284978 -5.9375 9.875 C-5.958125 10.57625 -5.97875 11.2775 -6 12 C-6.33 12 -6.66 12 -7 12 C-7 10.35 -7 8.7 -7 7 C-7.99 7 -8.98 7 -10 7 C-10.33 7.66 -10.66 8.32 -11 9 C-11.33 8.01 -11.66 7.02 -12 6 C-10.88625 5.731875 -9.7725 5.46375 -8.625 5.1875 C-4.78159049 4.34190981 -4.78159049 4.34190981 -3 1 C-2.01 0.67 -1.02 0.34 0 0 Z " fill="#85674D" transform="translate(67,47)"/>
<path d="M0 0 C0.66 0.33 1.32 0.66 2 1 C2 2.65 2 4.3 2 6 C0.68 6 -0.64 6 -2 6 C-2 7.32 -2 8.64 -2 10 C-2.66 10 -3.32 10 -4 10 C-4.25 7.25 -4.25 7.25 -4 4 C-2 1.625 -2 1.625 0 0 Z " fill="#F7F2DB" transform="translate(86,66)"/>
<path d="M0 0 C0.99 0.33 1.98 0.66 3 1 C4.1875 3.5625 4.1875 3.5625 5 6 C4.01 6.33 3.02 6.66 2 7 C1.67 8.65 1.34 10.3 1 12 C-1.31 12 -3.62 12 -6 12 C-6 11.67 -6 11.34 -6 11 C-4.02 11 -2.04 11 0 11 C-0.04125 10.071875 -0.0825 9.14375 -0.125 8.1875 C0 5 0 5 2 2 C1.34 2 0.68 2 0 2 C0 1.34 0 0.68 0 0 Z " fill="#6A4B31" transform="translate(48,61)"/>
<path d="M0 0 C0.185625 0.9590625 0.185625 0.9590625 0.375 1.9375 C0.684375 2.9584375 0.684375 2.9584375 1 4 C1.66 4.33 2.32 4.66 3 5 C2.67 7.97 2.34 10.94 2 14 C0 10 0 10 0 7 C-0.99 7.33 -1.98 7.66 -3 8 C-3 7.01 -3 6.02 -3 5 C-2.01 5 -1.02 5 0 5 C0 3.35 0 1.7 0 0 Z " fill="#D7D0B6" transform="translate(85,28)"/>
<path d="M0 0 C0.99 0.66 1.98 1.32 3 2 C2.34 2.66 1.68 3.32 1 4 C-0.75 3.75 -0.75 3.75 -3 3 C-4.0725 2.649375 -5.145 2.29875 -6.25 1.9375 C-7.1575 1.628125 -8.065 1.31875 -9 1 C-5.64847025 -1.11022243 -3.76699068 -1.15907406 0 0 Z " fill="#DDD4B5" transform="translate(61,48)"/>
<path d="M0 0 C2.22889496 -0.05428973 4.45817471 -0.09292338 6.6875 -0.125 C8.54955078 -0.15980469 8.54955078 -0.15980469 10.44921875 -0.1953125 C13.81237857 -0.01032021 15.9985587 0.54232105 19 2 C17.25 3.125 17.25 3.125 15 4 C14.401875 3.690625 13.80375 3.38125 13.1875 3.0625 C10.53374961 1.77353553 8.68209715 1.79783955 5.75 1.875 C4.41195312 1.90207031 4.41195312 1.90207031 3.046875 1.9296875 C2.37140625 1.95289062 1.6959375 1.97609375 1 2 C0.67 1.34 0.34 0.68 0 0 Z " fill="#C0B092" transform="translate(37,80)"/>
<path d="M0 0 C0.99 0 1.98 0 3 0 C4.74627478 2.61941217 5.38722388 4.03824877 6 7 C4.02 7.99 4.02 7.99 2 9 C1.34 6.03 0.68 3.06 0 0 Z " fill="#A79872" transform="translate(105,35)"/>
<path d="M0 0 C1.875 0.25 1.875 0.25 4 1 C5.25 3.0625 5.25 3.0625 6 5 C2.25 6.125 2.25 6.125 0 5 C0 3.35 0 1.7 0 0 Z " fill="#DDD4B7" transform="translate(42,63)"/>
<path d="M0 0 C0.33 0.66 0.66 1.32 1 2 C1.66 2 2.32 2 3 2 C1.86695008 5.39914975 0.87481525 6.05254451 -2 8 C-2.6875 5.6875 -2.6875 5.6875 -3 3 C-1.5625 1.1875 -1.5625 1.1875 0 0 Z " fill="#F5EFD7" transform="translate(18,19)"/>
<path d="M0 0 C0.66 0 1.32 0 2 0 C1 3 1 3 -1.3125 4.8125 C-4 6 -4 6 -6.3125 5.1875 C-6.869375 4.795625 -7.42625 4.40375 -8 4 C-6 2 -6 2 -2.875 1.875 C-1.92625 1.91625 -0.9775 1.9575 0 2 C0 1.34 0 0.68 0 0 Z " fill="#9F9069" transform="translate(86,101)"/>
<path d="M0 0 C0 4.24645065 -1.81750806 6.38524772 -4 10 C-4.66 10 -5.32 10 -6 10 C-5.72510809 5.96825194 -5.46508424 4.43105369 -2.4375 1.625 C-1.633125 1.08875 -0.82875 0.5525 0 0 Z " fill="#D0BDA4" transform="translate(83,67)"/>
<path d="M0 0 C1.32 0 2.64 0 4 0 C3.67 1.65 3.34 3.3 3 5 C3.99 4.67 4.98 4.34 6 4 C6 4.66 6 5.32 6 6 C4.35 6.33 2.7 6.66 1 7 C0.67 4.69 0.34 2.38 0 0 Z " fill="#D1BB9B" transform="translate(48,54)"/>
<path d="M0 0 C2.475 0.99 2.475 0.99 5 2 C5 2.66 5 3.32 5 4 C4.195625 4.12375 3.39125 4.2475 2.5625 4.375 C1.2940625 4.684375 1.2940625 4.684375 0 5 C-0.33 5.66 -0.66 6.32 -1 7 C-1.04254356 5.00045254 -1.04080783 2.99958364 -1 1 C-0.67 0.67 -0.34 0.34 0 0 Z " fill="#F1F5E0" transform="translate(89,20)"/>
<path d="M0 0 C0.99 0 1.98 0 3 0 C3 1.98 3 3.96 3 6 C2.01 6.495 2.01 6.495 1 7 C0.01 6.67 -0.98 6.34 -2 6 C-1.67 5.34 -1.34 4.68 -1 4 C-0.34 4.33 0.32 4.66 1 5 C0.67 3.35 0.34 1.7 0 0 Z " fill="#D8C0A2" transform="translate(57,54)"/>
<path d="M0 0 C1.125 1.6875 1.125 1.6875 2 4 C1.125 6.75 1.125 6.75 0 9 C-0.33 8.01 -0.66 7.02 -1 6 C-1.66 5.67 -2.32 5.34 -3 5 C-2.01 3.35 -1.02 1.7 0 0 Z " fill="#A49878" transform="translate(102,81)"/>
<path d="M0 0 C2.475 0.99 2.475 0.99 5 2 C5 2.33 5 2.66 5 3 C3.35 3 1.7 3 0 3 C0 3.99 0 4.98 0 6 C-0.66 6 -1.32 6 -2 6 C-1.125 1.125 -1.125 1.125 0 0 Z " fill="#55341A" transform="translate(51,66)"/>
<path d="M0 0 C0.66 0 1.32 0 2 0 C2 0.66 2 1.32 2 2 C3.32 2.33 4.64 2.66 6 3 C6 3.99 6 4.98 6 6 C5.01 6 4.02 6 3 6 C2.01 4.02 1.02 2.04 0 0 Z " fill="#CEBD9B" transform="translate(50,61)"/>
<path d="M0 0 C2.475 0.495 2.475 0.495 5 1 C4.34 2.65 3.68 4.3 3 6 C2.34 5.67 1.68 5.34 1 5 C0.375 2.4375 0.375 2.4375 0 0 Z " fill="#67412B" transform="translate(60,59)"/>
<path d="M0 0 C0.99 0 1.98 0 3 0 C3 0.66 3 1.32 3 2 C3.66 2.33 4.32 2.66 5 3 C3.02 3.33 1.04 3.66 -1 4 C-0.67 2.68 -0.34 1.36 0 0 Z " fill="#AB9B75" transform="translate(38,2)"/>
</svg>
