<?xml version="1.0" encoding="UTF-8"?>
<svg version="1.1" xmlns="http://www.w3.org/2000/svg" width="112" height="112">
<path d="M0 0 C1.50292321 1.13589918 2.98136883 2.30470624 4.4375 3.5 C5.42492187 4.27601562 6.41234375 5.05203125 7.4296875 5.8515625 C17.06008203 13.94371608 23.37638945 26.6814639 24.71533203 39.07080078 C25.91523716 55.98074196 23.43907236 70.09766079 12.4375 83.5 C11.66148438 84.48742187 10.88546875 85.47484375 10.0859375 86.4921875 C1.99378392 96.12258203 -10.7439639 102.43888945 -23.13330078 103.77783203 C-40.04324196 104.97773716 -54.16016079 102.50157236 -67.5625 91.5 C-69.04363281 90.33597656 -69.04363281 90.33597656 -70.5546875 89.1484375 C-80.18508203 81.05628392 -86.50138945 68.3185361 -87.84033203 55.92919922 C-89.04023716 39.01925804 -86.56407236 24.90233921 -75.5625 11.5 C-74.78648438 10.51257813 -74.01046875 9.52515625 -73.2109375 8.5078125 C-55.75628726 -12.2647997 -21.83894221 -14.78577273 0 0 Z " fill="#EAE5CB" transform="translate(87.5625,8.5)"/>
<path d="M0 0 C10.51717875 0.17825727 20.67595478 5.50949921 28 13 C39.96148437 27.04454359 44.44543209 40.78674811 43 59 C40.44804886 74.11185522 32.4681921 85.71122407 20.4375 94.97265625 C8.40570985 103.20953585 -4.66751293 105.74356562 -19 104 C-32.49733061 101.46573069 -43.00178599 94.14504521 -52 84 C-54.1803075 80.72953875 -54.68959439 78.8800701 -55 75 C-54.21243386 72.17788801 -53.62311724 70.52725305 -51.375 68.625 C-49.15293161 65.99891917 -49.81357593 63.29349183 -50 60 C-51.32 59.67 -52.64 59.34 -54 59 C-54 58.01 -54 57.02 -54 56 C-52.515 55.505 -52.515 55.505 -51 55 C-49.79117904 52.99983534 -49.79117904 52.99983534 -49 51 C-47.35 52.98 -45.7 54.96 -44 57 C-44.99 57.495 -44.99 57.495 -46 58 C-46.874138 60.97945629 -47.15249159 63.90284327 -47 67 C-45.25055924 70.04753335 -45.25055924 70.04753335 -43 72 C-43.66 72 -44.32 72 -45 72 C-45 72.66 -45 73.32 -45 74 C-44.34 74 -43.68 74 -43 74 C-43 76.31 -43 78.62 -43 81 C-40.36 80.67 -37.72 80.34 -35 80 C-34.95875 79.2575 -34.9175 78.515 -34.875 77.75 C-33.64327048 73.87885007 -31.38291434 73.17017146 -28 71 C-27.07731919 69.83323793 -26.18258927 68.64399006 -25.3125 67.4375 C-21.52434422 62.70484425 -16.75329895 62.1927571 -11 61 C-10.505 66.94 -10.505 66.94 -10 73 C-9.34 72.67 -8.68 72.34 -8 72 C-7.31068656 69.65092125 -7.31068656 69.65092125 -6.875 66.9375 C-6.70742188 66.01839844 -6.53984375 65.09929687 -6.3671875 64.15234375 C-6.18542969 63.08693359 -6.18542969 63.08693359 -6 62 C-5.01 62 -4.02 62 -3 62 C-3 61.34 -3 60.68 -3 60 C-1.11328125 60.2734375 -1.11328125 60.2734375 1 61 C2.01953125 62.6015625 2.01953125 62.6015625 2.8125 64.625 C5.37503366 70.26662549 9.44473554 74.16545116 14.4375 77.75 C14.953125 78.1625 15.46875 78.575 16 79 C16 79.99 16 80.98 16 82 C18.31 82.33 20.62 82.66 23 83 C22.67 81.02 22.34 79.04 22 77 C20.515 76.505 20.515 76.505 19 76 C17.4921875 73.77734375 17.4921875 73.77734375 15.875 70.9375 C12.77742257 65.83677829 9.39125544 62.33501263 4.72265625 58.65625 C4.15417969 58.1096875 3.58570313 57.563125 3 57 C3 56.01 3 55.02 3 54 C3.66 54 4.32 54 5 54 C4.773125 53.401875 4.54625 52.80375 4.3125 52.1875 C4 50 4 50 5.0625 48.40625 C7.86590433 46.37152105 10.26245441 46.48205671 13.6875 46.3125 C14.86699219 46.24675781 16.04648438 46.18101563 17.26171875 46.11328125 C18.16535156 46.07589844 19.06898437 46.03851563 20 46 C20 45.34 20 44.68 20 44 C15.05 44 10.1 44 5 44 C4.67 42.35 4.34 40.7 4 39 C4.66 39 5.32 39 6 39 C5.77570313 38.27039062 5.55140625 37.54078125 5.3203125 36.7890625 C4.91180192 33.23203136 5.76751642 32.20116461 7.875 29.375 C9.75713421 26.810045 10.98563584 25.04309249 12 22 C12.66 22 13.32 22 14 22 C14 21.01 14 20.02 14 19 C10.77561217 21.54951595 7.89510704 23.98286261 5.3125 27.1875 C3 30 3 30 0 32 C-3.625 32.1875 -3.625 32.1875 -7 32 C-8 31 -8 31 -8.09765625 28.05859375 C-8.08605469 26.86363281 -8.07445312 25.66867188 -8.0625 24.4375 C-8.05347656 23.23996094 -8.04445312 22.04242187 -8.03515625 20.80859375 C-8.02355469 19.88175781 -8.01195312 18.95492188 -8 18 C-8.66 18 -9.32 18 -10 18 C-10 17.34 -10 16.68 -10 16 C-9.360625 15.87625 -8.72125 15.7525 -8.0625 15.625 C-7.381875 15.41875 -6.70125 15.2125 -6 15 C-5.67 14.34 -5.34 13.68 -5 13 C-5.99 12.67 -6.98 12.34 -8 12 C-7.01 11.67 -6.02 11.34 -5 11 C-5.495 8.525 -5.495 8.525 -6 6 C-4.68 5.34 -3.36 4.68 -2 4 C-2 3.34 -2 2.68 -2 2 C-1.34 2 -0.68 2 0 2 C0 1.34 0 0.68 0 0 Z " fill="#EDE9CF" transform="translate(66,5)"/>
<path d="M0 0 C1.50292321 1.13589918 2.98136883 2.30470624 4.4375 3.5 C5.42492187 4.27601562 6.41234375 5.05203125 7.4296875 5.8515625 C17.06008203 13.94371608 23.37638945 26.6814639 24.71533203 39.07080078 C25.91523716 55.98074196 23.43907236 70.09766079 12.4375 83.5 C11.66148438 84.48742187 10.88546875 85.47484375 10.0859375 86.4921875 C1.99378392 96.12258203 -10.7439639 102.43888945 -23.13330078 103.77783203 C-40.04324196 104.97773716 -54.16016079 102.50157236 -67.5625 91.5 C-69.04363281 90.33597656 -69.04363281 90.33597656 -70.5546875 89.1484375 C-80.18508203 81.05628392 -86.50138945 68.3185361 -87.84033203 55.92919922 C-89.04023716 39.01925804 -86.56407236 24.90233921 -75.5625 11.5 C-74.78648438 10.51257813 -74.01046875 9.52515625 -73.2109375 8.5078125 C-55.75628726 -12.2647997 -21.83894221 -14.78577273 0 0 Z M-75.21484375 16.48046875 C-84.67427685 29.30967446 -86.34834559 44.37967089 -84.0859375 59.734375 C-80.90653226 73.29472986 -71.07375232 84.77632763 -60.09765625 92.96484375 C-47.7598786 100.43594794 -32.51019025 102.96621844 -18.4296875 99.6640625 C-9.95567994 97.071399 -3.25895937 93.26909141 3.4375 87.5 C4.52998047 86.57380859 4.52998047 86.57380859 5.64453125 85.62890625 C15.54689398 76.52176194 20.88368336 64.75077533 21.75 51.421875 C22.32739626 37.2259464 18.81611788 26.07320507 10.4375 14.5 C9.2928125 12.89125 9.2928125 12.89125 8.125 11.25 C-1.65753726 1.23996187 -15.47006494 -5.50974083 -29.54858398 -5.93139648 C-48.58105236 -5.98734142 -63.04204292 1.89037414 -75.21484375 16.48046875 Z " fill="#A3916A" transform="translate(87.5625,8.5)"/>
<path d="M0 0 C0.66 0 1.32 0 2 0 C2 0.99 2 1.98 2 3 C1.34 3 0.68 3 0 3 C-0.0928125 4.0209375 -0.0928125 4.0209375 -0.1875 5.0625 C-0.98566725 7.94818159 -1.77261274 9.18932634 -3.5625 11.5 C-5.42841613 13.95035538 -5.97622932 14.77655564 -6.3125 17.9375 C-6.1578125 18.9584375 -6.1578125 18.9584375 -6 20 C-6.66 20 -7.32 20 -8 20 C-7.505 22.475 -7.505 22.475 -7 25 C-2.05 25 2.9 25 8 25 C8 25.66 8 26.32 8 27 C3.05 27.66 -1.9 28.32 -7 29 C-7 30.98 -7 32.96 -7 35 C-7.66 35 -8.32 35 -9 35 C-7.60243441 38.28713131 -6.04355249 39.99488612 -3.25 42.1875 C1.10061802 45.8553568 4.30431314 49.98643088 7 55 C7 55.66 7 56.32 7 57 C8.32 57.33 9.64 57.66 11 58 C11 59.98 11 61.96 11 64 C7.625 63.75 7.625 63.75 4 63 C3.29442276 61.68684236 2.63239707 60.34992451 2 59 C0.19920191 57.20887454 0.19920191 57.20887454 -1.875 55.5625 C-5.82701148 52.20472213 -9.15816546 49.17886588 -11.0625 44.25 C-11.371875 43.5075 -11.68125 42.765 -12 42 C-12.99 41.67 -13.98 41.34 -15 41 C-15 41.66 -15 42.32 -15 43 C-15.99 43 -16.98 43 -18 43 C-17.95875 44.0725 -17.9175 45.145 -17.875 46.25 C-17.9885825 49.65747485 -18.21273364 51.20739631 -20 54 C-20.66 54 -21.32 54 -22 54 C-23.26237731 51.47524538 -23.09856404 49.68799534 -23.0625 46.875 C-23.05347656 45.96492188 -23.04445313 45.05484375 -23.03515625 44.1171875 C-23.02355469 43.41851562 -23.01195313 42.71984375 -23 42 C-23.66 42 -24.32 42 -25 42 C-25.33 42.66 -25.66 43.32 -26 44 C-27.36003132 44.42610423 -28.73934834 44.79150418 -30.125 45.125 C-35.04653442 46.63510516 -37.34337762 49.11455255 -40.39453125 53.16015625 C-42.12733567 55.14592482 -43.65487724 55.8745394 -46 57 C-46.80528889 59.05000871 -46.80528889 59.05000871 -47 61 C-50.465 61.495 -50.465 61.495 -54 62 C-54 59.69 -54 57.38 -54 55 C-53.37738281 54.90976563 -52.75476563 54.81953125 -52.11328125 54.7265625 C-49.90077652 54.21131094 -49.90077652 54.21131094 -48.98046875 52.3984375 C-48.71878906 51.73070312 -48.45710938 51.06296875 -48.1875 50.375 C-45.80943468 45.14889597 -42.11700323 40.50162199 -36.859375 37.96875 C-34.20105257 36.58374167 -33.87424521 34.76844316 -33 32 C-33.66 32 -34.32 32 -35 32 C-35.33 31.34 -35.66 30.68 -36 30 C-38.80980673 29.30772968 -38.80980673 29.30772968 -42.0625 28.875 C-43.16722656 28.70742188 -44.27195312 28.53984375 -45.41015625 28.3671875 C-46.26480469 28.24601562 -47.11945312 28.12484375 -48 28 C-48 27.34 -48 26.68 -48 26 C-44.04 25.67 -40.08 25.34 -36 25 C-36.33 22.36 -36.66 19.72 -37 17 C-36.01 17.33 -35.02 17.66 -34 18 C-33.14256349 22.39436211 -32.91051442 26.52572076 -33 31 C-25.47182117 28.71873369 -20.54675073 22.6636054 -15.609375 16.86328125 C-13.52603444 14.45125832 -11.2535141 12.2535141 -9 10 C-6.65078003 7.34739037 -4.31189214 4.68680019 -1.98828125 2.01171875 C-1.33214844 1.34785156 -0.67601562 0.68398438 0 0 Z " fill="#EFE7CD" transform="translate(78,24)"/>
<path d="M0 0 C0.66 0 1.32 0 2 0 C2 3 2 3 -0.203125 5.3671875 C-1.12609375 6.23601563 -2.0490625 7.10484375 -3 8 C-8.97057082 14.34620276 -14.64335035 20.88679681 -20.08984375 27.6875 C-22 30 -22 30 -23.69140625 31.625 C-25.2633025 33.08165639 -25.2633025 33.08165639 -26 36 C-27.66666667 37.66666667 -29.33333333 39.33333333 -31 41 C-31.61875 41.928125 -32.2375 42.85625 -32.875 43.8125 C-36.50255123 49.25382684 -40.08082276 54.09100264 -46 57 C-46.80528889 59.05000871 -46.80528889 59.05000871 -47 61 C-50.465 61.495 -50.465 61.495 -54 62 C-54 59.69 -54 57.38 -54 55 C-53.37738281 54.90976563 -52.75476563 54.81953125 -52.11328125 54.7265625 C-49.90077652 54.21131094 -49.90077652 54.21131094 -48.98046875 52.3984375 C-48.71878906 51.73070312 -48.45710938 51.06296875 -48.1875 50.375 C-45.80943468 45.14889597 -42.11700323 40.50162199 -36.859375 37.96875 C-34.20105257 36.58374167 -33.87424521 34.76844316 -33 32 C-33.66 32 -34.32 32 -35 32 C-35.33 31.34 -35.66 30.68 -36 30 C-38.80980673 29.30772968 -38.80980673 29.30772968 -42.0625 28.875 C-43.16722656 28.70742188 -44.27195312 28.53984375 -45.41015625 28.3671875 C-46.26480469 28.24601562 -47.11945312 28.12484375 -48 28 C-48 27.34 -48 26.68 -48 26 C-44.04 25.67 -40.08 25.34 -36 25 C-36.33 22.36 -36.66 19.72 -37 17 C-36.01 17.33 -35.02 17.66 -34 18 C-33.14256349 22.39436211 -32.91051442 26.52572076 -33 31 C-25.47182117 28.71873369 -20.54675073 22.6636054 -15.609375 16.86328125 C-13.52603444 14.45125832 -11.2535141 12.2535141 -9 10 C-6.65078003 7.34739037 -4.31189214 4.68680019 -1.98828125 2.01171875 C-1.33214844 1.34785156 -0.67601562 0.68398438 0 0 Z " fill="#603F25" transform="translate(78,24)"/>
<path d="M0 0 C0.66 0 1.32 0 2 0 C2.70125 0.969375 3.4025 1.93875 4.125 2.9375 C5.69931932 4.93819747 6.52137804 5.868192 9 6.55078125 C10.99684167 6.73798516 12.99856334 6.87087505 15 7 C15.99 7.66 16.98 8.32 18 9 C18 9.66 18 10.32 18 11 C18.99 11 19.98 11 21 11 C20.979375 9.741875 20.95875 8.48375 20.9375 7.1875 C20.89113917 4.35948913 21.08307039 2.75078884 22 0 C22.66 0 23.32 0 24 0 C24.33 3.63 24.66 7.26 25 11 C27.31 11.33 29.62 11.66 32 12 C30.59712123 13.64239465 29.19332071 15.28400996 27.78515625 16.921875 C26.58032596 18.32443455 25.37989834 19.73078647 24.18359375 21.140625 C23.28833984 22.18476562 23.28833984 22.18476562 22.375 23.25 C21.82585938 23.89453125 21.27671875 24.5390625 20.7109375 25.203125 C18.90351802 27.10132811 17.22968669 28.61605654 15 30 C13.68 30 12.36 30 11 30 C10.855625 28.96875 10.71125 27.9375 10.5625 26.875 C10.376875 25.59625 10.19125 24.3175 10 23 C9.855625 21.88625 9.71125 20.7725 9.5625 19.625 C9.376875 18.75875 9.19125 17.8925 9 17 C8.34 16.67 7.68 16.34 7 16 C6.67 16.66 6.34 17.32 6 18 C6 16.68 6 15.36 6 14 C6.66 14 7.32 14 8 14 C6.43524613 10.5410704 4.79076907 7.60845807 2.3125 4.75 C0 2 0 2 0 0 Z " fill="#DCD2B0" transform="translate(34,25)"/>
<path d="M0 0 C3.875 1.75 3.875 1.75 5 4 C5.99 4.33 6.98 4.66 8 5 C9.00375027 6.66441076 10.00318857 8.33142434 11 10 C12.57760205 11.48936329 14.2066292 12.92557169 15.875 14.3125 C20.17015722 18.06762284 23.61712622 21.77021913 26 27 C26 27.66 26 28.32 26 29 C27.32 29.33 28.64 29.66 30 30 C30 31.98 30 33.96 30 36 C26.625 35.75 26.625 35.75 23 35 C22.29442276 33.68684236 21.63239707 32.34992451 21 31 C19.19920191 29.20887454 19.19920191 29.20887454 17.125 27.5625 C11.22603739 22.54891514 7.46930935 17.40792804 5 10 C4.34 10 3.68 10 3 10 C-1.09030544 4.85790173 -1.09030544 4.85790173 -0.75 1.625 C-0.5025 1.08875 -0.255 0.5525 0 0 Z " fill="#604126" transform="translate(59,52)"/>
<path d="M0 0 C0.33 0.66 0.66 1.32 1 2 C0.3503125 2.88751953 0.3503125 2.88751953 -0.3125 3.79296875 C-0.869375 4.58316406 -1.42625 5.37335937 -2 6.1875 C-2.556875 6.96480469 -3.11375 7.74210937 -3.6875 8.54296875 C-5.151369 11.28336637 -5.26080213 12.94100837 -5 16 C-5.66 16 -6.32 16 -7 16 C-6.67 17.65 -6.34 19.3 -6 21 C-1.05 21 3.9 21 9 21 C9 21.66 9 22.32 9 23 C4.05 23.66 -0.9 24.32 -6 25 C-6 26.98 -6 28.96 -6 31 C-6.66 31 -7.32 31 -8 31 C-8.33 31.66 -8.66 32.32 -9 33 C-9.33 31.68 -9.66 30.36 -10 29 C-10.639375 28.896875 -11.27875 28.79375 -11.9375 28.6875 C-12.618125 28.460625 -13.29875 28.23375 -14 28 C-14.33 27.01 -14.66 26.02 -15 25 C-14.34 25 -13.68 25 -13 25 C-13 23.35 -13 21.7 -13 20 C-12.34 20 -11.68 20 -11 20 C-11 19.34 -11 18.68 -11 18 C-11.99 17.67 -12.98 17.34 -14 17 C-4.58997722 5.47835991 -4.58997722 5.47835991 0 0 Z " fill="#DFD5BB" transform="translate(77,28)"/>
<path d="M0 0 C0.66 0 1.32 0 2 0 C2.70125 0.969375 3.4025 1.93875 4.125 2.9375 C5.69931932 4.93819747 6.52137804 5.868192 9 6.55078125 C10.99684167 6.73798516 12.99856334 6.87087505 15 7 C15.99 7.66 16.98 8.32 18 9 C18 9.66 18 10.32 18 11 C18.99 11 19.98 11 21 11 C20.979375 9.741875 20.95875 8.48375 20.9375 7.1875 C20.89113917 4.35948913 21.08307039 2.75078884 22 0 C22.66 0 23.32 0 24 0 C24.04898438 0.78246094 24.09796875 1.56492187 24.1484375 2.37109375 C24.22320312 3.38300781 24.29796875 4.39492188 24.375 5.4375 C24.44460937 6.44683594 24.51421875 7.45617188 24.5859375 8.49609375 C24.72257812 9.32238281 24.85921875 10.14867187 25 11 C25.66 11.33 26.32 11.66 27 12 C27 12.66 27 13.32 27 14 C24.03 13.505 24.03 13.505 21 13 C21 13.66 21 14.32 21 15 C20.01 15.33 19.02 15.66 18 16 C18.33 16.5775 18.66 17.155 19 17.75 C20 20 20 20 20 24 C16.37323035 22.52361589 14.61308453 20.58568062 12.25 17.5 C11.56421875 16.613125 10.8784375 15.72625 10.171875 14.8125 C9.45515625 13.884375 8.7384375 12.95625 8 12 C5.82756983 9.33988142 3.65089915 6.68340051 1.46875 4.03125 C0 2 0 2 0 0 Z " fill="#DBD1B4" transform="translate(34,25)"/>
<path d="M0 0 C4.875 4.75 4.875 4.75 6 7 C5.34 7 4.68 7 4 7 C2.64804406 13.29122419 2.64804406 13.29122419 4.9375 19.0625 C5.618125 19.701875 6.29875 20.34125 7 21 C6.360625 21.598125 5.72125 22.19625 5.0625 22.8125 C2.79689611 24.90810337 2.79689611 24.90810337 2 28 C1.34 28 0.68 28 0 28 C-0.28875 26.865625 -0.5775 25.73125 -0.875 24.5625 C-1.24625 23.386875 -1.6175 22.21125 -2 21 C-2.66 20.67 -3.32 20.34 -4 20 C-3.34 19.484375 -2.68 18.96875 -2 18.4375 C0.65637543 15.20004245 0.31342132 13.07447719 0 9 C-1.32 8.67 -2.64 8.34 -4 8 C-4 7.01 -4 6.02 -4 5 C-3.01 4.67 -2.02 4.34 -1 4 C-0.26676204 1.98491642 -0.26676204 1.98491642 0 0 Z " fill="#FAF7E0" transform="translate(16,56)"/>
<path d="M0 0 C1.875 0.265625 1.875 0.265625 4 1 C5.125 2.671875 5.125 2.671875 6 4.75 C7.59750268 8.27464877 9.43512964 11.06871959 12 14 C9.6875 15.125 9.6875 15.125 7 16 C6.01 15.34 5.02 14.68 4 14 C4 13.34 4 12.68 4 12 C0.37114676 11.84850702 0.37114676 11.84850702 -3 13 C-3 9.37 -3 5.74 -3 2 C-2.01 2 -1.02 2 0 2 C0 1.34 0 0.68 0 0 Z " fill="#E6DFC4" transform="translate(63,65)"/>
<path d="M0 0 C0.66 0 1.32 0 2 0 C2 3 2 3 -0.19921875 5.36328125 C-1.12347656 6.23339844 -2.04773438 7.10351562 -3 8 C-9.34357272 14.73681214 -15.32479214 21.69198095 -21 29 C-21.33 28.34 -21.66 27.68 -22 27 C-22.66 26.67 -23.32 26.34 -24 26 C-22.27227744 24.10283355 -20.54287266 22.20724695 -18.8125 20.3125 C-18.32974609 19.78205078 -17.84699219 19.25160156 -17.34960938 18.70507812 C-15.07685941 16.21878118 -12.78486364 13.7855097 -10.3984375 11.40625 C-7.34690569 8.34477834 -4.57372469 5.07971938 -1.76953125 1.79296875 C-1.18558594 1.20128906 -0.60164063 0.60960938 0 0 Z " fill="#675035" transform="translate(78,24)"/>
<path d="M0 0 C0.33 0.66 0.66 1.32 1 2 C1.66 2 2.32 2 3 2 C3.33 2.99 3.66 3.98 4 5 C3.34 5 2.68 5 2 5 C2 5.66 2 6.32 2 7 C1.01 7 0.02 7 -1 7 C-0.95875 8.0725 -0.9175 9.145 -0.875 10.25 C-0.9885825 13.65747485 -1.21273364 15.20739631 -3 18 C-3.66 18 -4.32 18 -5 18 C-6.21693876 15.56612247 -6.31959896 13.58161154 -6.5625 10.875 C-6.64628906 9.96492188 -6.73007812 9.05484375 -6.81640625 8.1171875 C-6.87699219 7.41851562 -6.93757813 6.71984375 -7 6 C-7.99 6 -8.98 6 -10 6 C-9.67 5.01 -9.34 4.02 -9 3 C-6.03 3 -3.06 3 0 3 C0 2.01 0 1.02 0 0 Z " fill="#C5B69B" transform="translate(61,60)"/>
<path d="M0 0 C0.99 0.33 1.98 0.66 3 1 C3.85743651 5.39436211 4.08948558 9.52572076 4 14 C5.32 14.33 6.64 14.66 8 15 C7.34 15 6.68 15 6 15 C6 15.99 6 16.98 6 18 C5.01 18.33 4.02 18.66 3 19 C3.33 17.68 3.66 16.36 4 15 C3.34 15 2.68 15 2 15 C1.67 14.34 1.34 13.68 1 13 C-1.80980673 12.30772968 -1.80980673 12.30772968 -5.0625 11.875 C-6.71958984 11.62363281 -6.71958984 11.62363281 -8.41015625 11.3671875 C-9.26480469 11.24601562 -10.11945312 11.12484375 -11 11 C-11 10.34 -11 9.68 -11 9 C-5.06 8.505 -5.06 8.505 1 8 C0.67 5.36 0.34 2.72 0 0 Z " fill="#70583E" transform="translate(41,41)"/>
<path d="M0 0 C2 0 2 0 3.33984375 1.328125 C3.86707031 1.96234375 4.39429688 2.5965625 4.9375 3.25 C7.19345612 5.92655811 9.48567396 8.53504138 11.90625 11.0625 C12.40648682 11.5894043 12.90672363 12.11630859 13.42211914 12.65917969 C14.42174545 13.7085699 15.42863775 14.75109271 16.44311523 15.78613281 C19.33851424 18.85309978 20 19.5931283 20 24 C16.37323035 22.52361589 14.61308453 20.58568062 12.25 17.5 C11.56421875 16.613125 10.8784375 15.72625 10.171875 14.8125 C9.45515625 13.884375 8.7384375 12.95625 8 12 C5.82756983 9.33988142 3.65089915 6.68340051 1.46875 4.03125 C0 2 0 2 0 0 Z " fill="#6C5940" transform="translate(34,25)"/>
<path d="M0 0 C1.65 0.33 3.3 0.66 5 1 C4.59007813 1.47050781 4.18015625 1.94101562 3.7578125 2.42578125 C2.94957031 3.35970703 2.94957031 3.35970703 2.125 4.3125 C1.59132813 4.92738281 1.05765625 5.54226562 0.5078125 6.17578125 C-1.1640447 8.13498212 -1.1640447 8.13498212 -3 11 C-3.99 10.67 -4.98 10.34 -6 10 C-6 9.34 -6 8.68 -6 8 C-7.32 7.67 -8.64 7.34 -10 7 C-9.67 6.01 -9.34 5.02 -9 4 C-8.01 4 -7.02 4 -6 4 C-6 3.34 -6 2.68 -6 2 C-3.03 2.495 -3.03 2.495 0 3 C0 2.01 0 1.02 0 0 Z " fill="#ECE2C2" transform="translate(61,36)"/>
<path d="M0 0 C0.66 0 1.32 0 2 0 C2 2.31 2 4.62 2 7 C6.95 7 11.9 7 17 7 C17 7.66 17 8.32 17 9 C12.05 9.66 7.1 10.32 2 11 C2 12.98 2 14.96 2 17 C1.01 16.34 0.02 15.68 -1 15 C-0.814375 13.783125 -0.62875 12.56625 -0.4375 11.3125 C-0.0021969 7.9433733 -0.2182651 5.32237331 -1 2 C-0.67 1.34 -0.34 0.68 0 0 Z " fill="#6E5940" transform="translate(69,42)"/>
<path d="M0 0 C0.28875 0.639375 0.5775 1.27875 0.875 1.9375 C1.82823451 4.15206079 1.82823451 4.15206079 4 5 C4 5.66 4 6.32 4 7 C4.66 7.33 5.32 7.66 6 8 C3.69 8 1.38 8 -1 8 C-0.34 8.66 0.32 9.32 1 10 C-1.76223278 12.76223278 -4.20706617 12.57856291 -8 13 C-6.06382979 6.29787234 -6.06382979 6.29787234 -3 4 C-2.34 4 -1.68 4 -1 4 C-0.67 2.68 -0.34 1.36 0 0 Z " fill="#D9C1A6" transform="translate(53,56)"/>
<path d="M0 0 C1.98 0.66 3.96 1.32 6 2 C5.49287967 5.71888239 4.88391785 8.73454239 3 12 C2.34 12 1.68 12 1 12 C1 10.68 1 9.36 1 8 C0.34 8 -0.32 8 -1 8 C-1.33 9.32 -1.66 10.64 -2 12 C-2.28571429 3.42857143 -2.28571429 3.42857143 0 0 Z " fill="#F3EFD8" transform="translate(34,8)"/>
<path d="M0 0 C1.5 1.375 1.5 1.375 3 3 C3 3.66 3 4.32 3 5 C3.66 5 4.32 5 5 5 C5 6.32 5 7.64 5 9 C4.01 9.495 4.01 9.495 3 10 C2.27840576 11.64363134 1.60648579 13.31050386 1 15 C-1.82874741 11.80228554 -2.82530747 9.27996704 -3 5 C-1.5625 2.125 -1.5625 2.125 0 0 Z " fill="#FAFBE4" transform="translate(87,49)"/>
<path d="M0 0 C2.38691438 0.92396686 3.71023043 1.49290326 5 3.75 C5 7.25921527 3.04766433 9.26978089 1 12 C-1 10 -1 10 -2 7 C-3.49985609 5.33289654 -3.49985609 5.33289654 -5 4 C-4.01 4 -3.02 4 -2 4 C-1.34 2.68 -0.68 1.36 0 0 Z " fill="#FDFBE5" transform="translate(63,12)"/>
<path d="M0 0 C0.66 0 1.32 0 2 0 C2.04898438 0.78246094 2.09796875 1.56492187 2.1484375 2.37109375 C2.22320312 3.38300781 2.29796875 4.39492188 2.375 5.4375 C2.47941406 6.95150391 2.47941406 6.95150391 2.5859375 8.49609375 C2.72257812 9.32238281 2.85921875 10.14867187 3 11 C3.66 11.33 4.32 11.66 5 12 C5 12.66 5 13.32 5 14 C2.03 14 -0.94 14 -4 14 C-4 13.34 -4 12.68 -4 12 C-3.01 12 -2.02 12 -1 12 C-1.01160156 11.38511719 -1.02320313 10.77023438 -1.03515625 10.13671875 C-1.04417969 9.32847656 -1.05320313 8.52023438 -1.0625 7.6875 C-1.07410156 6.88699219 -1.08570313 6.08648437 -1.09765625 5.26171875 C-1 3 -1 3 0 0 Z " fill="#816D55" transform="translate(56,25)"/>
<path d="M0 0 C2.50866154 1.1759351 3.51540594 2.63637921 5 4.9375 C4.01 4.9375 3.02 4.9375 2 4.9375 C1.34 6.5875 0.68 8.2375 0 9.9375 C-0.66 9.9375 -1.32 9.9375 -2 9.9375 C-2 8.9475 -2 7.9575 -2 6.9375 C-2.66 6.9375 -3.32 6.9375 -4 6.9375 C-4.6875 5.125 -4.6875 5.125 -5 2.9375 C-3.49881691 0.64622055 -2.78081605 -0.0869005 0 0 Z " fill="#FAF9DE" transform="translate(65,76.0625)"/>
<path d="M0 0 C0.66 0 1.32 0 2 0 C2 4.29 2 8.58 2 13 C1.01 13.495 1.01 13.495 0 14 C-3.39297439 6.01346028 -3.39297439 6.01346028 -1.8125 1.9375 C-1.214375 1.298125 -0.61625 0.65875 0 0 Z " fill="#F8F2DB" transform="translate(106,52)"/>
<path d="M0 0 C0.66 0 1.32 0 2 0 C2 3 2 3 -0.1875 5.3125 C-1.115625 6.199375 -2.04375 7.08625 -3 8 C-4.71439073 9.9645991 -6.35359305 11.97727146 -8 14 C-9.32 13.34 -10.64 12.68 -12 12 C-11.13375 11.319375 -10.2675 10.63875 -9.375 9.9375 C-6.26876688 7.37596179 -3.79366157 4.50329912 -1.296875 1.35546875 C-0.65492187 0.68451172 -0.65492187 0.68451172 0 0 Z " fill="#6E5F42" transform="translate(78,24)"/>
<path d="M0 0 C0.99 1.32 1.98 2.64 3 4 C1.56445975 4.50559908 0.1264798 5.0042749 -1.3125 5.5 C-2.51326172 5.91765625 -2.51326172 5.91765625 -3.73828125 6.34375 C-6 7 -6 7 -9 7 C-9 5.68 -9 4.36 -9 3 C-6.03 2.01 -3.06 1.02 0 0 Z " fill="#A99670" transform="translate(41,1)"/>
<path d="M0 0 C0.99 0 1.98 0 3 0 C3 0.66 3 1.32 3 2 C4.65 1.67 6.3 1.34 8 1 C7.67 2.65 7.34 4.3 7 6 C4.69 6.33 2.38 6.66 0 7 C0 4.69 0 2.38 0 0 Z " fill="#664530" transform="translate(24,79)"/>
<path d="M0 0 C2.97 0 5.94 0 9 0 C9.33 0.99 9.66 1.98 10 3 C8.68 3 7.36 3 6 3 C6.061875 4.423125 6.061875 4.423125 6.125 5.875 C6 9 6 9 4 11 C4 8.36 4 5.72 4 3 C2.35 3 0.7 3 -1 3 C-0.67 2.01 -0.34 1.02 0 0 Z " fill="#6D573E" transform="translate(52,63)"/>
<path d="M0 0 C0.33 0.66 0.66 1.32 1 2 C1.66 2 2.32 2 3 2 C2.3125 4.875 2.3125 4.875 1 8 C-1.625 9.375 -1.625 9.375 -4 10 C-3.5205537 5.78087253 -2.83374881 3.20336822 0 0 Z " fill="#CEC4A4" transform="translate(42,54)"/>
<path d="M0 0 C0.33 0 0.66 0 1 0 C1 2.97 1 5.94 1 9 C1.66 9 2.32 9 3 9 C3 10.98 3 12.96 3 15 C2.34 15 1.68 15 1 15 C1.66 17.31 2.32 19.62 3 22 C1 21 1 21 0 18 C-0.08021999 16.59175107 -0.10765977 15.18002769 -0.09765625 13.76953125 C-0.09282227 12.56586914 -0.09282227 12.56586914 -0.08789062 11.33789062 C-0.07951172 10.50451172 -0.07113281 9.67113281 -0.0625 8.8125 C-0.05798828 7.96751953 -0.05347656 7.12253906 -0.04882812 6.25195312 C-0.03705403 4.16793845 -0.0191189 2.08396023 0 0 Z " fill="#E1D5B6" transform="translate(3,47)"/>
<path d="M0 0 C2.93200474 2.85276137 5.64315404 5.65079784 8 9 C6.35 9.33 4.7 9.66 3 10 C2.71125 9.195625 2.4225 8.39125 2.125 7.5625 C1.26737432 4.8673532 1.26737432 4.8673532 -1 4 C-1.33 4.66 -1.66 5.32 -2 6 C-2 4.68 -2 3.36 -2 2 C-1.34 2 -0.68 2 0 2 C0 1.34 0 0.68 0 0 Z " fill="#D5C8A9" transform="translate(42,37)"/>
<path d="M0 0 C-3.63 0.66 -7.26 1.32 -11 2 C-11 4.31 -11 6.62 -11 9 C-11.99 8.67 -12.98 8.34 -14 8 C-13.67 5.69 -13.34 3.38 -13 1 C-11.58622218 0.63447197 -10.16879424 0.28304505 -8.75 -0.0625 C-7.96109375 -0.25972656 -7.1721875 -0.45695312 -6.359375 -0.66015625 C-4 -1 -4 -1 0 0 Z " fill="#C9BB9D" transform="translate(84,52)"/>
<path d="M0 0 C0.66 0.33 1.32 0.66 2 1 C-3.14285714 5.42857143 -3.14285714 5.42857143 -7 6 C-6.67 6.66 -6.34 7.32 -6 8 C-8.97 7.67 -11.94 7.34 -15 7 C-12.13881522 5.56940761 -9.29904527 4.22349315 -6.375 2.9375 C-4.22728953 1.99207928 -2.09885575 1.04942787 0 0 Z " fill="#AA996F" transform="translate(83,101)"/>
<path d="M0 0 C0.66 0.33 1.32 0.66 2 1 C1.34 2.98 0.68 4.96 0 7 C0.66 7 1.32 7 2 7 C1.67 8.98 1.34 10.96 1 13 C0.01 13.33 -0.98 13.66 -2 14 C-3.49341969 11.01316063 -2.40648676 9.04839022 -1.5625 5.875 C-1.27503906 4.77929688 -0.98757812 3.68359375 -0.69140625 2.5546875 C-0.46324219 1.71164063 -0.23507813 0.86859375 0 0 Z " fill="#A99871" transform="translate(108,64)"/>
<path d="M0 0 C3.875 1.75 3.875 1.75 5 4 C5.99 4.66 6.98 5.32 8 6 C6.02 6.66 4.04 7.32 2 8 C0.4375 6.25 0.4375 6.25 -1 4 C-0.6875 1.75 -0.6875 1.75 0 0 Z " fill="#685035" transform="translate(59,52)"/>
<path d="M0 0 C2.86001033 1.28207359 5.07039412 2.49151236 7 5 C7 6.32 7 7.64 7 9 C3.64564078 7.61198929 1.88709697 6.11371 0 3 C0 2.01 0 1.02 0 0 Z " fill="#644D2E" transform="translate(47,40)"/>
<path d="M0 0 C0.66 1.32 1.32 2.64 2 4 C0 7 0 7 -1.9453125 7.51171875 C-2.66460938 7.56972656 -3.38390625 7.62773438 -4.125 7.6875 C-6.043125 7.8421875 -6.043125 7.8421875 -8 8 C-8 7.34 -8 6.68 -8 6 C-4.535 5.505 -4.535 5.505 -1 5 C-0.67 3.35 -0.34 1.7 0 0 Z " fill="#CEBFA3" transform="translate(32,80)"/>
<path d="M0 0 C2.875 0.1875 2.875 0.1875 6 1 C6.66 2.65 7.32 4.3 8 6 C4.37 5.01 0.74 4.02 -3 3 C-2.01 2.67 -1.02 2.34 0 2 C0 1.34 0 0.68 0 0 Z " fill="#AC9871" transform="translate(71,2)"/>
<path d="M0 0 C1.75 0.125 1.75 0.125 4 1 C6.25 4.0625 6.25 4.0625 8 7 C5.03 6.505 5.03 6.505 2 6 C1.34 4.02 0.68 2.04 0 0 Z " fill="#55351B" transform="translate(81,81)"/>
<path d="M0 0 C0.99 0 1.98 0 3 0 C3 0.66 3 1.32 3 2 C6.96 2.33 10.92 2.66 15 3 C15 3.33 15 3.66 15 4 C4.44191344 4.18451025 4.44191344 4.18451025 0 3 C0 2.01 0 1.02 0 0 Z " fill="#C5B79C" transform="translate(27,50)"/>
<path d="M0 0 C-1.07401108 2.91517292 -1.77810176 4.77810176 -4 7 C-4 5.35 -4 3.7 -4 2 C-4.66 2 -5.32 2 -6 2 C-6 1.34 -6 0.68 -6 0 C-3.50907189 -1.24546405 -2.58919267 -0.7767578 0 0 Z " fill="#EBE1C3" transform="translate(104,78)"/>
<path d="M0 0 C0 1.65 0 3.3 0 5 C-0.99 5.33 -1.98 5.66 -3 6 C-3.66 5.67 -4.32 5.34 -5 5 C-5 3.68 -5 2.36 -5 1 C-3 0 -3 0 0 0 Z " fill="#F0ECD1" transform="translate(68,71)"/>
<path d="M0 0 C1.32 0 2.64 0 4 0 C4 0.66 4 1.32 4 2 C3.34 2 2.68 2 2 2 C2 3.65 2 5.3 2 7 C1.01 7 0.02 7 -1 7 C-2 4 -2 4 -1.0625 1.8125 C-0.5365625 0.9153125 -0.5365625 0.9153125 0 0 Z " fill="#F3E7CA" transform="translate(62,46)"/>
<path d="M0 0 C1.65 0.99 3.3 1.98 5 3 C4.67 3.99 4.34 4.98 4 6 C3.38125 5.649375 2.7625 5.29875 2.125 4.9375 C1.073125 4.4734375 1.073125 4.4734375 0 4 C-0.99 4.495 -0.99 4.495 -2 5 C-2 4.01 -2 3.02 -2 2 C-1.34 2 -0.68 2 0 2 C0 1.34 0 0.68 0 0 Z " fill="#EFE4C2" transform="translate(47,45)"/>
<path d="M0 0 C0.99 0.33 1.98 0.66 3 1 C3.84098656 5.01804691 4.05404945 8.01803543 3 12 C0.60926555 8.17482487 0.44033448 4.40334476 0 0 Z " fill="#837053" transform="translate(41,41)"/>
<path d="M0 0 C2.375 0.1875 2.375 0.1875 5 1 C6.3125 3.5625 6.3125 3.5625 7 6 C4.0625 5.25 4.0625 5.25 1 4 C0.125 1.875 0.125 1.875 0 0 Z " fill="#9F8E62" transform="translate(27,102)"/>
<path d="M0 0 C0 1.66666667 0 3.33333333 0 5 C-0.66 5 -1.32 5 -2 5 C-1.67 7.31 -1.34 9.62 -1 12 C-4 10 -4 10 -5 8.25 C-5 4.49885772 -2.4922691 2.67463026 0 0 Z " fill="#DACAAF" transform="translate(61,47)"/>
<path d="M0 0 C6.52307692 0.61538462 6.52307692 0.61538462 8.9375 2.5625 C9.288125 3.036875 9.63875 3.51125 10 4 C8.02 4 6.04 4 4 4 C3.67 3.01 3.34 2.02 3 1 C2.01 0.67 1.02 0.34 0 0 Z " fill="#A18D61" transform="translate(75,4)"/>
<path d="M0 0 C0.28875 0.639375 0.5775 1.27875 0.875 1.9375 C1.82823451 4.15206079 1.82823451 4.15206079 4 5 C4 5.66 4 6.32 4 7 C4.66 7.33 5.32 7.66 6 8 C4.35 8 2.7 8 1 8 C0.34 5.69 -0.32 3.38 -1 1 C-0.67 0.67 -0.34 0.34 0 0 Z " fill="#E0D6BA" transform="translate(53,56)"/>
<path d="M0 0 C1.98 0.99 1.98 0.99 4 2 C3.34 4.31 2.68 6.62 2 9 C-0 7 -0 7 -0.125 3.375 C-0.08375 2.26125 -0.0425 1.1475 0 0 Z " fill="#AB9673" transform="translate(3,35)"/>
<path d="M0 0 C1.65 0.33 3.3 0.66 5 1 C3.35 2.65 1.7 4.3 0 6 C0 5.34 0 4.68 0 4 C-0.66 3.67 -1.32 3.34 -2 3 C-1.34 3 -0.68 3 0 3 C0 2.01 0 1.02 0 0 Z " fill="#D7CAAD" transform="translate(61,36)"/>
<path d="M0 0 C0 0.99 0 1.98 0 3 C-2.5 5.1875 -2.5 5.1875 -5 7 C-5.66 6.34 -6.32 5.68 -7 5 C-2.25 0 -2.25 0 0 0 Z " fill="#887459" transform="translate(80,24)"/>
<path d="M0 0 C2.125 0.9375 2.125 0.9375 4 2 C1.03 4.475 1.03 4.475 -2 7 C-2 5.02 -2 3.04 -2 1 C-1.34 0.67 -0.68 0.34 0 0 Z " fill="#AC9A75" transform="translate(19,13)"/>
<path d="M0 0 C-0.33 0.99 -0.66 1.98 -1 3 C-1.66 3 -2.32 3 -3 3 C-3.66 4.65 -4.32 6.3 -5 8 C-5.66 7.01 -6.32 6.02 -7 5 C-2.25 0 -2.25 0 0 0 Z " fill="#FBF6DE" transform="translate(23,16)"/>
<path d="M0 0 C0.33 0.66 0.66 1.32 1 2 C3.02463255 2.65213292 3.02463255 2.65213292 5 3 C5 4.65 5 6.3 5 8 C2.5 5.6875 2.5 5.6875 0 3 C0 2.01 0 1.02 0 0 Z " fill="#715D44" transform="translate(84,79)"/>
<path d="M0 0 C0.99 0 1.98 0 3 0 C4.33332095 2.6666419 3.67102033 4.16680303 3 7 C2.34 7 1.68 7 1 7 C0.67 4.69 0.34 2.38 0 0 Z " fill="#E3D8B7" transform="translate(44,48)"/>
</svg>
