<?xml version="1.0" encoding="UTF-8"?>
<svg version="1.1" xmlns="http://www.w3.org/2000/svg" width="112" height="112">
<path d="M0 0 C1.50292321 1.13589918 2.98136883 2.30470624 4.4375 3.5 C5.42492187 4.27601562 6.41234375 5.05203125 7.4296875 5.8515625 C17.06008203 13.94371608 23.37638945 26.6814639 24.71533203 39.07080078 C25.91523716 55.98074196 23.43907236 70.09766079 12.4375 83.5 C11.66148438 84.48742187 10.88546875 85.47484375 10.0859375 86.4921875 C1.99378392 96.12258203 -10.7439639 102.43888945 -23.13330078 103.77783203 C-40.04324196 104.97773716 -54.16016079 102.50157236 -67.5625 91.5 C-69.04363281 90.33597656 -69.04363281 90.33597656 -70.5546875 89.1484375 C-80.18508203 81.05628392 -86.50138945 68.3185361 -87.84033203 55.92919922 C-89.04023716 39.01925804 -86.56407236 24.90233921 -75.5625 11.5 C-74.78648438 10.51257813 -74.01046875 9.52515625 -73.2109375 8.5078125 C-55.75628726 -12.2647997 -21.83894221 -14.78577273 0 0 Z " fill="#ECE8CD" transform="translate(87.5625,8.5)"/>
<path d="M0 0 C0.73734375 0.51046875 1.4746875 1.0209375 2.234375 1.546875 C4.31860898 3.30797193 5.80929498 4.93392991 7.25 7.25 C7.25 8.24 7.25 9.23 7.25 10.25 C7.91 10.25 8.57 10.25 9.25 10.25 C9.25 11.24 9.25 12.23 9.25 13.25 C6.82710315 12.83225916 5.54120935 12.55387062 3.8125 10.75 C1.6820009 8.70472086 0.17166326 8.48407985 -2.75 8.25 C-4.73409894 9.47560712 -4.73409894 9.47560712 -6.4375 11.375 C-11.12886425 15.82555278 -17.06682452 20.25 -23.75 20.25 C-23.75 21.57 -23.75 22.89 -23.75 24.25 C-19.37663369 24.62485997 -17.42512158 23.49092779 -13.75 21.25 C-8.69172654 19.60312027 -5.15345886 20.86896592 -0.296875 22.48046875 C3.2159181 23.54184949 6.60223347 23.91224384 10.25 24.25 C9.26 25.735 9.26 25.735 8.25 27.25 C7.59 27.25 6.93 27.25 6.25 27.25 C6.25 27.91 6.25 28.57 6.25 29.25 C2.09551063 30.83266262 -1.29762014 31.73395433 -5.75 31.25 C-7.08333333 30.25 -8.41666667 29.25 -9.75 28.25 C-12.91732421 27.99913276 -12.91732421 27.99913276 -15.75 28.25 C-15.75 28.91 -15.75 29.57 -15.75 30.25 C-14.43 30.91 -13.11 31.57 -11.75 32.25 C-12.04296875 34.30078125 -12.3359375 36.3515625 -12.62890625 38.40234375 C-12.66886719 39.01207031 -12.70882812 39.62179688 -12.75 40.25 C-12.42 40.58 -12.09 40.91 -11.75 41.25 C-11.70907063 43.58297433 -11.70758277 45.91705225 -11.75 48.25 C-14.39738916 49.7106285 -15.64448334 50.25 -18.75 50.25 C-17.925 51.013125 -17.1 51.77625 -16.25 52.5625 C-13.75 55.25 -13.75 55.25 -13.75 58.25 C-14.41 58.25 -15.07 58.25 -15.75 58.25 C-15.75 57.59 -15.75 56.93 -15.75 56.25 C-16.41 56.25 -17.07 56.25 -17.75 56.25 C-17.78738281 56.83007812 -17.82476562 57.41015625 -17.86328125 58.0078125 C-18.28903667 63.06678864 -19.12138991 66.79279158 -21.75 71.25 C-22.41 71.25 -23.07 71.25 -23.75 71.25 C-24.08 70.59 -24.41 69.93 -24.75 69.25 C-26.77463255 68.59786708 -26.77463255 68.59786708 -28.75 68.25 C-31.02678571 60.21428571 -31.02678571 60.21428571 -29.75 56.25 C-31.07 56.91 -32.39 57.57 -33.75 58.25 C-33.42 56.6 -33.09 54.95 -32.75 53.25 C-31.76 53.25 -30.77 53.25 -29.75 53.25 C-29.75 52.26 -29.75 51.27 -29.75 50.25 C-30.53375 50.105625 -31.3175 49.96125 -32.125 49.8125 C-34.75 49.25 -34.75 49.25 -36.75 48.25 C-36.75 32.75 -36.75 32.75 -31.75 27.25 C-32.43707031 27.33378906 -33.12414062 27.41757812 -33.83203125 27.50390625 C-34.73308594 27.60574219 -35.63414063 27.70757812 -36.5625 27.8125 C-37.45582031 27.91691406 -38.34914063 28.02132812 -39.26953125 28.12890625 C-41.75 28.25 -41.75 28.25 -44.75 27.25 C-46.81145107 27.181009 -48.87501401 27.16532273 -50.9375 27.1875 C-52.02417969 27.19652344 -53.11085938 27.20554687 -54.23046875 27.21484375 C-55.06191406 27.22644531 -55.89335938 27.23804687 -56.75 27.25 C-56.75 27.91 -56.75 28.57 -56.75 29.25 C-57.74 29.25 -58.73 29.25 -59.75 29.25 C-60.3125 26.6875 -60.3125 26.6875 -59.75 23.25 C-56.39873603 18.91154199 -52.63231754 16.64214949 -47.28125 15.52734375 C-42.30818982 15.23512333 -38.4161775 15.02159207 -34.296875 18.05859375 C-32.55773856 20.04163348 -31.09511754 21.98453889 -29.75 24.25 C-30.25943616 21.27746471 -30.66505832 19.38250903 -32.3125 16.8125 C-34.47939895 12.94976708 -34.30799646 10.42411955 -33.22265625 6.1953125 C-32.053258 3.45500587 -31.09899932 2.12671374 -28.75 0.25 C-20.4916326 -2.73075097 -7.39164278 -5.29472284 0 0 Z " fill="#60472B" transform="translate(77.75,23.75)"/>
<path d="M0 0 C1.50292321 1.13589918 2.98136883 2.30470624 4.4375 3.5 C5.42492187 4.27601562 6.41234375 5.05203125 7.4296875 5.8515625 C17.06008203 13.94371608 23.37638945 26.6814639 24.71533203 39.07080078 C25.91523716 55.98074196 23.43907236 70.09766079 12.4375 83.5 C11.66148438 84.48742187 10.88546875 85.47484375 10.0859375 86.4921875 C1.99378392 96.12258203 -10.7439639 102.43888945 -23.13330078 103.77783203 C-40.04324196 104.97773716 -54.16016079 102.50157236 -67.5625 91.5 C-69.04363281 90.33597656 -69.04363281 90.33597656 -70.5546875 89.1484375 C-80.18508203 81.05628392 -86.50138945 68.3185361 -87.84033203 55.92919922 C-89.04023716 39.01925804 -86.56407236 24.90233921 -75.5625 11.5 C-74.78648438 10.51257813 -74.01046875 9.52515625 -73.2109375 8.5078125 C-55.75628726 -12.2647997 -21.83894221 -14.78577273 0 0 Z M-73.14453125 13.23046875 C-82.68581812 24.94571972 -85.64802337 39.50591705 -84.80517578 54.22705078 C-83.25745174 68.72333932 -74.32096501 81.26018904 -63.5625 90.5 C-51.54952335 99.57300992 -37.2948381 102.29220802 -22.5625 100.5 C-8.76737868 97.90981728 2.52780647 90.18821201 11.4375 79.5 C20.80344092 65.62839485 23.33726888 51.60897647 20.25 35.25 C16.90893842 21.29248108 9.40422012 10.43409936 -2.5625 2.5 C-27.12540277 -10.68578628 -53.77134923 -7.96044392 -73.14453125 13.23046875 Z " fill="#A4926B" transform="translate(87.5625,8.5)"/>
<path d="M0 0 C0.4640625 0.9590625 0.4640625 0.9590625 0.9375 1.9375 C1.8345163 3.93610821 1.8345163 3.93610821 3 5 C3.04092937 7.33297433 3.04241723 9.66705225 3 12 C0.35261084 13.4606285 -0.89448334 14 -4 14 C-2.7625 15.1446875 -2.7625 15.1446875 -1.5 16.3125 C1 19 1 19 1 22 C0.34 22 -0.32 22 -1 22 C-1 21.34 -1 20.68 -1 20 C-1.66 20 -2.32 20 -3 20 C-3.03738281 20.58007812 -3.07476562 21.16015625 -3.11328125 21.7578125 C-3.53903667 26.81678864 -4.37138991 30.54279158 -7 35 C-7.66 35 -8.32 35 -9 35 C-9.33 34.34 -9.66 33.68 -10 33 C-12.02463255 32.34786708 -12.02463255 32.34786708 -14 32 C-16.27678571 23.96428571 -16.27678571 23.96428571 -15 20 C-16.98 20.99 -16.98 20.99 -19 22 C-18.67 20.35 -18.34 18.7 -18 17 C-17.01 17 -16.02 17 -15 17 C-15 16.01 -15 15.02 -15 14 C-16.175625 13.7834375 -16.175625 13.7834375 -17.375 13.5625 C-20 13 -20 13 -22 12 C-21.67 8.37 -21.34 4.74 -21 1 C-20.34 2.32 -19.68 3.64 -19 5 C-15.43793339 5.81870185 -15.43793339 5.81870185 -12 6 C-12 6.99 -12 7.98 -12 9 C-10.68 9 -9.36 9 -8 9 C-8 8.01 -8 7.02 -8 6 C-5.36 5.34 -2.72 4.68 0 4 C0 2.68 0 1.36 0 0 Z " fill="#75583D" transform="translate(63,60)"/>
<path d="M0 0 C3.06773406 2.26172113 5.06178949 4.73564546 7 8 C7.66 7.67 8.32 7.34 9 7 C14.78461538 11.30769231 14.78461538 11.30769231 15.875 14.8125 C15.91625 15.534375 15.9575 16.25625 16 17 C14.68 16.67 13.36 16.34 12 16 C11.505 14.02 11.505 14.02 11 12 C10.34 12 9.68 12 9 12 C9 12.99 9 13.98 9 15 C6.525 14.505 6.525 14.505 4 14 C4.33 13.01 4.66 12.02 5 11 C4.31292969 11.08378906 3.62585938 11.16757812 2.91796875 11.25390625 C2.01691406 11.35574219 1.11585937 11.45757812 0.1875 11.5625 C-0.70582031 11.66691406 -1.59914063 11.77132812 -2.51953125 11.87890625 C-5 12 -5 12 -8 11 C-10.06145107 10.931009 -12.12501401 10.91532273 -14.1875 10.9375 C-15.27417969 10.94652344 -16.36085938 10.95554687 -17.48046875 10.96484375 C-18.31191406 10.97644531 -19.14335937 10.98804688 -20 11 C-20 11.66 -20 12.32 -20 13 C-20.99 13 -21.98 13 -23 13 C-23.5625 10.4375 -23.5625 10.4375 -23 7 C-17.21781834 -0.48545998 -8.96343482 -2.13364058 0 0 Z " fill="#67492D" transform="translate(41,40)"/>
<path d="M0 0 C0.33 0.99 0.66 1.98 1 3 C3.00016466 4.20882096 3.00016466 4.20882096 5 5 C4.67 6.32 4.34 7.64 4 9 C3.34 9 2.68 9 2 9 C2 10.32 2 11.64 2 13 C-1.22791555 15.1519437 -2.28400809 15.20086443 -6 15 C-6 15.99 -6 16.98 -6 18 C-7.32 18 -8.64 18 -10 18 C-10 17.01 -10 16.02 -10 15 C-12.64 15 -15.28 15 -18 15 C-18 13.35 -18 11.7 -18 10 C-18.99 9.67 -19.98 9.34 -21 9 C-19.84826645 6.53199953 -18.95216435 4.95216435 -17 3 C-13.875 3.375 -13.875 3.375 -11 4 C-11 3.01 -11 2.02 -11 1 C-10.34 1 -9.68 1 -9 1 C-8.731875 1.639375 -8.46375 2.27875 -8.1875 2.9375 C-7.11332248 5.33131686 -7.11332248 5.33131686 -4 6 C-4.66 4.02 -5.32 2.04 -6 0 C-2.25 -1.125 -2.25 -1.125 0 0 Z " fill="#5E3B20" transform="translate(61,51)"/>
<path d="M0 0 C3.65106893 1.04943826 7.14852842 1.47702196 10.921875 1.83984375 C10.261875 2.82984375 9.601875 3.81984375 8.921875 4.83984375 C8.261875 4.83984375 7.601875 4.83984375 6.921875 4.83984375 C6.921875 5.49984375 6.921875 6.15984375 6.921875 6.83984375 C2.76738563 8.42250637 -0.62574514 9.32379808 -5.078125 8.83984375 C-5.7175 8.34484375 -6.356875 7.84984375 -7.015625 7.33984375 C-9.9869564 5.17887546 -12.46524563 5.77755273 -16.078125 5.83984375 C-19.515625 4.83984375 -19.515625 4.83984375 -22.078125 3.83984375 C-21.748125 3.17984375 -21.418125 2.51984375 -21.078125 1.83984375 C-19.75454111 1.46968893 -18.41907633 1.14107195 -17.078125 0.83984375 C-15.923125 0.26234375 -14.768125 -0.31515625 -13.578125 -0.91015625 C-8.68091996 -2.81056418 -4.88524929 -1.4444963 0 0 Z " fill="#6F4F37" transform="translate(77.078125,46.16015625)"/>
<path d="M0 0 C2.64 0 5.28 0 8 0 C8 0.66 8 1.32 8 2 C8.66 2.33 9.32 2.66 10 3 C9.91245449 4.75091019 9.80426627 6.50079551 9.6875 8.25 C9.62949219 9.22453125 9.57148437 10.1990625 9.51171875 11.203125 C8.95363476 14.25341611 8.03630224 15.70711276 6 18 C5.34 17.67 4.68 17.34 4 17 C4 17.66 4 18.32 4 19 C2.68 18.67 1.36 18.34 0 18 C-2.2158855 11.3523435 -1.79321797 6.73146436 0 0 Z " fill="#5B3319" transform="translate(49,74)"/>
<path d="M0 0 C0.185625 0.639375 0.37125 1.27875 0.5625 1.9375 C1.94246056 4.42126213 1.94246056 4.42126213 5.625 4.75 C6.73875 4.8325 7.8525 4.915 9 5 C9 5.99 9 6.98 9 8 C10.32 8 11.64 8 13 8 C13 7.01 13 6.02 13 5 C15.31 5 17.62 5 20 5 C19.34 7.31 18.68 9.62 18 12 C14.04 12 10.08 12 6 12 C6.33 11.01 6.66 10.02 7 9 C4.69 8.34 2.38 7.68 0 7 C0 4.69 0 2.38 0 0 Z " fill="#826143" transform="translate(42,61)"/>
<path d="M0 0 C0 0.99 0 1.98 0 3 C0.59145334 5.18298142 0.59145334 5.18298142 2 7 C4.55519921 7.81171228 4.55519921 7.81171228 7 8 C7 8.66 7 9.32 7 10 C5.845 9.773125 4.69 9.54625 3.5 9.3125 C-0.62017451 8.779215 -3.38238056 9.54923438 -7.140625 11.2109375 C-9.09551695 12.0405345 -10.9082528 12.62832591 -13 13 C-13.66 12.67 -14.32 12.34 -15 12 C-15 10.68 -15 9.36 -15 8 C-14.16855469 7.67386719 -13.33710937 7.34773438 -12.48046875 7.01171875 C-11.39378906 6.57472656 -10.30710937 6.13773438 -9.1875 5.6875 C-8.10855469 5.25824219 -7.02960937 4.82898437 -5.91796875 4.38671875 C-3.30855223 3.14663459 -1.82591016 2.18468549 0 0 Z " fill="#D3C7A9" transform="translate(69,36)"/>
<path d="M0 0 C4.05723077 1.35241026 5.49085419 3.60926242 8 7 C8 7.99 8 8.98 8 10 C6.68 9.67 5.36 9.34 4 9 C3.67 7.68 3.34 6.36 3 5 C2.34 5 1.68 5 1 5 C1 5.99 1 6.98 1 8 C-0.65 7.67 -2.3 7.34 -4 7 C-3.67 6.01 -3.34 5.02 -3 4 C-6.3 4.33 -9.6 4.66 -13 5 C-7.95238095 2.47619048 -7.95238095 2.47619048 -5 2 C-4.01 2.33 -3.02 2.66 -2 3 C-1.67 2.34 -1.34 1.68 -1 1 C-0.67 0.67 -0.34 0.34 0 0 Z " fill="#866B50" transform="translate(49,47)"/>
<path d="M0 0 C0.66 0.66 1.32 1.32 2 2 C2.99 1.67 3.98 1.34 5 1 C4.979375 1.969375 4.95875 2.93875 4.9375 3.9375 C4.64381501 6.87465895 4.64381501 6.87465895 6 8 C6.04063832 9.66617115 6.042721 11.33388095 6 13 C7.32 13.33 8.64 13.66 10 14 C10.33 13.34 10.66 12.68 11 12 C10.67 13.32 10.34 14.64 10 16 C7.525 15.01 7.525 15.01 5 14 C4.67 14.66 4.34 15.32 4 16 C0.38706495 10.34497123 -0.12915831 6.71623212 0 0 Z " fill="#E6D9C0" transform="translate(43,79)"/>
<path d="M0 0 C5.54821235 -0.70613612 8.40857595 -0.18577328 13 3.125 C16.90392371 6.41286714 16.90392371 6.41286714 17.5625 10.4375 C17.376875 11.283125 17.19125 12.12875 17 13 C16.67 12.34 16.34 11.68 16 11 C14.67708867 10.31288442 13.34184788 9.64935853 12 9 C10.6455312 8.05028457 9.31224608 7.06975139 8 6.0625 C7.34 5.55847656 6.68 5.05445313 6 4.53515625 C5.34 4.02855469 4.68 3.52195312 4 3 C2.66777767 1.99852037 1.33476207 0.99809217 0 0 Z " fill="#A69671" transform="translate(79,8)"/>
<path d="M0 0 C2 1 2 1 3.1875 3.1875 C4.38960492 7.34863241 3.68602304 10.46653674 1.9375 14.375 C1.628125 14.91125 1.31875 15.4475 1 16 C0.34 16 -0.32 16 -1 16 C-1 14.35 -1 12.7 -1 11 C-1.66 11 -2.32 11 -3 11 C-3 10.01 -3 9.02 -3 8 C-2.34 8 -1.68 8 -1 8 C-1.020625 6.865625 -1.04125 5.73125 -1.0625 4.5625 C-1 1 -1 1 0 0 Z " fill="#FAF8E5" transform="translate(68,64)"/>
<path d="M0 0 C0.99 0.66 1.98 1.32 3 2 C3 2.99 3 3.98 3 5 C3.99 5.33 4.98 5.66 6 6 C5.67 6.66 5.34 7.32 5 8 C4.34 8 3.68 8 3 8 C2.67 9.32 2.34 10.64 2 12 C1.34 12 0.68 12 0 12 C-0.28875 11.195625 -0.5775 10.39125 -0.875 9.5625 C-1.73262568 6.8673532 -1.73262568 6.8673532 -4 6 C-3.01 5.67 -2.02 5.34 -1 5 C-0.67 3.35 -0.34 1.7 0 0 Z " fill="#F9F7DF" transform="translate(44,90)"/>
<path d="M0 0 C0.33 0.66 0.66 1.32 1 2 C2.93330603 3.09166275 2.93330603 3.09166275 5 4 C5.66 4.33 6.32 4.66 7 5 C7 5.99 7 6.98 7 8 C6.34 8 5.68 8 5 8 C5 7.34 5 6.68 5 6 C4.34 6 3.68 6 3 6 C2.96261719 6.58007812 2.92523438 7.16015625 2.88671875 7.7578125 C2.46096333 12.81678864 1.62861009 16.54279158 -1 21 C-1.66 21 -2.32 21 -3 21 C-2.38722388 18.03824877 -1.74627478 16.61941217 0 14 C0.41782387 11.78757151 0.41782387 11.78757151 0.5625 9.4375 C0.90410959 5.19178082 0.90410959 5.19178082 2 3 C1.01 2.67 0.02 2.34 -1 2 C-0.67 1.34 -0.34 0.68 0 0 Z " fill="#72583C" transform="translate(57,74)"/>
<path d="M0 0 C1.22589844 0.29197266 1.22589844 0.29197266 2.4765625 0.58984375 C3.41628906 0.82380859 3.41628906 0.82380859 4.375 1.0625 C4.375 1.7225 4.375 2.3825 4.375 3.0625 C-1.375 6.0625 -1.375 6.0625 -3.625 6.0625 C-4.285 5.4025 -4.945 4.7425 -5.625 4.0625 C-7.69374034 3.4199765 -7.69374034 3.4199765 -9.625 3.0625 C-8.635 2.7325 -7.645 2.4025 -6.625 2.0625 C-6.625 1.4025 -6.625 0.7425 -6.625 0.0625 C-3.99249612 -1.25375194 -2.82320944 -0.68563658 0 0 Z " fill="#5B4121" transform="translate(72.625,44.9375)"/>
<path d="M0 0 C0.309375 0.639375 0.61875 1.27875 0.9375 1.9375 C1.8345163 3.93610821 1.8345163 3.93610821 3 5 C3.04092937 7.33297433 3.04241723 9.66705225 3 12 C1.02 12.33 -0.96 12.66 -3 13 C-2.125 8.25 -2.125 8.25 -1 6 C-1.66 5.67 -2.32 5.34 -3 5 C-2.01 4.67 -1.02 4.34 0 4 C0 2.68 0 1.36 0 0 Z " fill="#705337" transform="translate(63,60)"/>
<path d="M0 0 C1.20628008 2.33214148 2.1654738 4.49642139 3 7 C3.66 7.33 4.32 7.66 5 8 C4.38125 8.5775 3.7625 9.155 3.125 9.75 C1.1662961 11.82392178 0.1866211 13.45571331 -1 16 C-1.85330338 10.16524985 -2.48351814 5.55139349 0 0 Z " fill="#FBF8E1" transform="translate(92,40)"/>
<path d="M0 0 C1 3 1 3 1 5 C0.0925 5.598125 -0.815 6.19625 -1.75 6.8125 C-4.92228999 8.94769518 -6.68062507 11.01794652 -9 14 C-9.66 14 -10.32 14 -11 14 C-11 14.66 -11 15.32 -11 16 C-11.66 16 -12.32 16 -13 16 C-9.87077521 9.22001296 -5.78333607 4.58118194 0 0 Z " fill="#EDE2C4" transform="translate(23,14)"/>
<path d="M0 0 C0 0.66 0 1.32 0 2 C-0.99 2.495 -0.99 2.495 -2 3 C-0.35 3.33 1.3 3.66 3 4 C3.33 4.99 3.66 5.98 4 7 C-1.4389165 7.21755666 -5.87080814 7.10428384 -11 5 C-10.67 4.34 -10.34 3.68 -10 3 C-8.67511887 2.63451555 -7.33981486 2.3062434 -6 2 C-5.29875 1.649375 -4.5975 1.29875 -3.875 0.9375 C-2 0 -2 0 0 0 Z " fill="#765C3D" transform="translate(66,45)"/>
<path d="M0 0 C0.66 0.33 1.32 0.66 2 1 C0.515 3.475 0.515 3.475 -1 6 C-0.484375 5.649375 0.03125 5.29875 0.5625 4.9375 C3.94006667 3.6384359 6.50468057 4.32782319 10 5 C10 5.33 10 5.66 10 6 C6.37 6.33 2.74 6.66 -1 7 C-1 7.66 -1 8.32 -1 9 C-1.99 9 -2.98 9 -4 9 C-4.25 6.1875 -4.25 6.1875 -4 3 C-2 1.125 -2 1.125 0 0 Z " fill="#8D755C" transform="translate(22,44)"/>
<path d="M0 0 C0.33 0 0.66 0 1 0 C1.268125 1.216875 1.53625 2.43375 1.8125 3.6875 C2.49797045 6.50388945 3.14324223 8.23343179 4.6875 10.75 C6 13 6 13 5 17 C2.69 14.36 0.38 11.72 -2 9 C-1.34 8.34 -0.68 7.68 0 7 C0.16677282 3.41656024 0.16677282 3.41656024 0 0 Z " fill="#CFC8A8" transform="translate(43,32)"/>
<path d="M0 0 C0 0.99 0 1.98 0 3 C0.66 3 1.32 3 2 3 C2 4.65 2 6.3 2 8 C1.01 8.495 1.01 8.495 0 9 C0 8.34 0 7.68 0 7 C-0.61875 6.9175 -1.2375 6.835 -1.875 6.75 C-4 6 -4 6 -5.25 3.9375 C-5.62125 2.9784375 -5.62125 2.9784375 -6 2 C-2.25 0 -2.25 0 0 0 Z " fill="#EFE8D1" transform="translate(65,72)"/>
<path d="M0 0 C1.98 0 3.96 0 6 0 C6 3.58063513 5.65592475 5.47487986 4.5 8.75 C4.2215625 9.54921875 3.943125 10.3484375 3.65625 11.171875 C3.33140625 12.07679687 3.33140625 12.07679687 3 13 C2.12159004 9.90279155 2.00564594 8.09354597 3 5 C1.68 4.34 0.36 3.68 -1 3 C-0.67 2.01 -0.34 1.02 0 0 Z " fill="#DFCEB2" transform="translate(62,51)"/>
<path d="M0 0 C2.97 0.33 5.94 0.66 9 1 C8.34 2.32 7.68 3.64 7 5 C4.69 4.67 2.38 4.34 0 4 C0 2.68 0 1.36 0 0 Z " fill="#634229" transform="translate(41,68)"/>
<path d="M0 0 C0.99 0.33 1.98 0.66 3 1 C3.33 2.65 3.66 4.3 4 6 C4.66 6 5.32 6 6 6 C6 6.99 6 7.98 6 9 C3.68001641 8.60000283 2.13676576 8.09432121 0.1875 6.75 C-1 5 -1 5 -0.6875 2.3125 C-0.460625 1.549375 -0.23375 0.78625 0 0 Z " fill="#6A4F37" transform="translate(81,28)"/>
<path d="M0 0 C0.185625 0.639375 0.37125 1.27875 0.5625 1.9375 C1.94246056 4.42126213 1.94246056 4.42126213 5.625 4.75 C6.73875 4.8325 7.8525 4.915 9 5 C8.67 5.99 8.34 6.98 8 8 C2.25 8.125 2.25 8.125 0 7 C0 4.69 0 2.38 0 0 Z " fill="#8F6B4F" transform="translate(42,61)"/>
<path d="M0 0 C2.42680407 1.02181224 3.71077238 1.98540867 5.375 4 C4.055 3.67 2.735 3.34 1.375 3 C1.375 3.66 1.375 4.32 1.375 5 C0.6325 4.62875 -0.11 4.2575 -0.875 3.875 C-3.56783647 2.70484137 -3.56783647 2.70484137 -5.9375 3.875 C-6.7728125 4.431875 -6.7728125 4.431875 -7.625 5 C-3.35670732 0 -3.35670732 0 0 0 Z " fill="#C8BC9E" transform="translate(77.625,31)"/>
<path d="M0 0 C0.33 0.99 0.66 1.98 1 3 C-2.3 3 -5.6 3 -9 3 C-9 2.34 -9 1.68 -9 1 C-5.8035914 -0.06546953 -3.34252724 -0.07427838 0 0 Z " fill="#D0B796" transform="translate(57,70)"/>
<path d="M0 0 C1.67542976 0.28604898 3.34385343 0.61781233 5 1 C2.47211993 3.79872437 0.79588866 5.45773019 -3 6 C-1.125 1.125 -1.125 1.125 0 0 Z " fill="#5B3720" transform="translate(24,44)"/>
<path d="M0 0 C0.66 0 1.32 0 2 0 C2 3.63 2 7.26 2 11 C3.32 10.67 4.64 10.34 6 10 C5.67 10.99 5.34 11.98 5 13 C3.68 12.67 2.36 12.34 1 12 C-1.27678571 3.96428571 -1.27678571 3.96428571 0 0 Z " fill="#7D5D45" transform="translate(48,80)"/>
<path d="M0 0 C2.25245881 2.68841859 3.88213958 4.64641875 5 8 C4.34 8 3.68 8 3 8 C2.67 8.99 2.34 9.98 2 11 C0.19769832 7.17010894 -0.19622241 4.21878192 0 0 Z " fill="#A79A78" transform="translate(8,79)"/>
<path d="M0 0 C1.98 0.99 3.96 1.98 6 3 C5.67 3.99 5.34 4.98 5 6 C3.35 5.67 1.7 5.34 0 5 C-0.33 4.01 -0.66 3.02 -1 2 C-0.67 1.34 -0.34 0.68 0 0 Z " fill="#A69572" transform="translate(25,99)"/>
<path d="M0 0 C0.99 0.33 1.98 0.66 3 1 C1.625 2.5 1.625 2.5 0 4 C-0.66 4 -1.32 4 -2 4 C-2.33 4.99 -2.66 5.98 -3 7 C-3.99 6.67 -4.98 6.34 -6 6 C-5.34 6 -4.68 6 -4 6 C-4.33 5.01 -4.66 4.02 -5 3 C-4.34 2.34 -3.68 1.68 -3 1 C-2.01 1.33 -1.02 1.66 0 2 C0 1.34 0 0.68 0 0 Z " fill="#A89975" transform="translate(18,16)"/>
<path d="M0 0 C0.33 0.66 0.66 1.32 1 2 C1.66 2.33 2.32 2.66 3 3 C0.34771188 4.07525194 -2.28368454 5.09456151 -5 6 C-4.75 4.125 -4.75 4.125 -4 2 C-1.9375 0.75 -1.9375 0.75 0 0 Z " fill="#9D9164" transform="translate(32,4)"/>
<path d="M0 0 C4.29 0 8.58 0 13 0 C12.67 1.32 12.34 2.64 12 4 C11.01 4 10.02 4 9 4 C9.33 3.67 9.66 3.34 10 3 C6.7 2.34 3.4 1.68 0 1 C0 0.67 0 0.34 0 0 Z " fill="#BEB298" transform="translate(77,46)"/>
<path d="M0 0 C0.66 0.99 1.32 1.98 2 3 C0.71937515 4.7074998 -0.61767557 6.37373596 -2 8 C-2.66 8 -3.32 8 -4 8 C-4 8.66 -4 9.32 -4 10 C-4.66 10 -5.32 10 -6 10 C-4.34832443 6.4213696 -2.21713508 3.25179812 0 0 Z " fill="#E2DBBC" transform="translate(16,20)"/>
<path d="M0 0 C1.98 0.495 1.98 0.495 4 1 C3.34 2.32 2.68 3.64 2 5 C1.01 5 0.02 5 -1 5 C-0.67 3.35 -0.34 1.7 0 0 Z " fill="#5A381A" transform="translate(61,68)"/>
<path d="M0 0 C2.52259061 1.97420135 2.9929808 2.96745642 3.6875 6.1875 C3.790625 7.115625 3.89375 8.04375 4 9 C2.35 7.35 0.7 5.7 -1 4 C-0.34 4 0.32 4 1 4 C0.67 2.68 0.34 1.36 0 0 Z " fill="#C9B99A" transform="translate(45,40)"/>
<path d="M0 0 C0.66 0.33 1.32 0.66 2 1 C1.67 1.33 1.34 1.66 1 2 C1.66 2.66 2.32 3.32 3 4 C1.02 4.33 -0.96 4.66 -3 5 C-3.66 4.01 -4.32 3.02 -5 2 C-2.625 0.9375 -2.625 0.9375 0 0 Z " fill="#A89575" transform="translate(77,104)"/>
<path d="M0 0 C0.66 0 1.32 0 2 0 C2 1.65 2 3.3 2 5 C0.68 5.33 -0.64 5.66 -2 6 C-1.125 1.125 -1.125 1.125 0 0 Z " fill="#9C8F63" transform="translate(7,27)"/>
<path d="M0 0 C0.99 0.33 1.98 0.66 3 1 C3 1.66 3 2.32 3 3 C1.68 3 0.36 3 -1 3 C-1 3.66 -1 4.32 -1 5 C-1.99 5 -2.98 5 -4 5 C-2.25 1.125 -2.25 1.125 0 0 Z " fill="#9F8E6A" transform="translate(19,13)"/>
<path d="M0 0 C1.9375 0.8125 1.9375 0.8125 4 2 C4.33 2.99 4.66 3.98 5 5 C3.35 4.67 1.7 4.34 0 4 C0 2.68 0 1.36 0 0 Z " fill="#A38E68" transform="translate(11,87)"/>
<path d="M0 0 C0.68707555 2.49064888 1 4.37886292 1 7 C-0.9375 6.1875 -0.9375 6.1875 -3 5 C-3.33 4.01 -3.66 3.02 -4 2 C-2.68 1.34 -1.36 0.68 0 0 Z " fill="#D1BD9E" transform="translate(63,72)"/>
<path d="M0 0 C1.98 0.66 3.96 1.32 6 2 C6 2.99 6 3.98 6 5 C5.01 5 4.02 5 3 5 C2.67 5.66 2.34 6.32 2 7 C2 5.35 2 3.7 2 2 C1.34 2 0.68 2 0 2 C0 1.34 0 0.68 0 0 Z " fill="#E2D5B9" transform="translate(42,72)"/>
<path d="M0 0 C2.31 0 4.62 0 7 0 C5.68 1.32 4.36 2.64 3 4 C1 3 1 3 0 0 Z " fill="#75573E" transform="translate(81,48)"/>
<path d="M0 0 C2.64 1.98 5.28 3.96 8 6 C7.01 6.66 6.02 7.32 5 8 C4.67 7.01 4.34 6.02 4 5 C3.01 4.67 2.02 4.34 1 4 C0.67 2.68 0.34 1.36 0 0 Z " fill="#E7DCBB" transform="translate(87,13)"/>
<path d="M0 0 C0.66 0.66 1.32 1.32 2 2 C2.99 1.67 3.98 1.34 5 1 C4.67 2.98 4.34 4.96 4 7 C3.67 6.01 3.34 5.02 3 4 C2.01 4 1.02 4 0 4 C0 2.68 0 1.36 0 0 Z " fill="#BEAA91" transform="translate(43,79)"/>
<path d="M0 0 C0.66 0.33 1.32 0.66 2 1 C2.625 4.0625 2.625 4.0625 3 7 C2.01 6.67 1.02 6.34 0 6 C-0.38218767 4.34385343 -0.71395102 2.67542976 -1 1 C-0.67 0.67 -0.34 0.34 0 0 Z " fill="#9F9060" transform="translate(6,78)"/>
<path d="M0 0 C2.475 0.495 2.475 0.495 5 1 C5 1.66 5 2.32 5 3 C5.66 3.33 6.32 3.66 7 4 C6.01 4.66 5.02 5.32 4 6 C2.66666667 4 1.33333333 2 0 0 Z " fill="#E7DBC0" transform="translate(36,52)"/>
<path d="M0 0 C0.33 0.66 0.66 1.32 1 2 C0.22265625 3.7265625 0.22265625 3.7265625 -0.9375 5.625 C-1.618125 6.73875 -2.29875 7.8525 -3 9 C-3.66 8.67 -4.32 8.34 -5 8 C-3.35 5.36 -1.7 2.72 0 0 Z " fill="#7E7052" transform="translate(49,24)"/>
<path d="M0 0 C1.98 0.99 3.96 1.98 6 3 C6 3.66 6 4.32 6 5 C3.03 4.505 3.03 4.505 0 4 C-0.33 3.01 -0.66 2.02 -1 1 C-0.67 0.67 -0.34 0.34 0 0 Z " fill="#9F8D64" transform="translate(79,4)"/>
</svg>
