<?xml version="1.0" encoding="UTF-8"?>
<svg version="1.1" xmlns="http://www.w3.org/2000/svg" width="112" height="112">
<path d="M0 0 C1.50292321 1.13589918 2.98136883 2.30470624 4.4375 3.5 C5.42492187 4.27601562 6.41234375 5.05203125 7.4296875 5.8515625 C17.06008203 13.94371608 23.37638945 26.6814639 24.71533203 39.07080078 C25.91523716 55.98074196 23.43907236 70.09766079 12.4375 83.5 C11.66148438 84.48742187 10.88546875 85.47484375 10.0859375 86.4921875 C1.99378392 96.12258203 -10.7439639 102.43888945 -23.13330078 103.77783203 C-40.04324196 104.97773716 -54.16016079 102.50157236 -67.5625 91.5 C-69.04363281 90.33597656 -69.04363281 90.33597656 -70.5546875 89.1484375 C-80.18508203 81.05628392 -86.50138945 68.3185361 -87.84033203 55.92919922 C-89.04023716 39.01925804 -86.56407236 24.90233921 -75.5625 11.5 C-74.78648438 10.51257813 -74.01046875 9.52515625 -73.2109375 8.5078125 C-55.75628726 -12.2647997 -21.83894221 -14.78577273 0 0 Z " fill="#44443F" transform="translate(87.5625,8.5)"/>
<path d="M0 0 C2.69124272 1.92231623 5.25668645 3.9156611 7.80078125 6.02734375 C8.63222656 6.63707031 9.46367188 7.24679688 10.3203125 7.875 C19.88791662 16.1769683 24.97764022 29.2790774 26.13671875 41.59765625 C26.52679496 55.25032355 22.92945814 69.56276293 13.80078125 80.02734375 C10.98828125 80.46484375 10.98828125 80.46484375 8.80078125 80.02734375 C8.53265625 80.66671875 8.26453125 81.30609375 7.98828125 81.96484375 C6.80078125 84.02734375 6.80078125 84.02734375 3.80078125 85.02734375 C4.80078125 83.02734375 5.80078125 81.02734375 6.80078125 79.02734375 C4.82078125 80.01734375 4.82078125 80.01734375 2.80078125 81.02734375 C2.80078125 79.37734375 2.80078125 77.72734375 2.80078125 76.02734375 C-0.91810114 76.53446408 -3.93376114 77.1434259 -7.19921875 79.02734375 C-6.20921875 77.70734375 -5.21921875 76.38734375 -4.19921875 75.02734375 C-5.84921875 75.35734375 -7.49921875 75.68734375 -9.19921875 76.02734375 C-9.25404599 74.486089 -9.29238009 72.94424469 -9.32421875 71.40234375 C-9.34742187 70.54382813 -9.370625 69.6853125 -9.39453125 68.80078125 C-9.16059642 65.47890668 -8.59435059 63.0623674 -7.19921875 60.02734375 C-4.66796875 57.91015625 -4.66796875 57.91015625 -1.69921875 56.15234375 C-0.71953125 55.55679688 0.26015625 54.96125 1.26953125 54.34765625 C3.80078125 53.02734375 3.80078125 53.02734375 5.80078125 53.02734375 C5.80078125 52.03734375 5.80078125 51.04734375 5.80078125 50.02734375 C6.46078125 49.42921875 7.12078125 48.83109375 7.80078125 48.21484375 C10.12947323 46.11893815 10.12947323 46.11893815 10.05078125 42.77734375 C9.96828125 41.86984375 9.88578125 40.96234375 9.80078125 40.02734375 C10.79078125 40.02734375 11.78078125 40.02734375 12.80078125 40.02734375 C11.22326993 32.16216318 9.45072262 24.59860481 6.80078125 17.02734375 C6.80078125 16.36734375 6.80078125 15.70734375 6.80078125 15.02734375 C6.24390625 14.84171875 5.68703125 14.65609375 5.11328125 14.46484375 C2.19598682 12.65139045 0.92428426 10.47803613 -0.85546875 7.5859375 C-2.51365015 5.66263989 -3.73249243 5.40885015 -6.19921875 5.02734375 C-6.19921875 4.36734375 -6.19921875 3.70734375 -6.19921875 3.02734375 C-7.46765625 3.49140625 -7.46765625 3.49140625 -8.76171875 3.96484375 C-12.26563201 5.04787148 -15.56477644 5.57303846 -19.19921875 6.02734375 C-20.10671875 6.21296875 -21.01421875 6.39859375 -21.94921875 6.58984375 C-26.69705454 7.22897549 -31.41605864 7.1039424 -36.19921875 7.02734375 C-35.70421875 8.01734375 -35.70421875 8.01734375 -35.19921875 9.02734375 C-34.61778244 12.28338709 -34.3629855 13.90437389 -35.19921875 17.02734375 C-37.35701321 19.86941934 -39.68678981 22.32762579 -42.23046875 24.828125 C-44.53271288 26.90792767 -44.53271288 26.90792767 -44.19921875 30.02734375 C-48.60322482 34.6404786 -54.12059871 36.93915605 -60 39.08203125 C-62.68042057 40.23418361 -64.27237 41.86927315 -66.19921875 44.02734375 C-67.18921875 44.02734375 -68.17921875 44.02734375 -69.19921875 44.02734375 C-69.369375 44.62160156 -69.53953125 45.21585938 -69.71484375 45.828125 C-71.61632193 52.33158493 -73.82308141 58.68293643 -76.19921875 65.02734375 C-80.12522341 59.13833676 -80.56614527 52.55031307 -80.51171875 45.65234375 C-80.50434692 44.53653931 -80.50434692 44.53653931 -80.49682617 43.39819336 C-80.37214029 37.52644756 -79.52390215 32.45787947 -77.19921875 27.02734375 C-76.87050781 26.21136719 -76.54179688 25.39539062 -76.203125 24.5546875 C-70.50980086 11.80873345 -59.2657887 1.15645391 -46.32421875 -3.91015625 C-30.88800525 -9.39652129 -14.16635892 -8.73505648 0 0 Z " fill="#E9E5CC" transform="translate(83.19921875,9.97265625)"/>
<path d="M0 0 C0.66 0.33 1.32 0.66 2 1 C1.67 1.66 1.34 2.32 1 3 C2.32 3 3.64 3 5 3 C6.59765625 4.86328125 6.59765625 4.86328125 8.0625 7.3125 C10.05436079 10.63677154 10.05436079 10.63677154 12.5859375 13.53515625 C17.37480798 18.49600274 18.8518386 29.37004574 19.125 36.0625 C19.08375 36.701875 19.0425 37.34125 19 38 C18.01 38.495 18.01 38.495 17 39 C16.814375 40.7015625 16.814375 40.7015625 16.625 42.4375 C16.315625 44.2009375 16.315625 44.2009375 16 46 C13.9375 47.4375 13.9375 47.4375 12 48 C12 48.99 12 49.98 12 51 C9.6640625 52.82421875 9.6640625 52.82421875 6.625 54.6875 C5.62726563 55.31011719 4.62953125 55.93273437 3.6015625 56.57421875 C1 58 1 58 -1 58 C-1.10957031 59.26457031 -1.21914062 60.52914062 -1.33203125 61.83203125 C-1.49148775 63.49225486 -1.65168251 65.15240767 -1.8125 66.8125 C-1.88275391 67.64587891 -1.95300781 68.47925781 -2.02539062 69.33789062 C-2.14624023 70.54155273 -2.14624023 70.54155273 -2.26953125 71.76953125 C-2.37164917 72.87711792 -2.37164917 72.87711792 -2.47583008 74.00708008 C-3.11004205 76.41838529 -4.12441153 77.4065212 -6 79 C-6.99 78.505 -6.99 78.505 -8 78 C-9.84824664 78 -11.24639375 79.76253396 -12.625 80.875 C-16.37500346 83.74503875 -19.40288334 85.04226736 -24 86 C-23.57847656 85.44570312 -23.15695313 84.89140625 -22.72265625 84.3203125 C-21.90087891 83.23363281 -21.90087891 83.23363281 -21.0625 82.125 C-20.24458984 81.04605469 -20.24458984 81.04605469 -19.41015625 79.9453125 C-15.90509981 75.11008229 -16.26124302 69.76969202 -17 64 C-18.86877559 59.67271226 -21.62496539 57.63187462 -25.84765625 55.69140625 C-28.54467999 54.6856774 -31.23363331 53.79250007 -34 53 C-34 52.67 -34 52.34 -34 52 C-32.7625 51.95875 -31.525 51.9175 -30.25 51.875 C-29.55390625 51.85179687 -28.8578125 51.82859375 -28.140625 51.8046875 C-25.69844025 52.02751458 -24.11363229 52.79085 -22 54 C-23.90865882 52.17837122 -25.82606299 50.3678688 -27.75 48.5625 C-28.28882812 48.04623047 -28.82765625 47.52996094 -29.3828125 46.99804688 C-32.34743665 44.10407016 -32.34743665 44.10407016 -36.07128906 42.49975586 C-38 42 -38 42 -39.875 39.5 C-41.8310836 36.70721157 -41.8310836 36.70721157 -45.25 36.1875 C-46.61125 36.0946875 -46.61125 36.0946875 -48 36 C-48 35.34 -48 34.68 -48 34 C-46.3203125 32.4921875 -46.3203125 32.4921875 -44.125 30.875 C-43.40570313 30.33617188 -42.68640625 29.79734375 -41.9453125 29.2421875 C-40 28 -40 28 -38 28 C-38.33 27.01 -38.66 26.02 -39 25 C-38.3503125 24.38253906 -37.700625 23.76507813 -37.03125 23.12890625 C-31.19615118 17.52627495 -31.19615118 17.52627495 -29.375 10 C-29.60440323 7.62100353 -29.92832774 6.14334452 -31 4 C-29.97519531 4.02320313 -28.95039062 4.04640625 -27.89453125 4.0703125 C-26.53386149 4.08908036 -25.1731838 4.10727947 -23.8125 4.125 C-23.13896484 4.14175781 -22.46542969 4.15851562 -21.77148438 4.17578125 C-17.66120658 4.21588152 -14.73147432 3.65698335 -11 2 C-8.66666667 2 -6.33333333 2 -4 2 C-1.76591887 1.00916033 -1.76591887 1.00916033 0 0 Z " fill="#343432" transform="translate(77,12)"/>
<path d="M0 0 C1.50292321 1.13589918 2.98136883 2.30470624 4.4375 3.5 C5.42492187 4.27601562 6.41234375 5.05203125 7.4296875 5.8515625 C17.06008203 13.94371608 23.37638945 26.6814639 24.71533203 39.07080078 C25.91523716 55.98074196 23.43907236 70.09766079 12.4375 83.5 C11.66148438 84.48742187 10.88546875 85.47484375 10.0859375 86.4921875 C1.99378392 96.12258203 -10.7439639 102.43888945 -23.13330078 103.77783203 C-40.04324196 104.97773716 -54.16016079 102.50157236 -67.5625 91.5 C-69.04363281 90.33597656 -69.04363281 90.33597656 -70.5546875 89.1484375 C-80.18508203 81.05628392 -86.50138945 68.3185361 -87.84033203 55.92919922 C-89.04023716 39.01925804 -86.56407236 24.90233921 -75.5625 11.5 C-74.78648438 10.51257813 -74.01046875 9.52515625 -73.2109375 8.5078125 C-55.75628726 -12.2647997 -21.83894221 -14.78577273 0 0 Z M-74.5625 15.5 C-83.63585519 27.48459215 -85.6065247 40.85635944 -84.5625 55.5 C-83.65493173 60.70967759 -82.5043928 65.0871608 -79.5625 69.5 C-79.211875 70.510625 -78.86125 71.52125 -78.5 72.5625 C-74.44426908 82.27978423 -63.24800096 92.37523673 -53.5625 96.5 C-50.7119841 96.84148312 -48.32665724 96.97769476 -45.5 96.875 C-44.73631104 96.86065918 -43.97262207 96.84631836 -43.18579102 96.83154297 C-19.26466935 96.92193367 -19.26466935 96.92193367 2 88 C3.03253906 87.2059375 4.06507812 86.411875 5.12890625 85.59375 C5.89074219 84.9028125 6.65257813 84.211875 7.4375 83.5 C7.4375 82.84 7.4375 82.18 7.4375 81.5 C8.33275391 81.16162109 8.33275391 81.16162109 9.24609375 80.81640625 C15.6056018 76.99616701 18.69524535 66.45648439 20.4375 59.5 C23.41425377 44.02510273 20.8735132 29.84608146 12.4375 16.625 C3.93602761 5.2990715 -6.13804915 -0.61016586 -19.5625 -4.5 C-20.5525 -4.83 -21.5425 -5.16 -22.5625 -5.5 C-43.73340116 -7.0632522 -60.44019765 -0.94377671 -74.5625 15.5 Z " fill="#A4916B" transform="translate(87.5625,8.5)"/>
<path d="M0 0 C0.66 0.33 1.32 0.66 2 1 C1.67 1.66 1.34 2.32 1 3 C2.32 3 3.64 3 5 3 C6.59765625 4.86328125 6.59765625 4.86328125 8.0625 7.3125 C10.05436079 10.63677154 10.05436079 10.63677154 12.5859375 13.53515625 C17.37480798 18.49600274 18.8518386 29.37004574 19.125 36.0625 C19.08375 36.701875 19.0425 37.34125 19 38 C18.01 38.495 18.01 38.495 17 39 C17 40.65 17 42.3 17 44 C14.66705225 44.04241723 12.33297433 44.04092937 10 44 C9.67 43.67 9.34 43.34 9 43 C8.34 44.32 7.68 45.64 7 47 C7 46.01 7 45.02 7 44 C6.34 44 5.68 44 5 44 C5 45.32 5 46.64 5 48 C3.02 48.66 1.04 49.32 -1 50 C-1.66 49.34 -2.32 48.68 -3 48 C-2.67582137 44.19090105 -2.14418558 42.21627837 0 39 C0.66 39 1.32 39 2 39 C2.66 36.03 3.32 33.06 4 30 C3.01 30 2.02 30 1 30 C1 29.34 1 28.68 1 28 C-0.32 28.33 -1.64 28.66 -3 29 C-2.34 27.68 -1.68 26.36 -1 25 C-2.1645201 23.33378575 -2.1645201 23.33378575 -4 22 C-6.65466049 22.23043864 -6.65466049 22.23043864 -9 23 C-9 22.34 -9 21.68 -9 21 C-9.99 21 -10.98 21 -12 21 C-12.33 21.66 -12.66 22.32 -13 23 C-15.95664519 24.4783226 -18.74229737 24.06032783 -22 24 C-22 23.34 -22 22.68 -22 22 C-22.66 22 -23.32 22 -24 22 C-24.125 19.625 -24.125 19.625 -24 17 C-23.34 16.34 -22.68 15.68 -22 15 C-21.59952556 12.67724823 -21.2602896 10.34260643 -21 8 C-21.33 8.33 -21.66 8.66 -22 9 C-23.1839471 10.02495181 -24.3720016 11.045165 -25.5625 12.0625 C-26.20316406 12.61035156 -26.84382813 13.15820312 -27.50390625 13.72265625 C-27.99761719 14.14417969 -28.49132813 14.56570312 -29 15 C-30.46972992 12.06054016 -30 9.25044564 -30 6 C-30.33 5.34 -30.66 4.68 -31 4 C-29.97519531 4.02320313 -28.95039062 4.04640625 -27.89453125 4.0703125 C-26.53386149 4.08908036 -25.1731838 4.10727947 -23.8125 4.125 C-23.13896484 4.14175781 -22.46542969 4.15851562 -21.77148438 4.17578125 C-17.66120658 4.21588152 -14.73147432 3.65698335 -11 2 C-8.66666667 2 -6.33333333 2 -4 2 C-1.76591887 1.00916033 -1.76591887 1.00916033 0 0 Z " fill="#4A4641" transform="translate(77,12)"/>
<path d="M0 0 C4.62930592 -0.37034447 8.02682024 -0.48658988 12.25 1.625 C19.69235775 8.05249078 19.69235775 8.05249078 20.44921875 12.84375 C20.67845017 19.23061153 20.21584377 23.16417921 16 28 C15.34 28.99 14.68 29.98 14 31 C23.87468491 26.56496979 23.87468491 26.56496979 30 18 C30.042721 19.66611905 30.04063832 21.33382885 30 23 C29.505 23.495 29.505 23.495 29 24 C30.32 24.66 31.64 25.32 33 26 C32.34 26.66 31.68 27.32 31 28 C32.32 27.67 33.64 27.34 35 27 C35 27.66 35 28.32 35 29 C36.32 29.66 37.64 30.32 39 31 C37.71211992 31.53012738 36.41953322 32.0488329 35.125 32.5625 C34.40570313 32.85253906 33.68640625 33.14257812 32.9453125 33.44140625 C31 34 31 34 29 33 C29 32.67 29 32.34 29 32 C26.03 32.495 26.03 32.495 23 33 C23 33.66 23 34.32 23 35 C20.95928485 35.33910994 18.91737379 35.67102704 16.875 36 C15.16957031 36.2784375 15.16957031 36.2784375 13.4296875 36.5625 C10.23862398 36.96956049 7.21182209 37.07809902 4 37 C4.1875 35.125 4.1875 35.125 5 33 C7.5625 31.75 7.5625 31.75 10 31 C6.535 29.02 6.535 29.02 3 27 C3 25.02 3 23.04 3 21 C2.67 22.65 2.34 24.3 2 26 C1.67 26 1.34 26 1 26 C0.67 23.03 0.34 20.06 0 17 C-0.99 17 -1.98 17 -3 17 C-3 16.34 -3 15.68 -3 15 C-2.34 15 -1.68 15 -1 15 C-1 14.34 -1 13.68 -1 13 C-1.99 13.33 -2.98 13.66 -4 14 C-4.75 10.8125 -4.75 10.8125 -5 7 C-3.125 4.1875 -3.125 4.1875 -1 2 C-0.67 1.34 -0.34 0.68 0 0 Z " fill="#6E6F6B" transform="translate(41,66)"/>
<path d="M0 0 C0.99 0.33 1.98 0.66 3 1 C2.67 1.61875 2.34 2.2375 2 2.875 C0.85806765 4.91018344 0.85806765 4.91018344 1 7 C1.99 7.33 2.98 7.66 4 8 C5.25 10.4375 5.25 10.4375 6 13 C5.67 13.66 5.34 14.32 5 15 C5.66 15.33 6.32 15.66 7 16 C6.67 18.64 6.34 21.28 6 24 C7.83700789 24.77242269 7.83700789 24.77242269 10 25 C11.77190909 23.64555699 11.77190909 23.64555699 13 22 C13 23.65 13 25.3 13 27 C14.134375 27.433125 15.26875 27.86625 16.4375 28.3125 C17.613125 28.869375 18.78875 29.42625 20 30 C20.495 31.485 20.495 31.485 21 33 C21.66 33 22.32 33 23 33 C23.495 32.01 23.495 32.01 24 31 C25.98 31.66 27.96 32.32 30 33 C29.67 33.99 29.34 34.98 29 36 C26.03 36 23.06 36 20 36 C18.84712845 40.61148618 19.57147696 42.5557061 21 47 C21.34135927 48.33130115 21.67925956 49.66358148 22 51 C22.66 51 23.32 51 24 51 C24.0825 49.783125 24.165 48.56625 24.25 47.3125 C24.73758372 43.21534129 26.09510536 40.99860092 29 38 C29.99 38.495 29.99 38.495 31 39 C30.91304042 41.60578866 30.80618592 44.2081279 30.6875 46.8125 C30.66494141 47.55048828 30.64238281 48.28847656 30.61914062 49.04882812 C30.3453392 54.54974762 30.3453392 54.54974762 28.45703125 57.01171875 C27.73580078 57.50091797 27.73580078 57.50091797 27 58 C26.01 57.505 26.01 57.505 25 57 C23.15175336 57 21.75360625 58.76253396 20.375 59.875 C16.62499654 62.74503875 13.59711666 64.04226736 9 65 C9.42152344 64.44570312 9.84304687 63.89140625 10.27734375 63.3203125 C10.82519531 62.59585938 11.37304688 61.87140625 11.9375 61.125 C12.48277344 60.40570313 13.02804688 59.68640625 13.58984375 58.9453125 C17.09490019 54.11008229 16.73875698 48.76969202 16 43 C14.13122441 38.67271226 11.37503461 36.63187462 7.15234375 34.69140625 C4.45532001 33.6856774 1.76636669 32.79250007 -1 32 C-1 31.67 -1 31.34 -1 31 C0.2375 30.95875 1.475 30.9175 2.75 30.875 C3.44609375 30.85179688 4.1421875 30.82859375 4.859375 30.8046875 C7.30155975 31.02751458 8.88636771 31.79085 11 33 C9.09134118 31.17837122 7.17393701 29.3678688 5.25 27.5625 C4.71117188 27.04623047 4.17234375 26.52996094 3.6171875 25.99804688 C0.65256335 23.10407016 0.65256335 23.10407016 -3.07128906 21.49975586 C-5 21 -5 21 -6.875 18.5 C-8.8310836 15.70721157 -8.8310836 15.70721157 -12.25 15.1875 C-13.1575 15.125625 -14.065 15.06375 -15 15 C-15 14.34 -15 13.68 -15 13 C-13.35546875 11.4921875 -13.35546875 11.4921875 -11.1875 9.875 C-10.47980469 9.33617187 -9.77210937 8.79734375 -9.04296875 8.2421875 C-7 7 -7 7 -4 7 C-3.896875 6.401875 -3.79375 5.80375 -3.6875 5.1875 C-2.91123545 2.71756736 -1.92911079 1.67748765 0 0 Z " fill="#2C2C29" transform="translate(44,33)"/>
<path d="M0 0 C0 1.32 0 2.64 0 4 C-0.66 4 -1.32 4 -2 4 C-3.77759876 8.96920684 -3.77759876 8.96920684 -3 14 C-3.66 14.66 -4.32 15.32 -5 16 C-7.10827055 19.16240582 -7.33817465 20.50657469 -7.625 24.1875 C-7.69976562 25.08855469 -7.77453125 25.98960938 -7.8515625 26.91796875 C-7.90054687 27.60503906 -7.94953125 28.29210937 -8 29 C-5.525 29.99 -5.525 29.99 -3 31 C-3.226875 31.86625 -3.45375 32.7325 -3.6875 33.625 C-4.0665087 37.71829395 -3.15974453 39.56040685 -1 43 C2.46746638 44.73373319 6.43775195 43.95439447 10.25 43.83984375 C13 44 13 44 15 46 C14.01 47.98 13.02 49.96 12 52 C0.98608972 53.05773834 0.98608972 53.05773834 -3.3984375 50.72265625 C-5.4529372 48.93207449 -7.22139403 47.06396473 -9 45 C-9.63808594 44.34 -10.27617187 43.68 -10.93359375 43 C-16.29464791 37.29343092 -19.66888217 31.62692786 -19.43359375 23.61328125 C-18.41582239 17.47914574 -15.77140452 11.54280904 -13 6 C-12.01 5.67 -11.02 5.34 -10 5 C-8.64631404 3.68733482 -7.31200404 2.35432675 -6 1 C-4 0 -4 0 0 0 Z " fill="#2F2E2B" transform="translate(27,48)"/>
<path d="M0 0 C0 0.66 0 1.32 0 2 C1.98 2 3.96 2 6 2 C6.33 2.99 6.66 3.98 7 5 C7.99 5.33 8.98 5.66 10 6 C10 6.66 10 7.32 10 8 C12.475 8.495 12.475 8.495 15 9 C13.35 10.65 11.7 12.3 10 14 C7.00667261 13.0022242 6.05233685 12.2477975 4 10 C4.33 10.99 4.66 11.98 5 13 C4.67 13.99 4.34 14.98 4 16 C3.95615553 17.66608987 3.9603287 19.33380554 4 21 C4.07413975 24.11386969 3.99775073 26.00674781 3 29 C3.09268505 31.06618749 3.09268505 31.06618749 3.4375 33.1875 C3.623125 34.445625 3.80875 35.70375 4 37 C4.66 37 5.32 37 6 37 C6.33 39.97 6.66 42.94 7 46 C4.11138291 47.44430855 2.20352299 47.37688506 -1 47 C-4.00816058 44.66031955 -5.67842248 43.03894275 -6.8125 39.375 C-7 37 -7 37 -7 34 C-7.495 32.515 -7.495 32.515 -8 31 C-8.99 31.33 -9.98 31.66 -11 32 C-10.88487847 30.27014758 -10.75744323 28.54111249 -10.625 26.8125 C-10.55539063 25.84957031 -10.48578125 24.88664062 -10.4140625 23.89453125 C-9.95867112 20.71108774 -9.35219998 17.35219998 -7 15 C-6.7834375 13.576875 -6.7834375 13.576875 -6.5625 12.125 C-6 9 -6 9 -4 6 C-3.34 6 -2.68 6 -2 6 C-2 4.68 -2 3.36 -2 2 C-2.66 1.67 -3.32 1.34 -4 1 C-2 0 -2 0 0 0 Z " fill="#464644" transform="translate(29,46)"/>
<path d="M0 0 C0.66 0.33 1.32 0.66 2 1 C1.67 3.64 1.34 6.28 1 9 C0.01 9.33 -0.98 9.66 -2 10 C-2 11.65 -2 13.3 -2 15 C-1.34 15 -0.68 15 0 15 C0 15.66 0 16.32 0 17 C5.3086849 16.41825155 5.3086849 16.41825155 10 14 C10.99 14 11.98 14 13 14 C13 14.66 13 15.32 13 16 C14.98 15.34 16.96 14.68 19 14 C19.99 15.32 20.98 16.64 22 18 C21.01 19.32 20.02 20.64 19 22 C20.32 21.67 21.64 21.34 23 21 C23 21.66 23 22.32 23 23 C23.99 23 24.98 23 26 23 C25.67 26.96 25.34 30.92 25 35 C24.67 34.01 24.34 33.02 24 32 C23.4225 32.2475 22.845 32.495 22.25 32.75 C21.5075 32.8325 20.765 32.915 20 33 C17.75 31.1875 17.75 31.1875 16 29 C16 28.34 16 27.68 16 27 C15.38253906 27.04640625 14.76507813 27.0928125 14.12890625 27.140625 C6.11932308 27.4819771 0.61271383 25.40847589 -6 21 C-6.3984375 18.35546875 -6.3984375 18.35546875 -6.375 15.1875 C-6.38273437 14.14980469 -6.39046875 13.11210938 -6.3984375 12.04296875 C-5.75573316 7.13447186 -2.97605318 3.82635409 0 0 Z " fill="#2C2B2A" transform="translate(55,19)"/>
<path d="M0 0 C0.99 0.33 1.98 0.66 3 1 C2.81824219 1.53367187 2.63648438 2.06734375 2.44921875 2.6171875 C1.91258242 4.20783263 1.38617096 5.80194551 0.8671875 7.3984375 C0.32641801 9.02074597 -0.2465721 10.63309053 -0.8671875 12.2265625 C-4.72381742 22.91493685 -4.53785139 35.60075722 0 46 C0.33 46 0.66 46 1 46 C1.185625 47.299375 1.37125 48.59875 1.5625 49.9375 C2.87412972 55.82136009 6.03485539 59.58978814 10 64 C10.54914062 64.63035156 11.09828125 65.26070313 11.6640625 65.91015625 C18.05076356 72.79629127 24.62797709 77.13175473 34.125 77.875 C36.08260227 77.94281532 38.04123308 77.99385966 40 78 C40 78.33 40 78.66 40 79 C38.29442382 79.3672148 36.58533945 79.71815166 34.875 80.0625 C33.92367187 80.25972656 32.97234375 80.45695312 31.9921875 80.66015625 C26.26572623 81.31055068 22.59756405 80.13922991 18 76.75 C17.195625 76.16734375 16.39125 75.5846875 15.5625 74.984375 C4.01459539 66.04179034 -4.57730588 54.75172979 -7 40 C-8.48912522 26.22101181 -7.91255725 11.86883587 0 0 Z " fill="#A29067" transform="translate(7,27)"/>
<path d="M0 0 C0.99 0 1.98 0 3 0 C2.67187594 2.87739559 2.17372387 3.84882045 -0.046875 5.78125 C-10.87271647 12.66473301 -20.42896266 15.32752181 -33.1875 15.4375 C-34.55902222 15.4528479 -34.55902222 15.4528479 -35.95825195 15.46850586 C-42.39510259 15.3855732 -47.94194914 14.14809989 -54 12 C-53.67 11.34 -53.34 10.68 -53 10 C-44.14044014 7.54922272 -34.94289245 6.73799901 -25.8125 6 C-11.90611378 5.57594462 -11.90611378 5.57594462 0 0 Z " fill="#A49169" transform="translate(89,97)"/>
<path d="M0 0 C1.98 0.66 3.96 1.32 6 2 C6.66 1.34 7.32 0.68 8 0 C12.83230856 0.12518934 15.51741303 2.86419796 18.8125 6.0625 C19.31458984 6.53494141 19.81667969 7.00738281 20.33398438 7.49414062 C21.56422789 8.65408452 22.78327065 9.82588815 24 11 C21 11 21 11 18 9 C14.89143 8.76685725 12.98586231 9.00471256 10 10 C9.67 10.66 9.34 11.32 9 12 C8.175 12.804375 7.35 13.60875 6.5 14.4375 C3.82063363 16.81120237 3.82063363 16.81120237 3 20 C3.66 20.33 4.32 20.66 5 21 C5 21.66 5 22.32 5 23 C5.66 23 6.32 23 7 23 C7 23.66 7 24.32 7 25 C6.34 25 5.68 25 5 25 C5 25.66 5 26.32 5 27 C5.99 27 6.98 27 8 27 C8.66 28.32 9.32 29.64 10 31 C10.66 30.34 11.32 29.68 12 29 C12.125 34.75 12.125 34.75 11 37 C4.84765625 36.4140625 4.84765625 36.4140625 3 36 C1.5216774 33.04335481 1.93967217 30.25770263 2 27 C1.34 27 0.68 27 0 27 C-0.36368892 25.39796533 -0.71561952 23.79325797 -1.0625 22.1875 C-1.25972656 21.29417969 -1.45695312 20.40085937 -1.66015625 19.48046875 C-2 17 -2 17 -1 14 C-0.95583611 12.16719868 -0.96058259 10.33290954 -1 8.5 C-1.07022251 5.23465308 -1.04084202 3.12252607 0 0 Z " fill="#595A57" transform="translate(33,56)"/>
<path d="M0 0 C0.99 0.66 1.98 1.32 3 2 C3.8595073 7.17253044 4.15915571 13.07376777 1.125 17.5625 C0.42375 18.366875 -0.2775 19.17125 -1 20 C-1.66 20.99 -2.32 21.98 -3 23 C6.87468491 18.56496979 6.87468491 18.56496979 13 10 C13.042721 11.66611905 13.04063832 13.33382885 13 15 C12.67 15.33 12.34 15.66 12 16 C13.32 16.66 14.64 17.32 16 18 C15.34 18.66 14.68 19.32 14 20 C15.32 19.67 16.64 19.34 18 19 C18 19.66 18 20.32 18 21 C19.32 21.66 20.64 22.32 22 23 C20.71211992 23.53012738 19.41953322 24.0488329 18.125 24.5625 C17.40570313 24.85253906 16.68640625 25.14257812 15.9453125 25.44140625 C14 26 14 26 12 25 C12 24.67 12 24.34 12 24 C10.02 24.33 8.04 24.66 6 25 C6 25.66 6 26.32 6 27 C3.95928485 27.33910994 1.91737379 27.67102704 -0.125 28 C-1.26195312 28.185625 -2.39890625 28.37125 -3.5703125 28.5625 C-6.76137602 28.96956049 -9.78817791 29.07809902 -13 29 C-12.875 27.1875 -12.875 27.1875 -12 25 C-9.0625 23.375 -9.0625 23.375 -6 22 C-5.34 21.34 -4.68 20.68 -4 20 C-4.66 18.68 -5.32 17.36 -6 16 C-6.66 17.32 -7.32 18.64 -8 20 C-9.33332095 17.3333581 -8.67102033 15.83319697 -8 13 C-8.99 12.67 -9.98 12.34 -11 12 C-9.68 12 -8.36 12 -7 12 C-7 11.34 -7 10.68 -7 10 C-7.66 10 -8.32 10 -9 10 C-8 7 -8 7 -6 4 C-3.375 3.8125 -3.375 3.8125 -1 4 C-1 7.33333333 -1 10.66666667 -1 14 C-0.34 14 0.32 14 1 14 C0.67 9.38 0.34 4.76 0 0 Z " fill="#7A7A77" transform="translate(58,74)"/>
<path d="M0 0 C-0.33 0.66 -0.66 1.32 -1 2 C0.32 2 1.64 2 3 2 C4.59765625 3.86328125 4.59765625 3.86328125 6.0625 6.3125 C8.04903809 9.63239828 8.04903809 9.63239828 10.58203125 12.51953125 C12.34188299 14.35695221 12.87348066 15.95527289 13.625 18.375 C13.87121094 19.16519531 14.11742188 19.95539062 14.37109375 20.76953125 C15.04591458 23.1628399 15.60393707 25.54440984 16 28 C15.67 28 15.34 28 15 28 C14.67 30.31 14.34 32.62 14 35 C13.34 34.67 12.68 34.34 12 34 C12 33.34 12 32.68 12 32 C11.34 32 10.68 32 10 32 C10 29.69 10 27.38 10 25 C9.34 25 8.68 25 8 25 C8.33 23.35 8.66 21.7 9 20 C7.35 19.34 5.7 18.68 4 18 C4 16.68 4 15.36 4 14 C3.34 13.34 2.68 12.68 2 12 C2.99 12 3.98 12 5 12 C5.33 11.34 5.66 10.68 6 10 C4.35 10 2.7 10 1 10 C0.67 11.32 0.34 12.64 0 14 C0.66 14 1.32 14 2 14 C2 14.66 2 15.32 2 16 C-0.1875 15.875 -0.1875 15.875 -3 15 C-4.68732277 13.01739574 -6.35366057 11.0167658 -8 9 C-10.6514482 7.60180488 -10.6514482 7.60180488 -13 7 C-13 5.68 -13 4.36 -13 3 C-13.66 2.67 -14.32 2.34 -15 2 C-13.96875 1.87625 -12.9375 1.7525 -11.875 1.625 C-8.04381581 1.11753162 -8.04381581 1.11753162 -4.6875 -0.125 C-2 -1 -2 -1 0 0 Z " fill="#928F81" transform="translate(79,13)"/>
<path d="M0 0 C4.875 4.75 4.875 4.75 6 7 C6.66 7 7.32 7 8 7 C8.66 6.34 9.32 5.68 10 5 C10 6.65 10 8.3 10 10 C10.66 10 11.32 10 12 10 C12.33 10.66 12.66 11.32 13 12 C13.33 9.69 13.66 7.38 14 5 C14.66 5.33 15.32 5.66 16 6 C16.4140625 8.06640625 16.4140625 8.06640625 16.625 10.5625 C16.69976562 11.38878906 16.77453125 12.21507812 16.8515625 13.06640625 C16.90054688 13.70449219 16.94953125 14.34257813 17 15 C16.01 15.495 16.01 15.495 15 16 C15 17.65 15 19.3 15 21 C12.66705225 21.04241723 10.33297433 21.04092937 8 21 C7.67 20.67 7.34 20.34 7 20 C6.34 21.32 5.68 22.64 5 24 C5 23.01 5 22.02 5 21 C4.34 21 3.68 21 3 21 C3 22.32 3 23.64 3 25 C1.02 25.66 -0.96 26.32 -3 27 C-3.66 26.34 -4.32 25.68 -5 25 C-4.67582137 21.19090105 -4.14418558 19.21627837 -2 16 C-1.34 16 -0.68 16 0 16 C0.66 13.03 1.32 10.06 2 7 C1.01 7 0.02 7 -1 7 C-1 6.34 -1 5.68 -1 5 C-2.32 5.33 -3.64 5.66 -5 6 C-3.63016497 2.83884224 -3.0109362 2.0072908 0 0 Z " fill="#64635E" transform="translate(79,35)"/>
<path d="M0 0 C1.41778293 2.83556587 0.86257622 4.9908706 0.5625 8.125 C0.46066406 9.22070312 0.35882813 10.31640625 0.25390625 11.4453125 C0.17011719 12.28835937 0.08632813 13.13140625 0 14 C3.30710686 15.78198477 6.68214999 16.96157065 10.25 18.125 C11.32765625 18.47820313 12.4053125 18.83140625 13.515625 19.1953125 C14.33546875 19.46085937 15.1553125 19.72640625 16 20 C15.44369726 22.74745433 15.2332666 23.78228451 13.125 25.75 C11 27 11 27 8 27 C7.566875 28.2065625 7.566875 28.2065625 7.125 29.4375 C6 32 6 32 4 33 C1.875 32.0625 1.875 32.0625 0 31 C0.52268466 28.23723823 1.10869587 25.6739124 2 23 C1.01 22.67 0.02 22.34 -1 22 C-0.814375 21.401875 -0.62875 20.80375 -0.4375 20.1875 C0.22093687 17.83591238 0.22093687 17.83591238 -1 15 C-3.01508358 14.26676204 -3.01508358 14.26676204 -5 14 C-5 11 -5 11 -3.5 9.3125 C-3.005 8.879375 -2.51 8.44625 -2 8 C-5.25543229 8.34879632 -6.01873107 9.02133261 -8.25 11.5625 C-8.8275 12.366875 -9.405 13.17125 -10 14 C-10.33 13.01 -10.66 12.02 -11 11 C-9.54540569 9.35086118 -8.08620743 7.70578218 -6.625 6.0625 C-5.81289063 5.14597656 -5.00078125 4.22945312 -4.1640625 3.28515625 C-2 1 -2 1 0 0 Z " fill="#3C3C3C" transform="translate(49,26)"/>
<path d="M0 0 C0.5775 0.226875 1.155 0.45375 1.75 0.6875 C1.42 1.0175 1.09 1.3475 0.75 1.6875 C2.73 1.3575 4.71 1.0275 6.75 0.6875 C7.08 2.3375 7.41 3.9875 7.75 5.6875 C8.74 5.3575 9.73 5.0275 10.75 4.6875 C10.09 6.3375 9.43 7.9875 8.75 9.6875 C9.348125 9.0275 9.94625 8.3675 10.5625 7.6875 C12.75 5.6875 12.75 5.6875 15.75 5.6875 C13.94685458 11.09693626 8.55784955 13.95199939 3.75 16.6875 C0.72445607 17.31428714 -1.15660926 17.1544269 -4.25 16.6875 C-3.92 15.6975 -3.59 14.7075 -3.25 13.6875 C-2.59 13.3575 -1.93 13.0275 -1.25 12.6875 C-2.24 12.0275 -3.23 11.3675 -4.25 10.6875 C-3.92 10.0275 -3.59 9.3675 -3.25 8.6875 C-5.23 9.6775 -5.23 9.6775 -7.25 10.6875 C-7.875 8.375 -7.875 8.375 -8.25 5.6875 C-4.08050847 -0.56673729 -4.08050847 -0.56673729 0 0 Z " fill="#333024" transform="translate(79.25,84.3125)"/>
<path d="M0 0 C6.6 0 13.2 0 20 0 C20.33 1.32 20.66 2.64 21 4 C22.64551962 4.71727778 24.31422289 5.38325228 26 6 C26.99 7.485 26.99 7.485 28 9 C25.69 8.34 23.38 7.68 21 7 C19.31318262 8.10041919 19.31318262 8.10041919 18 10 C18.23283149 13.14921909 18.23283149 13.14921909 19 16 C17.68 16 16.36 16 15 16 C14.67 14.35 14.34 12.7 14 11 C13.34 11 12.68 11 12 11 C12 10.34 12 9.68 12 9 C11.34 9 10.68 9 10 9 C10 7.35 10 5.7 10 4 C9.67 4.33 9.34 4.66 9 5 C7.8160529 6.02495181 6.6279984 7.045165 5.4375 8.0625 C4.79683594 8.61035156 4.15617187 9.15820312 3.49609375 9.72265625 C3.00238281 10.14417969 2.50867187 10.56570312 2 11 C0.53027008 8.06054016 1 5.25044564 1 2 C0.67 1.34 0.34 0.68 0 0 Z " fill="#5A5A54" transform="translate(46,16)"/>
<path d="M0 0 C0.66 0 1.32 0 2 0 C2.18433594 0.53367187 2.36867188 1.06734375 2.55859375 1.6171875 C6.47575693 11.67994446 14.05180121 19.16184591 23 25 C24.14275391 25.80050781 24.14275391 25.80050781 25.30859375 26.6171875 C28.58491599 28.30052288 31.14736745 28.5023923 34.8125 28.6875 C35.97394531 28.75324219 37.13539062 28.81898437 38.33203125 28.88671875 C39.21246094 28.92410156 40.09289063 28.96148437 41 29 C41 29.33 41 29.66 41 30 C39.29442382 30.3672148 37.58533945 30.71815166 35.875 31.0625 C34.92367187 31.25972656 33.97234375 31.45695312 32.9921875 31.66015625 C27.26572623 32.31055068 23.59756405 31.13922991 19 27.75 C18.195625 27.16734375 17.39125 26.5846875 16.5625 25.984375 C11.21158807 21.840681 6.92526369 18.11319404 3.0625 12.5625 C2.65193359 12.01529297 2.24136719 11.46808594 1.81835938 10.90429688 C-0.31010134 7.87133008 -1.02410113 6.33397275 -0.75390625 2.58984375 C-0.50511719 1.73519531 -0.25632812 0.88054687 0 0 Z " fill="#9D8A66" transform="translate(6,76)"/>
<path d="M0 0 C3 1 3 1 3.8125 2.6171875 C4.08179679 6.03950086 3.09301751 8.92968671 2 12.125 C1.77505859 12.79007568 1.55011719 13.45515137 1.31835938 14.14038086 C-0.84354175 20.16646173 -3.96175634 25.03555367 -8 30 C-8.71929687 30.94359375 -8.71929687 30.94359375 -9.453125 31.90625 C-11.55992511 34.59686219 -12.69267697 35.89755899 -16 37 C-16 36.34 -16 35.68 -16 35 C-17.670625 36.0209375 -17.670625 36.0209375 -19.375 37.0625 C-21.2734375 38.22265625 -21.2734375 38.22265625 -23 39 C-23.66 38.67 -24.32 38.34 -25 38 C-24.27554688 37.50371094 -23.55109375 37.00742188 -22.8046875 36.49609375 C-10.11680145 27.58073915 -3.27514995 17.78941336 -0.3125 2.4375 C-0.209375 1.633125 -0.10625 0.82875 0 0 Z " fill="#A39169" transform="translate(108,62)"/>
<path d="M0 0 C-9.25878763 4.45919551 -16.75380849 7.14079527 -27.0625 7.25 C-27.73563232 7.25942627 -28.40876465 7.26885254 -29.10229492 7.27856445 C-33.78819784 7.24817746 -37.59586996 6.44322597 -42 5 C-42 4.67 -42 4.34 -42 4 C-33.64681871 2.12153339 -25.22147021 1.39724015 -16.70654297 0.69775391 C-15.78502441 0.62089355 -14.86350586 0.5440332 -13.9140625 0.46484375 C-13.0885791 0.399021 -12.2630957 0.33319824 -11.41259766 0.26538086 C-8.94533797 0.03317644 -8.94533797 0.03317644 -6.33740234 -0.55639648 C-3.84586989 -1.02925156 -2.3807651 -0.79358837 0 0 Z " fill="#EDEACF" transform="translate(83,102)"/>
<path d="M0 0 C4.12837223 -0.57605194 5.61345626 -0.2899078 9 2.25 C10.88519641 4.72768671 11.00415166 5.90676548 10.86328125 9.0703125 C10.360228 12.08863198 9.75326695 15.034911 9 18 C6.36 17.67 3.72 17.34 1 17 C1 16.67 1 16.34 1 16 C3.31 16 5.62 16 8 16 C7.67 15.01 7.34 14.02 7 13 C5.68 13 4.36 13 3 13 C2.34 10.69 1.68 8.38 1 6 C0.67 6.99 0.34 7.98 0 9 C-2.64 9 -5.28 9 -8 9 C-8 8.34 -8 7.68 -8 7 C-6.20963542 6.05598958 -4.41927083 5.11197917 -2.62890625 4.16796875 C-0.67732013 3.00980201 -0.67732013 3.00980201 0 0 Z " fill="#40403E" transform="translate(65,46)"/>
<path d="M0 0 C0.99 0.66 1.98 1.32 3 2 C3.89875084 7.40869876 3.72096719 12.4748771 1.375 17.4375 C-1.25905929 20.27951134 -3.93517371 22.63172514 -7 25 C-6.67 24.38125 -6.34 23.7625 -6 23.125 C-4.57523193 20.09736784 -4.92163482 19.23509555 -6 16 C-6.66 17.32 -7.32 18.64 -8 20 C-9.33332095 17.3333581 -8.67102033 15.83319697 -8 13 C-8.99 12.67 -9.98 12.34 -11 12 C-9.68 12 -8.36 12 -7 12 C-7 11.34 -7 10.68 -7 10 C-7.66 10 -8.32 10 -9 10 C-8 7 -8 7 -6 4 C-3.375 3.8125 -3.375 3.8125 -1 4 C-1 7.33333333 -1 10.66666667 -1 14 C-0.34 14 0.32 14 1 14 C0.67 9.38 0.34 4.76 0 0 Z " fill="#7F807C" transform="translate(58,74)"/>
<path d="M0 0 C-0.33 0.66 -0.66 1.32 -1 2 C0.32 2 1.64 2 3 2 C2.67 2.99 2.34 3.98 2 5 C-0.76276177 4.47731534 -3.3260876 3.89130413 -6 3 C-6 3.66 -6 4.32 -6 5 C-5.34 5 -4.68 5 -4 5 C-3.67 5.66 -3.34 6.32 -3 7 C-2.34 6.67 -1.68 6.34 -1 6 C-1 6.66 -1 7.32 -1 8 C0.65 8 2.3 8 4 8 C4.33 8.66 4.66 9.32 5 10 C3.68 10 2.36 10 1 10 C0.67 11.32 0.34 12.64 0 14 C0.66 14 1.32 14 2 14 C2 14.66 2 15.32 2 16 C-0.1875 15.875 -0.1875 15.875 -3 15 C-4.68732277 13.01739574 -6.35366057 11.0167658 -8 9 C-10.6514482 7.60180488 -10.6514482 7.60180488 -13 7 C-13 5.68 -13 4.36 -13 3 C-13.66 2.67 -14.32 2.34 -15 2 C-13.96875 1.87625 -12.9375 1.7525 -11.875 1.625 C-8.04381581 1.11753162 -8.04381581 1.11753162 -4.6875 -0.125 C-2 -1 -2 -1 0 0 Z " fill="#9B9B8C" transform="translate(79,13)"/>
<path d="M0 0 C3.82693572 1.09341021 6.5533994 2.80112425 9.0625 5.9375 C11.04967754 10.30929058 10.34135165 15.31210407 10 20 C9.34 20 8.68 20 8 20 C7 13.25 7 13.25 7 11 C5.68 10.67 4.36 10.34 3 10 C3 11.65 3 13.3 3 15 C2.67 14.34 2.34 13.68 2 13 C1.360625 12.9175 0.72125 12.835 0.0625 12.75 C-0.618125 12.5025 -1.29875 12.255 -2 12 C-3.25 8.9375 -3.25 8.9375 -4 6 C-2.02 5.67 -0.04 5.34 2 5 C2 4.01 2 3.02 2 2 C1.01 2.33 0.02 2.66 -1 3 C-0.67 2.01 -0.34 1.02 0 0 Z " fill="#63635F" transform="translate(49,68)"/>
<path d="M0 0 C0.5775 0.33 1.155 0.66 1.75 1 C4.19883862 2.27075898 4.19883862 2.27075898 8 2 C7.6875 3.9375 7.6875 3.9375 7 6 C6.01 6.33 5.02 6.66 4 7 C4 7.99 4 8.98 4 10 C0.86501708 11.85776765 -1.37471432 12.20140476 -5 12 C-5.33 12.66 -5.66 13.32 -6 14 C-8.0625 14.625 -8.0625 14.625 -10 15 C-8.25 9.25 -8.25 9.25 -6 7 C-5.01 7 -4.02 7 -3 7 C-3 5.68 -3 4.36 -3 3 C-2.34 3 -1.68 3 -1 3 C-0.67 2.01 -0.34 1.02 0 0 Z " fill="#4E4D47" transform="translate(85,53)"/>
<path d="M0 0 C2.97 0.33 5.94 0.66 9 1 C8.731875 1.61875 8.46375 2.2375 8.1875 2.875 C6.5516213 7.17994393 5.28728674 11.58031552 4 16 C3.34 16 2.68 16 2 16 C-0.4378762 11.65422069 -1.71715843 7.9968678 -2 3 C-1.34 2.01 -0.68 1.02 0 0 Z " fill="#4D4E4B" transform="translate(64,68)"/>
<path d="M0 0 C1.2065625 0.0309375 1.2065625 0.0309375 2.4375 0.0625 C2.4375 0.7225 2.4375 1.3825 2.4375 2.0625 C3.4275 2.0625 4.4175 2.0625 5.4375 2.0625 C5.1075 6.0225 4.7775 9.9825 4.4375 14.0625 C4.1075 13.0725 3.7775 12.0825 3.4375 11.0625 C2.1175 11.3925 0.7975 11.7225 -0.5625 12.0625 C-2.2125 10.0825 -3.8625 8.1025 -5.5625 6.0625 C-3.26136364 0.07954545 -3.26136364 0.07954545 0 0 Z " fill="#353532" transform="translate(75.5625,39.9375)"/>
<path d="M0 0 C0.66 0.33 1.32 0.66 2 1 C2.59505999 3.04524321 2.95466781 5.09333957 3.33984375 7.1875 C3.55769531 7.785625 3.77554688 8.38375 4 9 C4.99 9.33 5.98 9.66 7 10 C7 11.65 7 13.3 7 15 C4.75 14.8125 4.75 14.8125 2 14 C1.360625 13.175 0.72125 12.35 0.0625 11.5 C-1.83128201 8.70032216 -1.83128201 8.70032216 -5.25 8.1875 C-6.1575 8.125625 -7.065 8.06375 -8 8 C-8 7.34 -8 6.68 -8 6 C-6.25 4.4921875 -6.25 4.4921875 -4 2.875 C-3.2575 2.33617187 -2.515 1.79734375 -1.75 1.2421875 C-1.1725 0.83226562 -0.595 0.42234375 0 0 Z " fill="#34322F" transform="translate(37,40)"/>
<path d="M0 0 C0.99 0.33 1.98 0.66 3 1 C2.91304042 3.60578866 2.80618592 6.2081279 2.6875 8.8125 C2.66494141 9.55048828 2.64238281 10.28847656 2.61914062 11.04882812 C2.3453392 16.54974762 2.3453392 16.54974762 0.45703125 19.01171875 C-0.26419922 19.50091797 -0.26419922 19.50091797 -1 20 C-1.66 19.67 -2.32 19.34 -3 19 C-2.67 18.34 -2.34 17.68 -2 17 C-2.66 17 -3.32 17 -4 17 C-4.36499063 10.06517795 -3.09392307 6.18784615 0 0 Z " fill="#1A1A15" transform="translate(72,71)"/>
<path d="M0 0 C0.66 0 1.32 0 2 0 C2 0.66 2 1.32 2 2 C2.99 1.67 3.98 1.34 5 1 C5 2.98 5 4.96 5 7 C6.32 7 7.64 7 9 7 C8 10 8 10 6 11 C3.6670134 11.04022391 1.33293334 11.04320247 -1 11 C-1 10.34 -1 9.68 -1 9 C-1.66 9 -2.32 9 -3 9 C-3.125 6.625 -3.125 6.625 -3 4 C-2.34 3.34 -1.68 2.68 -1 2 C-0.67 1.34 -0.34 0.68 0 0 Z " fill="#3C3C3A" transform="translate(56,25)"/>
<path d="M0 0 C0.5775 0.226875 1.155 0.45375 1.75 0.6875 C1.09 1.30625 0.43 1.925 -0.25 2.5625 C-2.4784549 4.44387427 -2.4784549 4.44387427 -2.25 6.6875 C-1.486875 6.336875 -0.72375 5.98625 0.0625 5.625 C2.75 4.6875 2.75 4.6875 5.75 5.6875 C4.1 6.0175 2.45 6.3475 0.75 6.6875 C0.75 7.3475 0.75 8.0075 0.75 8.6875 C1.74 8.3575 2.73 8.0275 3.75 7.6875 C3.75 9.0075 3.75 10.3275 3.75 11.6875 C1.11 11.6875 -1.53 11.6875 -4.25 11.6875 C-3.92 10.6975 -3.59 9.7075 -3.25 8.6875 C-5.23 9.6775 -5.23 9.6775 -7.25 10.6875 C-7.875 8.375 -7.875 8.375 -8.25 5.6875 C-4.08050847 -0.56673729 -4.08050847 -0.56673729 0 0 Z " fill="#585855" transform="translate(79.25,84.3125)"/>
<path d="M0 0 C4.83230856 0.12518934 7.51741303 2.86419796 10.8125 6.0625 C11.56563477 6.77116211 11.56563477 6.77116211 12.33398438 7.49414062 C13.56422789 8.65408452 14.78327065 9.82588815 16 11 C13 11 13 11 10 9 C7.59903749 8.29111541 7.59903749 8.29111541 5 7.8125 C4.13375 7.63332031 3.2675 7.45414063 2.375 7.26953125 C-0.14575378 6.81459169 -0.14575378 6.81459169 -3 8 C-3 7.34 -3 6.68 -3 6 C-2.34 6 -1.68 6 -1 6 C-1.20625 5.38125 -1.4125 4.7625 -1.625 4.125 C-1.74875 3.42375 -1.8725 2.7225 -2 2 C-1.34 1.34 -0.68 0.68 0 0 Z " fill="#50504D" transform="translate(41,56)"/>
<path d="M0 0 C8.76860882 -0.11918497 8.76860882 -0.11918497 11.671875 2.51953125 C12.9375 4.375 12.9375 4.375 13.96484375 6.2109375 C14.93139574 8.07813007 14.93139574 8.07813007 16.5859375 9.49609375 C18.87758261 11.93334062 18.69605789 14.77821364 19 18 C16.29534773 16.83042064 14.38105928 15.94771221 13.24609375 13.125 C13.04113281 12.42375 12.83617188 11.7225 12.625 11 C11.83965787 8.53502441 11.43761405 7.32078032 9.33203125 5.77734375 C7.22782986 4.78771563 7.22782986 4.78771563 4 4 C3.01 4.495 3.01 4.495 2 5 C2 4.01 2 3.02 2 2 C1.34 2 0.68 2 0 2 C0 1.34 0 0.68 0 0 Z " fill="#BEBAA2" transform="translate(73,16)"/>
<path d="M0 0 C-0.99 0.495 -0.99 0.495 -2 1 C-1.01 1 -0.02 1 1 1 C1 1.66 1 2.32 1 3 C2.32 3.33 3.64 3.66 5 4 C-3.91 4.99 -3.91 4.99 -13 6 C-13 5.34 -13 4.68 -13 4 C-13.99 3.67 -14.98 3.34 -16 3 C-14.02 3 -12.04 3 -10 3 C-10 2.34 -10 1.68 -10 1 C-3.71428571 -1.42857143 -3.71428571 -1.42857143 0 0 Z " fill="#615F5D" transform="translate(74,98)"/>
<path d="M0 0 C0.33 0 0.66 0 1 0 C1.042721 1.66611905 1.04063832 3.33382885 1 5 C0.67 5.33 0.34 5.66 0 6 C1.32 6.66 2.64 7.32 4 8 C3.34 8.66 2.68 9.32 2 10 C3.32 9.67 4.64 9.34 6 9 C6 9.66 6 10.32 6 11 C7.32 11.66 8.64 12.32 10 13 C8.71211992 13.53012738 7.41953322 14.0488329 6.125 14.5625 C5.40570313 14.85253906 4.68640625 15.14257812 3.9453125 15.44140625 C2 16 2 16 0 15 C0.66 14.34 1.32 13.68 2 13 C-0.31 12.34 -2.62 11.68 -5 11 C-4.54625 10.113125 -4.0925 9.22625 -3.625 8.3125 C-2.27995701 5.57068159 -1.08961285 2.84975669 0 0 Z " fill="#70706C" transform="translate(70,84)"/>
<path d="M0 0 C0.66 0 1.32 0 2 0 C2.28875 0.78375 2.5775 1.5675 2.875 2.375 C3.84912254 5.09671632 3.84912254 5.09671632 6 7 C5.828125 9.3125 5.828125 9.3125 5.25 12 C4.97929687 13.3303125 4.97929687 13.3303125 4.703125 14.6875 C4 17 4 17 2 19 C-0.30844801 12.65176798 -0.19818283 6.70518586 0 0 Z " fill="#FCF7E0" transform="translate(4,56)"/>
<path d="M0 0 C0.763125 0.20625 1.52625 0.4125 2.3125 0.625 C2.3125 1.945 2.3125 3.265 2.3125 4.625 C3.3025 4.295 4.2925 3.965 5.3125 3.625 C4.5625 5.5625 4.5625 5.5625 3.3125 7.625 C1.25 8.25 1.25 8.25 -0.6875 8.625 C-1.0175 9.285 -1.3475 9.945 -1.6875 10.625 C-2.0175 9.635 -2.3475 8.645 -2.6875 7.625 C-3.3475 7.625 -4.0075 7.625 -4.6875 7.625 C-4.6875 6.965 -4.6875 6.305 -4.6875 5.625 C-5.6775 5.625 -6.6675 5.625 -7.6875 5.625 C-6.02612914 1.79106724 -4.59035464 -0.6405146 0 0 Z " fill="#3D3A37" transform="translate(84.6875,85.375)"/>
<path d="M0 0 C0.99 0.33 1.98 0.66 3 1 C2.67 1.61875 2.34 2.2375 2 2.875 C0.85806765 4.91018344 0.85806765 4.91018344 1 7 C1 7.99 1 8.98 1 10 C0.34 10 -0.32 10 -1 10 C-1.33 9.67 -1.66 9.34 -2 9 C-2 9.99 -2 10.98 -2 12 C-1.01 12.33 -0.02 12.66 1 13 C0.34 13 -0.32 13 -1 13 C-0.67 14.32 -0.34 15.64 0 17 C-0.99 16.67 -1.98 16.34 -3 16 C-3.33 16.66 -3.66 17.32 -4 18 C-5.64251208 7.3236715 -5.64251208 7.3236715 -2 2 C-1.34 1.34 -0.68 0.68 0 0 Z " fill="#23221F" transform="translate(44,33)"/>
<path d="M0 0 C2.875 -0.125 2.875 -0.125 6 0 C6.66 0.66 7.32 1.32 8 2 C7.2890625 3.953125 7.2890625 3.953125 6 6 C3.8359375 6.609375 3.8359375 6.609375 1.375 6.75 C0.55773438 6.80671875 -0.25953125 6.8634375 -1.1015625 6.921875 C-1.72804687 6.94765625 -2.35453125 6.9734375 -3 7 C-3.33 5.68 -3.66 4.36 -4 3 C-2.68 2.67 -1.36 2.34 0 2 C0 1.34 0 0.68 0 0 Z " fill="#353734" transform="translate(34,92)"/>
<path d="M0 0 C2.99536702 1.02698298 5.07651402 2.06158445 7.5625 4.0625 C9.86143125 5.88985561 11.15122727 6.5779596 14 7 C14 6.34 14 5.68 14 5 C13.34 5 12.68 5 12 5 C12.33 3.35 12.66 1.7 13 0 C15.475 0.495 15.475 0.495 18 1 C16.33333333 6 16.33333333 6 15 8 C12.03556447 9.12167831 10.38414761 9.09827032 7.3125 8.3125 C4.69720287 6.82814217 4.01940388 5.7801924 3 3 C1.35 3 -0.3 3 -2 3 C-1.34 2.01 -0.68 1.02 0 0 Z " fill="#383626" transform="translate(67,22)"/>
<path d="M0 0 C0.99 0.33 1.98 0.66 3 1 C3.66 0.67 4.32 0.34 5 0 C5 0.66 5 1.32 5 2 C6.65 2 8.3 2 10 2 C10.33 2.66 10.66 3.32 11 4 C9.68 4 8.36 4 7 4 C6.67 5.32 6.34 6.64 6 8 C6.66 8 7.32 8 8 8 C8 8.66 8 9.32 8 10 C5.8125 9.9375 5.8125 9.9375 3 9 C1.06842043 6.8282781 -0.48201687 4.47398953 -2 2 C-1.34 2 -0.68 2 0 2 C0 1.34 0 0.68 0 0 Z " fill="#89877A" transform="translate(73,19)"/>
<path d="M0 0 C0.33 0 0.66 0 1 0 C1.19406478 1.64507218 1.38007935 3.29109594 1.5625 4.9375 C1.66691406 5.85402344 1.77132812 6.77054688 1.87890625 7.71484375 C1.91886719 8.46894531 1.95882812 9.22304688 2 10 C1.67 10.33 1.34 10.66 1 11 C0.63837971 12.32594105 0.30271961 13.65938457 0 15 C-0.99 14.34 -1.98 13.68 -3 13 C-3.99 13 -4.98 13 -6 13 C-6 9 -6 9 -4.125 7.0625 C-3.42375 6.381875 -2.7225 5.70125 -2 5 C-0.74563813 2.36777038 -0.74563813 2.36777038 0 0 Z " fill="#EAE8D9" transform="translate(95,51)"/>
<path d="M0 0 C1.70884005 1.62339805 3.37446717 3.29319053 5 5 C5 5.66 5 6.32 5 7 C4.34 7 3.68 7 3 7 C2.34 9.31 1.68 11.62 1 14 C0.67 14 0.34 14 0 14 C0 12.35 0 10.7 0 9 C-0.66 9 -1.32 9 -2 9 C-2.66 7.68 -3.32 6.36 -4 5 C-3.34 5 -2.68 5 -2 5 C-1.34 3.35 -0.68 1.7 0 0 Z " fill="#FBF9E4" transform="translate(98,27)"/>
<path d="M0 0 C0.66 1.32 1.32 2.64 2 4 C2.66 4 3.32 4 4 4 C4 4.66 4 5.32 4 6 C4.66 6.33 5.32 6.66 6 7 C4 9 2 11 0 13 C0 12.01 0 11.02 0 10 C-0.99 9.67 -1.98 9.34 -3 9 C-3.33 8.01 -3.66 7.02 -4 6 C-3.34 5.01 -2.68 4.02 -2 3 C-1.34 3 -0.68 3 0 3 C0 2.01 0 1.02 0 0 Z " fill="#F4F2D9" transform="translate(28,26)"/>
<path d="M0 0 C0 1.65 0 3.3 0 5 C0.66 5 1.32 5 2 5 C2.33 5.66 2.66 6.32 3 7 C3.33 4.69 3.66 2.38 4 0 C4.66 0.33 5.32 0.66 6 1 C6.4140625 3.06640625 6.4140625 3.06640625 6.625 5.5625 C6.69976562 6.38878906 6.77453125 7.21507812 6.8515625 8.06640625 C6.90054688 8.70449219 6.94953125 9.34257813 7 10 C4.125 10.1875 4.125 10.1875 1 10 C0.34 9.01 -0.32 8.02 -1 7 C-1.99 6.67 -2.98 6.34 -4 6 C-4 3 -4 3 -2.5625 1.3125 C-1 0 -1 0 0 0 Z " fill="#7D7A6E" transform="translate(89,40)"/>
<path d="M0 0 C0.99 0.33 1.98 0.66 3 1 C4.37407134 3.85384047 3.95284958 5.1634548 3.0625 8.25 C2.711875 9.1575 2.36125 10.065 2 11 C-0.475 10.01 -0.475 10.01 -3 9 C-2.44271087 5.65626525 -1.64826111 2.96687001 0 0 Z " fill="#464646" transform="translate(52,48)"/>
<path d="M0 0 C1.32 0 2.64 0 4 0 C4.33 1.98 4.66 3.96 5 6 C4.34 6 3.68 6 3 6 C2.67 7.32 2.34 8.64 2 10 C1.67 9.34 1.34 8.68 1 8 C0.01 7.67 -0.98 7.34 -2 7 C-1.125 1.125 -1.125 1.125 0 0 Z " fill="#F3F0D3" transform="translate(8,34)"/>
<path d="M0 0 C0 0.33 0 0.66 0 1 C-1.65 1.33 -3.3 1.66 -5 2 C-4.67 2.99 -4.34 3.98 -4 5 C-9.52677733 5.19392201 -13.75614911 4.7479503 -19 3 C-19 2.67 -19 2.34 -19 2 C-12.56971459 0.67611771 -6.5705166 -0.24794402 0 0 Z " fill="#DAD2BA" transform="translate(60,104)"/>
<path d="M0 0 C-0.99 0.66 -1.98 1.32 -3 2 C-3.33 2.99 -3.66 3.98 -4 5 C-6.64 5 -9.28 5 -12 5 C-12.33 4.01 -12.66 3.02 -13 2 C-13.66 1.67 -14.32 1.34 -15 1 C-13.0641649 0.63684334 -11.12624752 0.28477269 -9.1875 -0.0625 C-8.10855469 -0.25972656 -7.02960937 -0.45695312 -5.91796875 -0.66015625 C-3 -1 -3 -1 0 0 Z " fill="#E8E0C7" transform="translate(68,104)"/>
<path d="M0 0 C2.375 0.25 2.375 0.25 5 1 C6.3125 3.0625 6.3125 3.0625 7 5 C4.03 7.475 4.03 7.475 1 10 C-0.60725635 6.78548731 -0.05748185 3.56387464 0 0 Z " fill="#A09689" transform="translate(47,17)"/>
<path d="M0 0 C4.60272162 1.77027754 7.7129243 3.18699218 11 7 C9.68 6.67 8.36 6.34 7 6 C6.67 7.32 6.34 8.64 6 10 C4.35 9.67 2.7 9.34 1 9 C1.33 6.69 1.66 4.38 2 2 C1.34 2 0.68 2 0 2 C0 1.34 0 0.68 0 0 Z " fill="#D6CDB7" transform="translate(76,7)"/>
<path d="M0 0 C0.33 0.99 0.66 1.98 1 3 C2.32 3 3.64 3 5 3 C7.125 8.625 7.125 8.625 6 12 C3.36 11.67 0.72 11.34 -2 11 C-2 10.67 -2 10.34 -2 10 C0.31 10 2.62 10 5 10 C4.67 9.01 4.34 8.02 4 7 C2.68 7 1.36 7 0 7 C-0.38133299 5.0085944 -0.71325582 3.00720923 -1 1 C-0.67 0.67 -0.34 0.34 0 0 Z " fill="#535351" transform="translate(68,52)"/>
<path d="M0 0 C1.43088528 2.86177057 0.59991697 4.93375773 0 8 C-1.1446875 7.9071875 -1.1446875 7.9071875 -2.3125 7.8125 C-5.00101736 7.74913551 -5.00101736 7.74913551 -6.6875 9.3125 C-7.86213226 10.82274148 -8.93871047 12.4080657 -10 14 C-10.33 13.01 -10.66 12.02 -11 11 C-9.54540569 9.35086118 -8.08620743 7.70578218 -6.625 6.0625 C-5.81289063 5.14597656 -5.00078125 4.22945312 -4.1640625 3.28515625 C-2 1 -2 1 0 0 Z " fill="#45413D" transform="translate(49,26)"/>
<path d="M0 0 C1.134375 0.020625 2.26875 0.04125 3.4375 0.0625 C3.5625 2.4375 3.5625 2.4375 3.4375 5.0625 C1.07796906 7.42203094 -0.34145617 7.55391413 -3.5625 8.0625 C-3.94313221 5.7364143 -4.27519945 3.40194736 -4.5625 1.0625 C-3.5625 0.0625 -3.5625 0.0625 0 0 Z " fill="#686964" transform="translate(40.5625,71.9375)"/>
<path d="M0 0 C0.99 0.495 0.99 0.495 2 1 C2 1.99 2 2.98 2 4 C2.66 4 3.32 4 4 4 C4.99 5.485 4.99 5.485 6 7 C7.89768759 7.99530794 7.89768759 7.99530794 10 8 C11.77190909 6.64555699 11.77190909 6.64555699 13 5 C13 7.31 13 9.62 13 12 C11.39253944 11.57476184 9.78910164 11.13429874 8.1875 10.6875 C7.29417969 10.44386719 6.40085937 10.20023438 5.48046875 9.94921875 C2.9014064 8.96227048 1.64093445 8.20230677 0 6 C-0.1875 2.8125 -0.1875 2.8125 0 0 Z " fill="#1F1F1E" transform="translate(44,50)"/>
<path d="M0 0 C0.66 0.33 1.32 0.66 2 1 C2 1.99 2 2.98 2 4 C2.66 4 3.32 4 4 4 C4 3.34 4 2.68 4 2 C4.99 2 5.98 2 7 2 C7 3.65 7 5.3 7 7 C3.625 7.1875 3.625 7.1875 0 7 C-0.66 6.01 -1.32 5.02 -2 4 C-2.66 4.66 -3.32 5.32 -4 6 C-4 4.68 -4 3.36 -4 2 C-2.125 0.9375 -2.125 0.9375 0 0 Z " fill="#76756D" transform="translate(87,49)"/>
<path d="M0 0 C2.475 0.99 2.475 0.99 5 2 C5 5.96 5 9.92 5 14 C4.34 14 3.68 14 3 14 C2 7.25 2 7.25 2 5 C0.68 4.67 -0.64 4.34 -2 4 C-2 3.34 -2 2.68 -2 2 C-1.34 2 -0.68 2 0 2 C0 1.34 0 0.68 0 0 Z " fill="#6A6A68" transform="translate(54,74)"/>
<path d="M0 0 C0.99 0.99 1.98 1.98 3 3 C1.125 8.75 1.125 8.75 0 11 C-0.23029956 13.37123246 -0.41119942 15.74741943 -0.5625 18.125 C-0.64628906 19.40632813 -0.73007813 20.68765625 -0.81640625 22.0078125 C-0.90728516 23.48894531 -0.90728516 23.48894531 -1 25 C-1.33 25 -1.66 25 -2 25 C-2.05455124 22.33305052 -2.09393392 19.66724502 -2.125 17 C-2.14175781 16.25621094 -2.15851563 15.51242188 -2.17578125 14.74609375 C-2.22144715 9.49451557 -1.45712451 5.0483054 0 0 Z " fill="#E1D6B7" transform="translate(5,39)"/>
<path d="M0 0 C0 0.99 0 1.98 0 3 C1.32 3.33 2.64 3.66 4 4 C-2.435 4.495 -2.435 4.495 -9 5 C-8.67 3.68 -8.34 2.36 -8 1 C-5.07175348 0.02391783 -3.04386724 -0.08226668 0 0 Z " fill="#73716F" transform="translate(54,98)"/>
<path d="M0 0 C0 1.98 0 3.96 0 6 C0.99 6.33 1.98 6.66 3 7 C3 7.99 3 8.98 3 10 C1.68 9.67 0.36 9.34 -1 9 C-1 8.34 -1 7.68 -1 7 C-2.32 6.67 -3.64 6.34 -5 6 C-5 3 -5 3 -3.625 1.3125 C-2 0 -2 0 0 0 Z " fill="#363634" transform="translate(49,34)"/>
<path d="M0 0 C0 1.32 0 2.64 0 4 C-2.1875 5.4375 -2.1875 5.4375 -5 7 C-6.7041054 8.62836738 -8.38025441 10.28769752 -10 12 C-8.50163895 8.88801935 -6.80066242 5.9465385 -5 3 C-6.32 3.33 -7.64 3.66 -9 4 C-5.86025155 0.71753571 -4.76763047 0 0 0 Z " fill="#3C3B34" transform="translate(27,48)"/>
<path d="M0 0 C0.91007812 0.00902344 1.82015625 0.01804687 2.7578125 0.02734375 C3.80582031 0.04474609 3.80582031 0.04474609 4.875 0.0625 C4.875 0.7225 4.875 1.3825 4.875 2.0625 C-3.46832544 3.25440363 -11.71823022 3.15533549 -20.125 3.0625 C-20.125 2.7325 -20.125 2.4025 -20.125 2.0625 C-19.20976563 2.00191406 -18.29453125 1.94132812 -17.3515625 1.87890625 C-15.56878906 1.75322266 -15.56878906 1.75322266 -13.75 1.625 C-12.56664062 1.54378906 -11.38328125 1.46257812 -10.1640625 1.37890625 C-6.48146553 0.99549962 -3.80830089 -0.04882437 0 0 Z " fill="#403E39" transform="translate(56.125,101.9375)"/>
<path d="M0 0 C0.33 1.32 0.66 2.64 1 4 C-1.375 5.0625 -1.375 5.0625 -4 6 C-4.66 5.67 -5.32 5.34 -6 5 C-6 3.35 -6 1.7 -6 0 C-3.50907189 -1.24546405 -2.58919267 -0.7767578 0 0 Z " fill="#96896A" transform="translate(71,25)"/>
<path d="M0 0 C1 2 1 2 1 5 C-0.5 6.6875 -0.5 6.6875 -2 8 C-2.33 7.34 -2.66 6.68 -3 6 C-4.11375 6.680625 -5.2275 7.36125 -6.375 8.0625 C-8.2734375 9.22265625 -8.2734375 9.22265625 -10 10 C-10.66 9.67 -11.32 9.34 -12 9 C-8.04 6.03 -4.08 3.06 0 0 Z " fill="#B5AE8D" transform="translate(95,91)"/>
<path d="M0 0 C0.99 0.33 1.98 0.66 3 1 C2.01 1.33 1.02 1.66 0 2 C0.33 5.3 0.66 8.6 1 12 C1.66 12 2.32 12 3 12 C3 12.66 3 13.32 3 14 C0.525 13.01 0.525 13.01 -2 12 C-2.05395478 10.37536158 -2.09277195 8.75021459 -2.125 7.125 C-2.14820313 6.22007813 -2.17140625 5.31515625 -2.1953125 4.3828125 C-2 2 -2 2 0 0 Z " fill="#232120" transform="translate(51,28)"/>
<path d="M0 0 C1.32 0 2.64 0 4 0 C4.36923077 7.50769231 4.36923077 7.50769231 2.5 10 C2.005 10.33 1.51 10.66 1 11 C0.34 10.67 -0.32 10.34 -1 10 C-1 9.34 -1 8.68 -1 8 C-1.020625 7.01 -1.04125 6.02 -1.0625 5 C-1 2 -1 2 0 0 Z " fill="#34352F" transform="translate(70,80)"/>
<path d="M0 0 C0.66 0 1.32 0 2 0 C2.75 2.125 2.75 2.125 3 5 C1.0625 8.3125 1.0625 8.3125 -1 11 C-2.32 9.68 -3.64 8.36 -5 7 C-4.01 6.67 -3.02 6.34 -2 6 C-0.77479736 2.99152582 -0.77479736 2.99152582 0 0 Z " fill="#333431" transform="translate(61,64)"/>
<path d="M0 0 C-0.33 1.65 -0.66 3.3 -1 5 C-6.625 5.25 -6.625 5.25 -10 3 C-10 2.34 -10 1.68 -10 1 C-3.375 0 -3.375 0 0 0 Z " fill="#4E4E4D" transform="translate(66,57)"/>
<path d="M0 0 C-0.33 0.99 -0.66 1.98 -1 3 C-1.66 3 -2.32 3 -3 3 C-3.66 4.32 -4.32 5.64 -5 7 C-5.99 7 -6.98 7 -8 7 C-8.66 6.34 -9.32 5.68 -10 5 C-4.5 0 -4.5 0 0 0 Z " fill="#F6EDD3" transform="translate(30,12)"/>
<path d="M0 0 C0.99 0.33 1.98 0.66 3 1 C3.75 2.9375 3.75 2.9375 4 5 C3.67 5.66 3.34 6.32 3 7 C2.01 7 1.02 7 0 7 C0.33 7.99 0.66 8.98 1 10 C0.34 10 -0.32 10 -1 10 C-0.938125 10.78375 -0.87625 11.5675 -0.8125 12.375 C-0.874375 13.24125 -0.93625 14.1075 -1 15 C-1.99 15.66 -2.98 16.32 -4 17 C-2.68 11.39 -1.36 5.78 0 0 Z " fill="#AF9D78" transform="translate(108,62)"/>
<path d="M0 0 C0.433125 0.9590625 0.433125 0.9590625 0.875 1.9375 C1.82823451 4.15206079 1.82823451 4.15206079 4 5 C4 5.99 4 6.98 4 8 C3.34 8 2.68 8 2 8 C2 9.32 2 10.64 2 12 C1.34 12 0.68 12 0 12 C-0.39063507 10.56666979 -0.76198474 9.12807321 -1.125 7.6875 C-1.33382813 6.88699219 -1.54265625 6.08648437 -1.7578125 5.26171875 C-2 3 -2 3 0 0 Z " fill="#A99673" transform="translate(4,68)"/>
<path d="M0 0 C1.65 0 3.3 0 5 0 C5.061875 0.61875 5.12375 1.2375 5.1875 1.875 C5.455625 2.57625 5.72375 3.2775 6 4 C7.64551962 4.71727778 9.31422289 5.38325228 11 6 C11.99 7.485 11.99 7.485 13 9 C3.12761506 6.21548117 3.12761506 6.21548117 0 2 C0 1.34 0 0.68 0 0 Z " fill="#6B6A5E" transform="translate(61,16)"/>
<path d="M0 0 C3.22290201 0.0289309 5.44294723 0.35779815 8.1875 2.1875 C7.1975 2.1875 6.2075 2.1875 5.1875 2.1875 C5.1875 2.8475 5.1875 3.5075 5.1875 4.1875 C-1.4375 3.4375 -1.4375 3.4375 -4.8125 1.1875 C-3.8125 0.1875 -3.8125 0.1875 0 0 Z " fill="#A5926B" transform="translate(39.8125,106.8125)"/>
<path d="M0 0 C0.66 0 1.32 0 2 0 C2 0.66 2 1.32 2 2 C3.65 2.33 5.3 2.66 7 3 C5.35 4.65 3.7 6.3 2 8 C1.01 7.67 0.02 7.34 -1 7 C-2 4 -2 4 -1.0625 1.8125 C-0.5365625 0.9153125 -0.5365625 0.9153125 0 0 Z " fill="#4C4C49" transform="translate(37,52)"/>
<path d="M0 0 C-0.33 1.98 -0.66 3.96 -1 6 C-3.64 6 -6.28 6 -9 6 C-9 5.34 -9 4.68 -9 4 C-2.25 0 -2.25 0 0 0 Z " fill="#565655" transform="translate(66,49)"/>
<path d="M0 0 C1.32 0.99 2.64 1.98 4 3 C3.67 4.32 3.34 5.64 3 7 C2.34 6.67 1.68 6.34 1 6 C-0.99960012 5.960008 -3.00047242 5.95653201 -5 6 C-3.63016497 2.83884224 -3.0109362 2.0072908 0 0 Z " fill="#7E7D79" transform="translate(79,35)"/>
<path d="M0 0 C3.3 0.33 6.6 0.66 10 1 C10.33 1.99 10.66 2.98 11 4 C10 5 10 5 7.625 5.0625 C6.75875 5.041875 5.8925 5.02125 5 5 C4.01 5 3.02 5 2 5 C2 4.01 2 3.02 2 2 C1.34 2 0.68 2 0 2 C0 1.34 0 0.68 0 0 Z " fill="#B2AFA5" transform="translate(73,16)"/>
<path d="M0 0 C0 0.66 0 1.32 0 2 C1.32 2.33 2.64 2.66 4 3 C-0.96073422 4.32286246 -5.91111512 4.08893197 -11 4 C-7.32740617 1.55160412 -4.45351799 0 0 0 Z " fill="#55564E" transform="translate(75,99)"/>
<path d="M0 0 C2.31 0.66 4.62 1.32 7 2 C6.67 2.99 6.34 3.98 6 5 C3.36 5 0.72 5 -2 5 C-2 4.01 -2 3.02 -2 2 C-1.34 2 -0.68 2 0 2 C0 1.34 0 0.68 0 0 Z " fill="#272825" transform="translate(67,64)"/>
<path d="M0 0 C0.99 0.33 1.98 0.66 3 1 C3 2.32 3 3.64 3 5 C2.34 5 1.68 5 1 5 C0.67 7.64 0.34 10.28 0 13 C-0.66 13 -1.32 13 -2 13 C-1.85915204 11.20793453 -1.71216299 9.41635083 -1.5625 7.625 C-1.48128906 6.62726562 -1.40007812 5.62953125 -1.31640625 4.6015625 C-1 2 -1 2 0 0 Z " fill="#53524E" transform="translate(81,43)"/>
<path d="M0 0 C1.91384609 3.50871784 2.04276246 4.81367786 1.125 8.8125 C0.75375 9.864375 0.3825 10.91625 0 12 C-0.33 12 -0.66 12 -1 12 C-1.33 9.03 -1.66 6.06 -2 3 C-2.99 3 -3.98 3 -5 3 C-5 2.34 -5 1.68 -5 1 C-2 0 -2 0 0 0 Z " fill="#696A67" transform="translate(43,80)"/>
<path d="M0 0 C1.32 0.33 2.64 0.66 4 1 C3.690625 1.598125 3.38125 2.19625 3.0625 2.8125 C1.89790296 5.08956772 1.89790296 5.08956772 1 8 C0.34 7.67 -0.32 7.34 -1 7 C-0.67 6.34 -0.34 5.68 0 5 C-2.64 4.34 -5.28 3.68 -8 3 C-4.71023192 1.90341064 -3.28696233 2.20046862 0 3 C0 2.01 0 1.02 0 0 Z " fill="#3A3A37" transform="translate(74,61)"/>
<path d="M0 0 C1.32 0.33 2.64 0.66 4 1 C4 1.99 4 2.98 4 4 C4.99 4.33 5.98 4.66 7 5 C6.34 5 5.68 5 5 5 C5.33 6.32 5.66 7.64 6 9 C5.01 8.67 4.02 8.34 3 8 C2.67 8.66 2.34 9.32 2 10 C1.855625 8.906875 1.71125 7.81375 1.5625 6.6875 C1.11711896 3.06877013 1.11711896 3.06877013 0 0 Z " fill="#141310" transform="translate(38,41)"/>
<path d="M0 0 C3.34373475 0.55728913 6.03312999 1.35173889 9 3 C9 3.99 9 4.98 9 6 C9.66 6.33 10.32 6.66 11 7 C5.95904225 6.55520961 3.58884285 4.33845847 0 1 C0 0.67 0 0.34 0 0 Z " fill="#323232" transform="translate(48,59)"/>
<path d="M0 0 C0.66 0 1.32 0 2 0 C2 0.99 2 1.98 2 3 C2.99 3.33 3.98 3.66 5 4 C4.67 4.99 4.34 5.98 4 7 C4.66 7 5.32 7 6 7 C6 7.66 6 8.32 6 9 C4.02 9 2.04 9 0 9 C0.185625 8.2575 0.37125 7.515 0.5625 6.75 C0.99203108 4.05009037 0.85122974 2.55368923 0 0 Z " fill="#757572" transform="translate(45,77)"/>
<path d="M0 0 C7.39495798 -0.3697479 7.39495798 -0.3697479 10.25 1.375 C10.8275 1.91125 11.405 2.4475 12 3 C13.31836295 3.69580267 14.64791086 4.37224433 16 5 C14.3125 5.6875 14.3125 5.6875 12 6 C10.30963442 5.04060332 8.64605826 4.03357147 7 3 C4.68308546 2.27833809 2.35151077 1.59940471 0 1 C0 0.67 0 0.34 0 0 Z " fill="#333331" transform="translate(43,64)"/>
<path d="M0 0 C1.65 0 3.3 0 5 0 C5 0.66 5 1.32 5 2 C5.99 2 6.98 2 8 2 C8 2.99 8 3.98 8 5 C1.25 4.125 1.25 4.125 -1 3 C-0.67 2.01 -0.34 1.02 0 0 Z " fill="#42413D" transform="translate(73,40)"/>
<path d="M0 0 C3.33864404 0.57562828 4.69102632 1.59063616 7 4 C7.99 4.33 8.98 4.66 10 5 C9.67 6.32 9.34 7.64 9 9 C4.98221628 7.66073876 4.21976152 5.50865531 2 2 C1.34 1.34 0.68 0.68 0 0 Z " fill="#3A3731" transform="translate(78,34)"/>
<path d="M0 0 C0.33 0 0.66 0 1 0 C1.33 3.3 1.66 6.6 2 10 C1.01 10 0.02 10 -1 10 C-1.99 10.495 -1.99 10.495 -3 11 C-1.125 3.375 -1.125 3.375 0 0 Z " fill="#F4F2E4" transform="translate(95,51)"/>
<path d="M0 0 C1.77503906 0.03480469 1.77503906 0.03480469 3.5859375 0.0703125 C5.36871094 0.09738281 5.36871094 0.09738281 7.1875 0.125 C8.10273437 0.14820312 9.01796875 0.17140625 9.9609375 0.1953125 C9.9609375 0.5253125 9.9609375 0.8553125 9.9609375 1.1953125 C8.21308921 1.55994982 6.46253248 1.9116203 4.7109375 2.2578125 C3.24914062 2.55365234 3.24914062 2.55365234 1.7578125 2.85546875 C-0.9071815 3.17928785 -2.52777973 3.05034449 -5.0390625 2.1953125 C-3.0390625 0.1953125 -3.0390625 0.1953125 0 0 Z " fill="#8F826A" transform="translate(37.0390625,104.8046875)"/>
<path d="M0 0 C2.0625 0.4375 2.0625 0.4375 4 1 C4 1.66 4 2.32 4 3 C4.66 3.33 5.32 3.66 6 4 C2.535 5.485 2.535 5.485 -1 7 C-1.04254356 5.00045254 -1.04080783 2.99958364 -1 1 C-0.67 0.67 -0.34 0.34 0 0 Z " fill="#EEEEE2" transform="translate(75,79)"/>
<path d="M0 0 C0.66 2.64 1.32 5.28 2 8 C0.35 7.67 -1.3 7.34 -3 7 C-3 5.68 -3 4.36 -3 3 C-3.66 2.34 -4.32 1.68 -5 1 C-1.125 0 -1.125 0 0 0 Z " fill="#A8A490" transform="translate(86,24)"/>
<path d="M0 0 C0.66 0 1.32 0 2 0 C2 0.66 2 1.32 2 2 C2.99 1.67 3.98 1.34 5 1 C4.67 2.32 4.34 3.64 4 5 C2.02 5.33 0.04 5.66 -2 6 C-1.34 4.02 -0.68 2.04 0 0 Z " fill="#494845" transform="translate(56,25)"/>
<path d="M0 0 C3.96 0 7.92 0 12 0 C10.68 1.65 9.36 3.3 8 5 C7.608125 4.525625 7.21625 4.05125 6.8125 3.5625 C4.59191626 1.64820367 2.86624291 1.38733012 0 1 C0 0.67 0 0.34 0 0 Z " fill="#676655" transform="translate(46,16)"/>
<path d="M0 0 C0.33 1.32 0.66 2.64 1 4 C1.66 4 2.32 4 3 4 C3.33 2.68 3.66 1.36 4 0 C4.99 0.66 5.98 1.32 7 2 C7 2.66 7 3.32 7 4 C5.02 4.66 3.04 5.32 1 6 C0.34 5.34 -0.32 4.68 -1 4 C-0.625 1.875 -0.625 1.875 0 0 Z " fill="#696966" transform="translate(75,56)"/>
<path d="M0 0 C0 0.99 0 1.98 0 3 C-2.64 3 -5.28 3 -8 3 C-7.67 2.01 -7.34 1.02 -7 0 C-4.3333581 -1.33332095 -2.83319697 -0.67102033 0 0 Z " fill="#383931" transform="translate(83,98)"/>
<path d="M0 0 C3.3 0.99 6.6 1.98 10 3 C8.68 3.33 7.36 3.66 6 4 C5.154375 4.226875 4.30875 4.45375 3.4375 4.6875 C1 5 1 5 -2 3 C-1.34 2.01 -0.68 1.02 0 0 Z " fill="#AB9975" transform="translate(70,1)"/>
<path d="M0 0 C0.66 0.33 1.32 0.66 2 1 C1.67 1.99 1.34 2.98 1 4 C-2.3 4 -5.6 4 -9 4 C-9 3.34 -9 2.68 -9 2 C-6.69 2.33 -4.38 2.66 -2 3 C-2 2.34 -2 1.68 -2 1 C-1.34 0.67 -0.68 0.34 0 0 Z " fill="#555754" transform="translate(44,99)"/>
<path d="M0 0 C0.5625 1.9375 0.5625 1.9375 1 4 C0 5 0 5 -3.0625 5.0625 C-4.5165625 5.0315625 -4.5165625 5.0315625 -6 5 C-6 4.34 -6 3.68 -6 3 C-2.53846154 0 -2.53846154 0 0 0 Z " fill="#302C2A" transform="translate(35,43)"/>
<path d="M0 0 C2.475 0.99 2.475 0.99 5 2 C4.01 2.99 3.02 3.98 2 5 C2.99 5.66 3.98 6.32 5 7 C4.01 7.495 4.01 7.495 3 8 C0.375 6.6875 0.375 6.6875 -2 5 C-2 3 -2 3 0 1 C0 0.67 0 0.34 0 0 Z " fill="#4B4A44" transform="translate(74,29)"/>
<path d="M0 0 C0.66 0.66 1.32 1.32 2 2 C4.65537372 2.56520003 7.29144713 2.73788198 10 3 C10 3.33 10 3.66 10 4 C5.71 4 1.42 4 -3 4 C-3.33 3.34 -3.66 2.68 -4 2 C-2.68 2 -1.36 2 0 2 C0 1.34 0 0.68 0 0 Z " fill="#212019" transform="translate(29,96)"/>
<path d="M0 0 C0.66 0.33 1.32 0.66 2 1 C2 1.99 2 2.98 2 4 C2.66 4.33 3.32 4.66 4 5 C3.34 5.66 2.68 6.32 2 7 C-0.625 6.625 -0.625 6.625 -3 6 C-2.34 5.34 -1.68 4.68 -1 4 C-0.3574765 1.93125966 -0.3574765 1.93125966 0 0 Z " fill="#676762" transform="translate(51,89)"/>
<path d="M0 0 C0.99 0 1.98 0 3 0 C3.6875 2.25 3.6875 2.25 4 5 C2.5625 7.3125 2.5625 7.3125 1 9 C-0.61949011 6.42786866 -1.04408751 5.32330841 -0.625 2.25 C-0.41875 1.5075 -0.2125 0.765 0 0 Z " fill="#ABAA98" transform="translate(91,36)"/>
<path d="M0 0 C1.5 1.1875 1.5 1.1875 3 3 C3.1875 5.6875 3.1875 5.6875 3 8 C2.01 7.67 1.02 7.34 0 7 C-1.17755913 4.05610218 -1.03348696 3.10046087 0 0 Z " fill="#9B9061" transform="translate(104,27)"/>
<path d="M0 0 C1.65 0.33 3.3 0.66 5 1 C4.67 1.99 4.34 2.98 4 4 C2.35 4.33 0.7 4.66 -1 5 C-0.67 3.35 -0.34 1.7 0 0 Z " fill="#585443" transform="translate(80,22)"/>
<path d="M0 0 C0.86625 0.3403125 0.86625 0.3403125 1.75 0.6875 C-2.75 4.6875 -2.75 4.6875 -7.25 4.6875 C-5.66298601 1.51347201 -3.66577204 -0.50913501 0 0 Z " fill="#4C4C43" transform="translate(79.25,84.3125)"/>
<path d="M0 0 C0.99 0 1.98 0 3 0 C3 1.65 3 3.3 3 5 C3.66 5 4.32 5 5 5 C4.67 6.32 4.34 7.64 4 9 C1.49701566 6.06171403 0.53069061 3.82097239 0 0 Z " fill="#3F3F3D" transform="translate(22,83)"/>
<path d="M0 0 C0.33 0 0.66 0 1 0 C1 2.97 1 5.94 1 9 C0.34 9 -0.32 9 -1 9 C-1.625 5.625 -1.625 5.625 -2 2 C-1.34 1.34 -0.68 0.68 0 0 Z " fill="#727270" transform="translate(58,79)"/>
<path d="M0 0 C0.66 0.33 1.32 0.66 2 1 C1.67 1.66 1.34 2.32 1 3 C2.32 3 3.64 3 5 3 C4.67 3.99 4.34 4.98 4 6 C2.35 5.67 0.7 5.34 -1 5 C-1 4.34 -1 3.68 -1 3 C-1.66 2.67 -2.32 2.34 -3 2 C-2.01 1.34 -1.02 0.68 0 0 Z " fill="#7F776B" transform="translate(77,12)"/>
<path d="M0 0 C1.9375 0.3125 1.9375 0.3125 4 1 C4.33 1.99 4.66 2.98 5 4 C3.02 4 1.04 4 -1 4 C-0.67 2.68 -0.34 1.36 0 0 Z " fill="#676664" transform="translate(46,99)"/>
<path d="M0 0 C0.66 0.33 1.32 0.66 2 1 C1.01 3.97 0.02 6.94 -1 10 C-1.66 8.68 -2.32 7.36 -3 6 C-1.625 2.75 -1.625 2.75 0 0 Z " fill="#E4DFCD" transform="translate(8,65)"/>
<path d="M0 0 C4.41889613 1.35021826 6.34345343 3.26115668 9 7 C5.07353523 5.69117841 2.72225079 4.1255472 0 1 C0 0.67 0 0.34 0 0 Z " fill="#5C5C5B" transform="translate(48,61)"/>
<path d="M0 0 C0 3.69418201 -1.28179295 5.77836178 -3 9 C-3.99 8.34 -4.98 7.68 -6 7 C-4.02 4.69 -2.04 2.38 0 0 Z " fill="#292927" transform="translate(24,52)"/>
<path d="M0 0 C0.99 0.33 1.98 0.66 3 1 C2.67 2.65 2.34 4.3 2 6 C2.66 6 3.32 6 4 6 C3.67 6.66 3.34 7.32 3 8 C2.01 7.67 1.02 7.34 0 7 C0.33 5.68 0.66 4.36 1 3 C0.34 2.67 -0.32 2.34 -1 2 C-0.67 1.34 -0.34 0.68 0 0 Z " fill="#67625B" transform="translate(85,32)"/>
<path d="M0 0 C2.475 0.99 2.475 0.99 5 2 C4.67 2.99 4.34 3.98 4 5 C2.35 5 0.7 5 -1 5 C-0.67 3.35 -0.34 1.7 0 0 Z " fill="#F6F3E1" transform="translate(51,11)"/>
<path d="M0 0 C1.98 0 3.96 0 6 0 C6 0.99 6 1.98 6 3 C5.34 3.66 4.68 4.32 4 5 C2.68 3.35 1.36 1.7 0 0 Z " fill="#A69A73" transform="translate(89,14)"/>
<path d="M0 0 C0.33 1.32 0.66 2.64 1 4 C-0.65 4 -2.3 4 -4 4 C-4.33 3.01 -4.66 2.02 -5 1 C-3 0 -3 0 0 0 Z " fill="#2A2D2A" transform="translate(36,95)"/>
</svg>
