<?xml version="1.0" encoding="UTF-8"?>
<svg version="1.1" xmlns="http://www.w3.org/2000/svg" width="112" height="112">
<path d="M0 0 C1.50292321 1.13589918 2.98136883 2.30470624 4.4375 3.5 C5.42492187 4.27601562 6.41234375 5.05203125 7.4296875 5.8515625 C17.06008203 13.94371608 23.37638945 26.6814639 24.71533203 39.07080078 C25.91523716 55.98074196 23.43907236 70.09766079 12.4375 83.5 C11.66148438 84.48742187 10.88546875 85.47484375 10.0859375 86.4921875 C1.99378392 96.12258203 -10.7439639 102.43888945 -23.13330078 103.77783203 C-40.04324196 104.97773716 -54.16016079 102.50157236 -67.5625 91.5 C-69.04363281 90.33597656 -69.04363281 90.33597656 -70.5546875 89.1484375 C-80.18508203 81.05628392 -86.50138945 68.3185361 -87.84033203 55.92919922 C-89.04023716 39.01925804 -86.56407236 24.90233921 -75.5625 11.5 C-74.78648438 10.51257813 -74.01046875 9.52515625 -73.2109375 8.5078125 C-55.75628726 -12.2647997 -21.83894221 -14.78577273 0 0 Z " fill="#4C3F35" transform="translate(87.5625,8.5)"/>
<path d="M0 0 C1.50292321 1.13589918 2.98136883 2.30470624 4.4375 3.5 C5.42492187 4.27601562 6.41234375 5.05203125 7.4296875 5.8515625 C17.06008203 13.94371608 23.37638945 26.6814639 24.71533203 39.07080078 C25.91523716 55.98074196 23.43907236 70.09766079 12.4375 83.5 C11.66148438 84.48742187 10.88546875 85.47484375 10.0859375 86.4921875 C1.99378392 96.12258203 -10.7439639 102.43888945 -23.13330078 103.77783203 C-40.04324196 104.97773716 -54.16016079 102.50157236 -67.5625 91.5 C-69.04363281 90.33597656 -69.04363281 90.33597656 -70.5546875 89.1484375 C-80.18508203 81.05628392 -86.50138945 68.3185361 -87.84033203 55.92919922 C-89.04023716 39.01925804 -86.56407236 24.90233921 -75.5625 11.5 C-74.78648438 10.51257813 -74.01046875 9.52515625 -73.2109375 8.5078125 C-55.75628726 -12.2647997 -21.83894221 -14.78577273 0 0 Z M-46.53125 5.12890625 C-48.2936046 6.85979024 -49.95344094 8.62684006 -51.5625 10.5 C-49.92767195 12.8614183 -48.98454621 14.03312694 -46.5625 15.5 C-42.24586714 16.27062036 -37.93812683 16.35053807 -33.5625 16.5 C-31.78969115 16.66779672 -30.01828526 16.85232346 -28.25 17.0625 C-27.033125 17.206875 -25.81625 17.35125 -24.5625 17.5 C-24.0675 19.975 -24.0675 19.975 -23.5625 22.5 C-21.5825 22.17 -19.6025 21.84 -17.5625 21.5 C-17.5625 19.85 -17.5625 18.2 -17.5625 16.5 C-20.20988916 15.0393715 -21.45698334 14.5 -24.5625 14.5 C-24.5625 13.84 -24.5625 13.18 -24.5625 12.5 C-17.8125 14.125 -17.8125 14.125 -15.5625 17.5 C-15.9455153 20.46836854 -17.15833294 22.87888816 -18.5625 25.5 C-17.5725 26.49 -16.5825 27.48 -15.5625 28.5 C-19.9996721 29.57765373 -24.38386272 29.71674522 -28.92578125 29.81640625 C-30.11375557 29.8475779 -30.11375557 29.8475779 -31.32572937 29.87937927 C-33.84206928 29.94447804 -36.35850872 30.00357423 -38.875 30.0625 C-40.58659861 30.105723 -42.29818735 30.14933848 -44.00976562 30.19335938 C-48.19390984 30.30011847 -52.37815362 30.40149635 -56.5625 30.5 C-56.5625 31.16 -56.5625 31.82 -56.5625 32.5 C-57.449375 32.4175 -58.33625 32.335 -59.25 32.25 C-63.25258159 32.55208163 -64.69085434 33.79727467 -67.5625 36.5 C-67.29215366 38.93717258 -67.29215366 38.93717258 -66.5625 41.5 C-65.5725 42.16 -64.5825 42.82 -63.5625 43.5 C-63.81927589 45.25211782 -64.09352953 47.00167936 -64.375 48.75 C-64.52582031 49.72453125 -64.67664063 50.6990625 -64.83203125 51.703125 C-65.60137746 54.64885703 -66.71752975 56.13439431 -68.5625 58.5 C-68.5625 59.49 -68.5625 60.48 -68.5625 61.5 C-67.9025 61.5 -67.2425 61.5 -66.5625 61.5 C-68.02158238 71.04163084 -68.02158238 71.04163084 -70.75 75.375 C-72.79201506 78.18934397 -72.79201506 78.18934397 -72.35546875 80.48828125 C-69.41657206 87.94410291 -60.2893952 92.97056408 -53.5625 96.5 C-39.12256129 102.74628392 -24.10582517 101.67669507 -9.5625 96.5 C-3.10803274 93.2883193 2.9710011 89.20719304 7.4375 83.5 C7.37124728 80.58488023 6.72273361 79.07046723 5.4375 76.5 C4.84685428 69.65078131 5.37801998 64.61896004 8.4375 58.5 C9.12890522 55.72111387 9.12890522 55.72111387 9.4375 53.5 C10.0975 53.5 10.7575 53.5 11.4375 53.5 C11.1590625 52.1696875 11.1590625 52.1696875 10.875 50.8125 C10.45707516 47.64821189 10.62972258 45.55160358 11.4375 42.5 C9.9525 42.005 9.9525 42.005 8.4375 41.5 C8.664375 40.406875 8.89125 39.31375 9.125 38.1875 C9.76517007 34.67383651 9.76517007 34.67383651 8.375 32.5625 C5.70374129 31.09761619 3.43879525 31.43077067 0.4375 31.5 C0.31632812 30.69175781 0.19515625 29.88351563 0.0703125 29.05078125 C-0.09726563 27.98214844 -0.26484375 26.91351563 -0.4375 25.8125 C-0.59992188 24.75675781 -0.76234375 23.70101562 -0.9296875 22.61328125 C-1.52239164 19.69732324 -2.44941942 17.24528699 -3.5625 14.5 C-3.5625 13.51 -3.5625 12.52 -3.5625 11.5 C-6.60979537 7.47757011 -9.69305177 6.45792424 -14.5625 5.5 C-17.57183639 5.35624189 -20.55290768 5.3771595 -23.5625 5.5 C-23.5625 4.84 -23.5625 4.18 -23.5625 3.5 C-35.65229165 1.54171498 -35.65229165 1.54171498 -46.53125 5.12890625 Z " fill="#A4916A" transform="translate(87.5625,8.5)"/>
<path d="M0 0 C11.66081547 10.16239108 17.24579786 23.5537637 18.7265625 38.703125 C19.25027326 52.248833 15.46842993 64.75456423 6.37109375 75.06640625 C5.38109375 75.56140625 5.38109375 75.56140625 4.37109375 76.06640625 C0.80118634 70.562799 0.66876687 65.41507161 1.37109375 59.06640625 C2.1239349 56.48454717 3.1155741 54.48086711 4.37109375 52.06640625 C5.04386091 50.40219275 5.7131621 48.73654043 6.37109375 47.06640625 C7.03109375 47.06640625 7.69109375 47.06640625 8.37109375 47.06640625 C8.02046875 46.17953125 7.66984375 45.29265625 7.30859375 44.37890625 C6.35353773 41.00437499 6.39958243 39.36954473 7.37109375 36.06640625 C6.71109375 35.73640625 6.05109375 35.40640625 5.37109375 35.06640625 C5.41234375 33.95265625 5.45359375 32.83890625 5.49609375 31.69140625 C5.78231234 28.022746 5.78231234 28.022746 3.37109375 26.06640625 C1.38288062 25.66876362 -0.61834964 25.32865276 -2.62890625 25.06640625 C-4.38871977 20.2583443 -5.77650653 16.23241607 -5.62890625 11.06640625 C-6.57869522 8.91612321 -6.57869522 8.91612321 -7.62890625 7.06640625 C-7.62890625 6.40640625 -7.62890625 5.74640625 -7.62890625 5.06640625 C-10.14455225 1.51490601 -13.53921864 0.9898841 -17.62890625 0.06640625 C-20.62290971 -0.35246864 -23.61713448 -0.674076 -26.62890625 -0.93359375 C-26.62890625 -1.59359375 -26.62890625 -2.25359375 -26.62890625 -2.93359375 C-40.00157009 -3.97606066 -40.00157009 -3.97606066 -51.50390625 1.25390625 C-54.51064967 4.49295877 -54.95290945 6.72071255 -55.62890625 11.06640625 C-59.62310593 14.35052599 -62.96969861 16.12025313 -68.13671875 16.015625 C-69.00039062 15.92925781 -69.8640625 15.84289062 -70.75390625 15.75390625 C-71.62273437 15.67527344 -72.4915625 15.59664062 -73.38671875 15.515625 C-75.62890625 15.06640625 -75.62890625 15.06640625 -77.62890625 13.06640625 C-77.32902674 9.26793246 -76.21213875 6.85629735 -73.62890625 4.06640625 C-72.96890625 4.06640625 -72.30890625 4.06640625 -71.62890625 4.06640625 C-71.62890625 3.40640625 -71.62890625 2.74640625 -71.62890625 2.06640625 C-50.06566322 -16.14765223 -22.69203048 -16.69027502 0 0 Z " fill="#EDE8CE" transform="translate(90.62890625,14.93359375)"/>
<path d="M0 0 C0.06058594 0.67546875 0.12117188 1.3509375 0.18359375 2.046875 C0.26738281 2.93890625 0.35117188 3.8309375 0.4375 4.75 C0.51871094 5.63171875 0.59992188 6.5134375 0.68359375 7.421875 C0.96238465 9.69350452 1.38790577 11.79851823 2 14 C2.928125 13.938125 3.85625 13.87625 4.8125 13.8125 C8 14 8 14 9.9375 15.0625 C11.61676907 18.12469653 10.68621125 20.69370941 10 24 C10.99 24.33 11.98 24.66 13 25 C12.7215625 26.3303125 12.7215625 26.3303125 12.4375 27.6875 C12.01957516 30.85178811 12.19222258 32.94839642 13 36 C12.34 36 11.68 36 11 36 C10.67 36.99 10.34 37.98 10 39 C10 38.34 10 37.68 10 37 C9.360625 36.9175 8.72125 36.835 8.0625 36.75 C3.84366862 35.7168168 -0.26310937 34.23904604 -4 32 C-4.495 30.515 -4.495 30.515 -5 29 C-5.103125 29.639375 -5.20625 30.27875 -5.3125 30.9375 C-5.539375 31.618125 -5.76625 32.29875 -6 33 C-6.99 33.33 -7.98 33.66 -9 34 C-8.34 34.61875 -7.68 35.2375 -7 35.875 C-5 38 -5 38 -5 40 C-5.99 40 -6.98 40 -8 40 C-8 40.99 -8 41.98 -8 43 C-7.01 43.495 -7.01 43.495 -6 44 C-6.495 44.99 -6.495 44.99 -7 46 C-7.886875 45.979375 -8.77375 45.95875 -9.6875 45.9375 C-12.65627533 45.99351463 -15.11893476 46.35176032 -18 47 C-23.04953843 48.03286013 -27.87174753 48.10256505 -33 48 C-33 47.01 -33 46.02 -33 45 C-33.66 45 -34.32 45 -35 45 C-35 43.68 -35 42.36 -35 41 C-35.99 40.67 -36.98 40.34 -38 40 C-38 39.34 -38 38.68 -38 38 C-40.475 38.495 -40.475 38.495 -43 39 C-41.95125002 36.37812506 -41.35068687 35.20628639 -38.875 33.75 C-38.25625 33.5025 -37.6375 33.255 -37 33 C-37 32.34 -37 31.68 -37 31 C-36.34 30.67 -35.68 30.34 -35 30 C-35 29.01 -35 28.02 -35 27 C-35.66 27 -36.32 27 -37 27 C-37 23.37 -37 19.74 -37 16 C-29.375 14.75 -29.375 14.75 -26 17 C-22.79620876 17.24246783 -22.79620876 17.24246783 -19.3125 17.125 C-18.13300781 17.10695313 -16.95351562 17.08890625 -15.73828125 17.0703125 C-14.83464844 17.04710938 -13.93101563 17.02390625 -13 17 C-12.67 18.32 -12.34 19.64 -12 21 C-12.66 21 -13.32 21 -14 21 C-13.67 21.99 -13.34 22.98 -13 24 C-13.66 24.66 -14.32 25.32 -15 26 C-11.70924004 25.62095792 -11.70924004 25.62095792 -9 24 C-8.34 23.67 -7.68 23.34 -7 23 C-7.66 22.01 -8.32 21.02 -9 20 C-8.34 20 -7.68 20 -7 20 C-7.66 18.68 -8.32 17.36 -9 16 C-9.99 16.33 -10.98 16.66 -12 17 C-12 16.34 -12 15.68 -12 15 C-12.66 15 -13.32 15 -14 15 C-13.42655063 12.13275314 -13.1385485 11.1385485 -11 9 C-10.83318891 5.91652174 -10.83318891 5.91652174 -11 3 C-10.21625 3.04125 -9.4325 3.0825 -8.625 3.125 C-5.83883881 3.28728734 -5.83883881 3.28728734 -4 1 C-2 0 -2 0 0 0 Z " fill="#5B4C3D" transform="translate(86,26)"/>
<path d="M0 0 C1.010625 0.28875 2.02125 0.5775 3.0625 0.875 C9.854329 2.71938659 17.00564943 2.677445 24 3 C24 3.66 24 4.32 24 5 C22.906875 5.28875 21.81375 5.5775 20.6875 5.875 C16.95986155 6.81893204 16.95986155 6.81893204 14 9 C14.27034634 11.43717258 14.27034634 11.43717258 15 14 C15.99 14.66 16.98 15.32 18 16 C17.74322411 17.75211782 17.46897047 19.50167936 17.1875 21.25 C17.03667969 22.22453125 16.88585937 23.1990625 16.73046875 24.203125 C16 27 16 27 14.39453125 29.08984375 C12.78646858 30.89037084 12.78646858 30.89037084 13.03125 33.11328125 C13.1859375 33.83902344 13.340625 34.56476563 13.5 35.3125 C14.21127877 40.02858752 13.25267598 42.73600619 11 47 C10.1646875 48.7015625 10.1646875 48.7015625 9.3125 50.4375 C8.6628125 51.7059375 8.6628125 51.7059375 8 53 C0.8830465 47.20100085 -2.60716134 36.81051432 -4 28 C-4.77863406 18.82791651 -4.82044821 9.55146956 -1 1 C-0.67 0.67 -0.34 0.34 0 0 Z " fill="#E9E3C8" transform="translate(7,36)"/>
<path d="M0 0 C2.4375 0.375 2.4375 0.375 5 1 C5.495 1.99 5.495 1.99 6 3 C8.74257233 3.39645966 8.74257233 3.39645966 12 3.5 C17.55498254 3.8368512 22.61364636 4.63058806 28 6 C28.495 8.475 28.495 8.475 29 11 C30.98 10.67 32.96 10.34 35 10 C34.505 7.525 34.505 7.525 34 5 C32.02 4.34 30.04 3.68 28 3 C28 2.34 28 1.68 28 1 C30.75 0.6875 30.75 0.6875 34 1 C36.4375 3.25 36.4375 3.25 38 6 C37.89752727 9.38159998 36.09946512 11.44412942 34 14 C34.99 14.33 35.98 14.66 37 15 C37 15.66 37 16.32 37 17 C33.44288706 18.61038923 30.66679168 19.25183439 26.77001953 19.25878906 C25.75191193 19.26509338 24.73380432 19.27139771 23.68484497 19.27789307 C22.59517426 19.2738446 21.50550354 19.26979614 20.3828125 19.265625 C18.68703568 19.26849518 18.68703568 19.26849518 16.95700073 19.27142334 C14.568174 19.27278289 12.17933983 19.26910255 9.79052734 19.26074219 C6.14533762 19.2500596 2.50064297 19.26063532 -1.14453125 19.2734375 C-3.46875108 19.27211548 -5.79297061 19.26955219 -8.1171875 19.265625 C-9.20280975 19.26967346 -10.28843201 19.27372192 -11.4069519 19.27789307 C-16.99794875 19.24348558 -21.72098026 18.88276001 -27 17 C-27 15.02 -27 13.04 -27 11 C-25.68 10.34 -24.36 9.68 -23 9 C-22.34 9.66 -21.68 10.32 -21 11 C-17.78826141 11.58186865 -17.78826141 11.58186865 -14.125 11.8125 C-12.89007813 11.92207031 -11.65515625 12.03164063 -10.3828125 12.14453125 C-6.70126337 11.98723643 -5.66292931 11.39663638 -3 9 C-2.34 9 -1.68 9 -1 9 C-0.67 6.03 -0.34 3.06 0 0 Z " fill="#A26B3F" transform="translate(35,20)"/>
<path d="M0 0 C0 0.66 0 1.32 0 2 C1.299375 1.938125 2.59875 1.87625 3.9375 1.8125 C9.0046443 1.82850993 13.47493116 2.65332174 18 5 C20.43676903 7.72344774 21.02399778 8.99209329 20.9375 12.625 C19.78538166 15.5436998 18.74362993 16.5106009 16 18 C14.68 18 13.36 18 12 18 C12.061875 18.763125 12.12375 19.52625 12.1875 20.3125 C11.96487909 23.50339968 11.31697562 23.96106145 9 26 C8.505 27.485 8.505 27.485 8 29 C8.66 29 9.32 29 10 29 C10 29.66 10 30.32 10 31 C11.32 30.34 12.64 29.68 14 29 C14.66 29.99 15.32 30.98 16 32 C15.67 32.99 15.34 33.98 15 35 C15.33 35.99 15.66 36.98 16 38 C15.01 38.495 15.01 38.495 14 39 C13.67 39.99 13.34 40.98 13 42 C12.34 41.34 11.68 40.68 11 40 C8.39719432 40.32041397 8.39719432 40.32041397 6 41 C6.33 40.38125 6.66 39.7625 7 39.125 C8.14193235 37.08981656 8.14193235 37.08981656 8 35 C8.66 35 9.32 35 10 35 C9.67 34.01 9.34 33.02 9 32 C6.03 31.67 3.06 31.34 0 31 C0 30.67 0 30.34 0 30 C1.98 30 3.96 30 6 30 C5.67 28.35 5.34 26.7 5 25 C5.99 25 6.98 25 8 25 C7.01 24.01 6.02 23.02 5 22 C5.309375 21.4225 5.61875 20.845 5.9375 20.25 C7.37297564 17.23632787 7.37297564 17.23632787 8 14 C7.04029596 11.69164222 7.04029596 11.69164222 5 10 C1.89802603 9.19053578 1.89802603 9.19053578 -1 9 C-1 9.66 -1 10.32 -1 11 C-0.030625 11.144375 0.93875 11.28875 1.9375 11.4375 C5 12 5 12 6 13 C6.04063832 14.66617115 6.042721 16.33388095 6 18 C3.03 18.495 3.03 18.495 0 19 C-0.495 16.525 -0.495 16.525 -1 14 C-5.14521187 13.5081952 -9.25229115 13.0401168 -13.421875 12.81640625 C-14.58203125 12.75324219 -15.7421875 12.69007812 -16.9375 12.625 C-18.59072266 12.55152344 -18.59072266 12.55152344 -20.27734375 12.4765625 C-21.17582031 12.31929687 -22.07429688 12.16203125 -23 12 C-23.66 11.01 -24.32 10.02 -25 9 C-25.99 8.34 -26.98 7.68 -28 7 C-22.37169518 0.44790047 -22.37169518 0.44790047 -17.9375 -1 C-11.93226535 -1 -5.97863962 -0.5389897 0 0 Z " fill="#554434" transform="translate(64,12)"/>
<path d="M0 0 C3.90911111 0.54220333 5.46043727 2.25543549 8.0625 5.125 C18.0831137 15.40716316 29.87914869 21.02951221 44.3125 21.5 C60.39411105 20.98552122 72.96827164 15.73100097 85 5 C85.495 7.475 85.495 7.475 86 10 C70.36235803 22.93275255 55.05423227 26.61355892 35 25 C25.42564062 23.43263153 17.44345542 19.06089991 10 13 C9.10861328 12.31550781 9.10861328 12.31550781 8.19921875 11.6171875 C4.98376955 9.07993478 2.31413316 6.38219462 0 3 C0 2.01 0 1.02 0 0 Z " fill="#9E8B64" transform="translate(10,87)"/>
<path d="M0 0 C0 1.32 0 2.64 0 4 C-1.78871178 4.38885039 -3.58112874 4.76069196 -5.375 5.125 C-6.37273438 5.33382812 -7.37046875 5.54265625 -8.3984375 5.7578125 C-9.25695312 5.83773437 -10.11546875 5.91765625 -11 6 C-11.66 5.34 -12.32 4.68 -13 4 C-15.68839385 3.73008094 -18.29141936 3.91262643 -21 4 C-21 7.63 -21 11.26 -21 15 C-21.66 14.34 -22.32 13.68 -23 13 C-22.67 12.34 -22.34 11.68 -22 11 C-22.99 11 -23.98 11 -25 11 C-25.33 10.34 -25.66 9.68 -26 9 C-28.96844435 8.64661377 -31.15598218 8.4582318 -33.734375 10.11328125 C-35.20348819 11.35503168 -36.60704814 12.67337918 -38 14 C-39.5625 12.4375 -39.5625 12.4375 -41 10 C-40.77100357 6.67955183 -40.4949015 3.989803 -39 1 C-33.92799335 0.85705161 -28.85597177 0.7146493 -23.78393555 0.57275391 C-22.05834539 0.52440169 -20.33275941 0.47590002 -18.60717773 0.42724609 C-16.12745225 0.35735449 -13.64771224 0.28799964 -11.16796875 0.21875 C-10.39599655 0.19687622 -9.62402435 0.17500244 -8.82865906 0.15246582 C-5.88459636 0.07066058 -2.94536935 0 0 0 Z " fill="#403021" transform="translate(70,38)"/>
<path d="M0 0 C0.99 0.66 1.98 1.32 3 2 C6.20379124 2.24246783 6.20379124 2.24246783 9.6875 2.125 C10.86699219 2.10695312 12.04648438 2.08890625 13.26171875 2.0703125 C14.16535156 2.04710937 15.06898437 2.02390625 16 2 C16.33 3.32 16.66 4.64 17 6 C16.34 6 15.68 6 15 6 C15.33 6.99 15.66 7.98 16 9 C11.34268137 12.7258549 6.69082895 12.50156459 1 12 C0.01 11.67 -0.98 11.34 -2 11 C-2 10.01 -2 9.02 -2 8 C-2.99 8 -3.98 8 -5 8 C-4.67 10.31 -4.34 12.62 -4 15 C-4.66 15 -5.32 15 -6 15 C-6 14.01 -6 13.02 -6 12 C-6.66 12 -7.32 12 -8 12 C-8 8.37 -8 4.74 -8 1 C-5.01413769 0.00471256 -3.10857 -0.23314275 0 0 Z " fill="#AC883D" transform="translate(57,41)"/>
<path d="M0 0 C2.4375 0.375 2.4375 0.375 5 1 C5.33 1.66 5.66 2.32 6 3 C8.9124487 3.39421509 8.9124487 3.39421509 12.3125 3.5 C16.40536778 3.68333114 19.46760616 3.8369539 23 6 C22.34 6 21.68 6 21 6 C21 6.66 21 7.32 21 8 C22.32 8.33 23.64 8.66 25 9 C25.33 10.65 25.66 12.3 26 14 C20.25 12.125 20.25 12.125 18 11 C16.62451844 10.91691362 15.24514204 10.89263984 13.8671875 10.90234375 C13.06152344 10.90556641 12.25585938 10.90878906 11.42578125 10.91210938 C10.16314453 10.92467773 10.16314453 10.92467773 8.875 10.9375 C7.60076172 10.94426758 7.60076172 10.94426758 6.30078125 10.95117188 C4.20049091 10.96297126 2.1002367 10.98090694 0 11 C-1.1700097 7.08263419 -0.69584017 4.02040985 0 0 Z " fill="#A17046" transform="translate(35,20)"/>
<path d="M0 0 C0.33 1.32 0.66 2.64 1 4 C1.55171875 4.12246094 2.1034375 4.24492188 2.671875 4.37109375 C5.29591255 5.07993611 7.7336953 6.03611256 10.25 7.0625 C11.14203125 7.42472656 12.0340625 7.78695312 12.953125 8.16015625 C13.62859375 8.43730469 14.3040625 8.71445312 15 9 C14.45660208 13.56454251 13.20536179 16.9728176 11 21 C5.33870569 16.30233025 0.14771096 11.25276628 -5 6 C-4.67 5.34 -4.34 4.68 -4 4 C-3.01 4.33 -2.02 4.66 -1 5 C-0.67 3.35 -0.34 1.7 0 0 Z " fill="#493929" transform="translate(81,54)"/>
<path d="M0 0 C2.72705554 -0.22111261 4.46420662 -0.30361625 6.875 1.0625 C8.64782183 4.11569315 7.69235306 6.66411708 7 10 C7.99 10.33 8.98 10.66 10 11 C9.814375 11.886875 9.62875 12.77375 9.4375 13.6875 C9.01957516 16.85178811 9.19222258 18.94839642 10 22 C9.34 22 8.68 22 8 22 C7.67 22.99 7.34 23.98 7 25 C7 24.34 7 23.68 7 23 C6.29875 22.896875 5.5975 22.79375 4.875 22.6875 C1.53218852 21.88813204 -1.06885575 20.7986567 -4 19 C-4.875 16.8125 -4.875 16.8125 -5 15 C-2.525 15.99 -2.525 15.99 0 17 C0 17.66 0 18.32 0 19 C0.66 19 1.32 19 2 19 C3.50664813 13.79521556 2.38714245 10.21986428 0.69140625 5.26953125 C0 3 0 3 0 0 Z " fill="#A9885E" transform="translate(89,40)"/>
<path d="M0 0 C0.33 0.66 0.66 1.32 1 2 C1.99 1.67 2.98 1.34 4 1 C12.50455742 0.38460498 19.74028469 0.06339359 27 5 C27.33 5.66 27.66 6.32 28 7 C24.25006521 7.05811773 20.50024648 7.09363593 16.75 7.125 C15.15478516 7.15013672 15.15478516 7.15013672 13.52734375 7.17578125 C11.99013672 7.18544922 11.99013672 7.18544922 10.421875 7.1953125 C9.00793457 7.21102295 9.00793457 7.21102295 7.56542969 7.22705078 C4.90048059 6.99119213 3.28136908 6.35661659 1 5 C1.33 4.34 1.66 3.68 2 3 C0.35 3.33 -1.3 3.66 -3 4 C-2.67 3.34 -2.34 2.68 -2 2 C-1.34 2 -0.68 2 0 2 C0 1.34 0 0.68 0 0 Z " fill="#D7995E" transform="translate(34,29)"/>
<path d="M0 0 C2.75 -0.3125 2.75 -0.3125 6 0 C8.4375 2.25 8.4375 2.25 10 5 C9.89752727 8.38159998 8.09946512 10.44412942 6 13 C6.99 13.33 7.98 13.66 9 14 C9 14.66 9 15.32 9 16 C7.54364629 16.22174933 6.08477044 16.42698698 4.625 16.625 C3.40683594 16.79902344 3.40683594 16.79902344 2.1640625 16.9765625 C1.44992188 16.98429687 0.73578125 16.99203125 0 17 C-2.76223278 14.23776722 -2.57856291 11.79293383 -3 8 C-4.32 7.67 -5.64 7.34 -7 7 C-7 6.34 -7 5.68 -7 5 C-4.69 5 -2.38 5 0 5 C0.33 6.65 0.66 8.3 1 10 C2.98 9.67 4.96 9.34 7 9 C6.67 7.35 6.34 5.7 6 4 C4.02 3.34 2.04 2.68 0 2 C0 1.34 0 0.68 0 0 Z " fill="#B67843" transform="translate(63,21)"/>
<path d="M0 0 C-0.04125 1.093125 -0.0825 2.18625 -0.125 3.3125 C-0.32074666 7.08892229 -0.32074666 7.08892229 2 10 C4.05925139 10.72382467 4.05925139 10.72382467 6 11 C6 11.99 6 12.98 6 14 C0.25 14.125 0.25 14.125 -2 13 C-2.33 13.66 -2.66 14.32 -3 15 C-3.99 14.34 -4.98 13.68 -6 13 C-6 12.34 -6 11.68 -6 11 C-6.680625 10.38125 -7.36125 9.7625 -8.0625 9.125 C-10 7 -10 7 -10 4.9375 C-7.71602341 0.51229536 -4.78591685 -0.3988264 0 0 Z " fill="#967852" transform="translate(30,41)"/>
<path d="M0 0 C0.99 0.33 1.98 0.66 3 1 C3.6875 3.3125 3.6875 3.3125 4 6 C2.625 7.625 2.625 7.625 1 9 C0.67 9.99 0.34 10.98 0 12 C0.66 12 1.32 12 2 12 C2 12.66 2 13.32 2 14 C3.32 13.34 4.64 12.68 6 12 C6.99 13.485 6.99 13.485 8 15 C7.67 15.99 7.34 16.98 7 18 C7.33 18.99 7.66 19.98 8 21 C7.34 21.33 6.68 21.66 6 22 C5.67 22.99 5.34 23.98 5 25 C4.34 24.34 3.68 23.68 3 23 C0.39719432 23.32041397 0.39719432 23.32041397 -2 24 C-1.67 23.38125 -1.34 22.7625 -1 22.125 C0.14193235 20.08981656 0.14193235 20.08981656 0 18 C0.66 18 1.32 18 2 18 C1.67 17.01 1.34 16.02 1 15 C-1.97 14.67 -4.94 14.34 -8 14 C-8 13.67 -8 13.34 -8 13 C-6.02 13 -4.04 13 -2 13 C-2.33 11.35 -2.66 9.7 -3 8 C-2.01 8 -1.02 8 0 8 C-0.99 7.01 -1.98 6.02 -3 5 C-1.125 1.125 -1.125 1.125 0 0 Z " fill="#60452B" transform="translate(72,29)"/>
<path d="M0 0 C0.51046875 0.30679687 1.0209375 0.61359375 1.546875 0.9296875 C4.75035193 2.32738285 7.78868061 2.67631045 11.25 3.125 C12.51328125 3.29257812 13.7765625 3.46015625 15.078125 3.6328125 C16.04234375 3.75398438 17.0065625 3.87515625 18 4 C18.33 4.99 18.66 5.98 19 7 C4.21867882 10.81321185 4.21867882 10.81321185 -2 8 C-2.125 5.125 -2.125 5.125 -2 2 C-1.34 1.34 -0.68 0.68 0 0 Z " fill="#B77745" transform="translate(10,29)"/>
<path d="M0 0 C0.8125 2.625 0.8125 2.625 1 5 C-3.67201205 6.20568053 -8.21496292 6.09382426 -13 6 C-13 5.01 -13 4.02 -13 3 C-13.66 3 -14.32 3 -15 3 C-15 1.68 -15 0.36 -15 -1 C-9.8724255 -2.57771523 -4.70299219 -2.82179531 0 0 Z " fill="#616A5A" transform="translate(66,68)"/>
<path d="M0 0 C0.33 0.99 0.66 1.98 1 3 C1.99 3 2.98 3 4 3 C2.62903502 7.11289495 0.52399633 8.56031023 -3 11 C-5.875 10.8125 -5.875 10.8125 -8 10 C-8.185625 9.071875 -8.185625 9.071875 -8.375 8.125 C-8.87197356 5.80879168 -8.87197356 5.80879168 -11 4 C-7.26280719 0.48264206 -5.13496308 -0.47767098 0 0 Z " fill="#574D3F" transform="translate(44,46)"/>
<path d="M0 0 C0.99 0.33 1.98 0.66 3 1 C3 1.99 3 2.98 3 4 C2.34 4 1.68 4 1 4 C0.67 2.68 0.34 1.36 0 0 Z M-14 1 C-12.88625 1.680625 -11.7725 2.36125 -10.625 3.0625 C-8.8017126 4.22420484 -8.8017126 4.22420484 -7 5 C-4.79927039 4.27489266 -4.79927039 4.27489266 -3 3 C-0.75 3.375 -0.75 3.375 1 4 C1.12375 4.639375 1.2475 5.27875 1.375 5.9375 C1.58125 6.618125 1.7875 7.29875 2 8 C2.66 8.33 3.32 8.66 4 9 C4 9.66 4 10.32 4 11 C-0.89433963 11.32970851 -3.91041507 10.42816508 -8.25 8.1875 C-9.28640625 7.66542969 -10.3228125 7.14335938 -11.390625 6.60546875 C-14 5 -14 5 -16 2 C-15.34 1.67 -14.68 1.34 -14 1 Z " fill="#3E3126" transform="translate(41,96)"/>
<path d="M0 0 C2.87575868 0.11454804 5.75012112 0.2412847 8.625 0.375 C9.83736328 0.42140625 9.83736328 0.42140625 11.07421875 0.46875 C15.71838314 0.6952946 19.62693856 1.2592668 24 3 C23.67 4.32 23.34 5.64 23 7 C19.72574705 6.80913229 16.4574717 6.56576032 13.1875 6.3125 C11.7943457 6.23225586 11.7943457 6.23225586 10.37304688 6.15039062 C7.81557007 5.93803696 5.47042436 5.69844756 3 5 C0.86328125 2.41796875 0.86328125 2.41796875 0 0 Z " fill="#492E1B" transform="translate(38,19)"/>
<path d="M0 0 C5.94 2.475 5.94 2.475 12 5 C11 11 11 11 10 14 C9.34 14 8.68 14 8 14 C8 12.68 8 11.36 8 10 C7.443125 9.773125 6.88625 9.54625 6.3125 9.3125 C3.36753316 7.64103234 1.31843456 5.44723648 -1 3 C-0.67 2.01 -0.34 1.02 0 0 Z " fill="#594F40" transform="translate(84,58)"/>
<path d="M0 0 C2.72705554 -0.22111261 4.46420662 -0.30361625 6.875 1.0625 C8.64782183 4.11569315 7.69235306 6.66411708 7 10 C6.01 9.67 5.02 9.34 4 9 C4 9.66 4 10.32 4 11 C4.99 11 5.98 11 7 11 C6.67 11.99 6.34 12.98 6 14 C6.33 14.66 6.66 15.32 7 16 C6.01 16 5.02 16 4 16 C3.32815382 13.89748139 2.66269032 11.79292237 2 9.6875 C1.443125 7.92986328 1.443125 7.92986328 0.875 6.13671875 C0 3 0 3 0 0 Z " fill="#827453" transform="translate(89,40)"/>
<path d="M0 0 C2.31 0 4.62 0 7 0 C6.67 0.66 6.34 1.32 6 2 C6.33 2.99 6.66 3.98 7 5 C3.9315153 7.97550031 2.53763669 8.96474513 -1.8125 9.25 C-2.864375 9.1675 -3.91625 9.085 -5 9 C-4.67 7.35 -4.34 5.7 -4 4 C-2.68 3.67 -1.36 3.34 0 3 C0 2.01 0 1.02 0 0 Z " fill="#534635" transform="translate(78,21)"/>
<path d="M0 0 C0.66 1.32 1.32 2.64 2 4 C3.32 3.67 4.64 3.34 6 3 C5.01 3.99 4.02 4.98 3 6 C1.68 5.01 0.36 4.02 -1 3 C-1.66 3.66 -2.32 4.32 -3 5 C-3.99 5 -4.98 5 -6 5 C-6 5.66 -6 6.32 -6 7 C-5.34 7.33 -4.68 7.66 -4 8 C-4 10.31 -4 12.62 -4 15 C-4.66 15 -5.32 15 -6 15 C-6 14.01 -6 13.02 -6 12 C-6.66 12 -7.32 12 -8 12 C-8 8.37 -8 4.74 -8 1 C-5.07175348 0.02391783 -3.04386724 -0.08226668 0 0 Z " fill="#B18859" transform="translate(57,41)"/>
<path d="M0 0 C5.27710354 2.3439244 9.15080717 4.66965806 13 9 C11.35 9 9.7 9 8 9 C8 8.01 8 7.02 8 6 C6.824375 6.37125 5.64875 6.7425 4.4375 7.125 C-0.05708031 8.26064129 -2.73247004 7.74184896 -7 6 C-7.33 5.34 -7.66 4.68 -8 4 C-6.02 4 -4.04 4 -2 4 C-1.34 2.68 -0.68 1.36 0 0 Z " fill="#E5DEC1" transform="translate(80,9)"/>
<path d="M0 0 C0 1.32 0 2.64 0 4 C-1.74480197 4.41815082 -3.49622557 4.80873982 -5.25 5.1875 C-6.22453125 5.40792969 -7.1990625 5.62835938 -8.203125 5.85546875 C-11.67819126 6.0350462 -12.35281228 5.10947771 -15 3 C-17.80883637 2.42770132 -17.80883637 2.42770132 -20.75 2.3125 C-22.22726563 2.21388672 -22.22726563 2.21388672 -23.734375 2.11328125 C-24.85585938 2.05720703 -24.85585938 2.05720703 -26 2 C-26 1.67 -26 1.34 -26 1 C-22.22921314 0.83227069 -18.45836341 0.66599875 -14.6875 0.5 C-13.61564453 0.45230469 -12.54378906 0.40460937 -11.43945312 0.35546875 C-9.89741211 0.28779297 -9.89741211 0.28779297 -8.32421875 0.21875 C-7.37635498 0.17685547 -6.42849121 0.13496094 -5.4519043 0.09179688 C-3.63561776 0.0237969 -1.81755902 0 0 0 Z " fill="#563424" transform="translate(70,38)"/>
<path d="M0 0 C2.75 -0.3125 2.75 -0.3125 6 0 C8.4375 2.25 8.4375 2.25 10 5 C9.89752727 8.38159998 8.09946512 10.44412942 6 13 C6.99 13.33 7.98 13.66 9 14 C9 14.66 9 15.32 9 16 C6.03 16.33 3.06 16.66 0 17 C1.32 16.67 2.64 16.34 4 16 C4.33 13.69 4.66 11.38 5 9 C5.66 9 6.32 9 7 9 C6.67 7.35 6.34 5.7 6 4 C4.02 3.34 2.04 2.68 0 2 C0 1.34 0 0.68 0 0 Z " fill="#AB7B56" transform="translate(63,21)"/>
<path d="M0 0 C1.5625 1.25 1.5625 1.25 3 3 C2.6875 5.1875 2.6875 5.1875 2 7 C3.32 6.34 4.64 5.68 6 5 C6 5.66 6 6.32 6 7 C8.31 7 10.62 7 13 7 C13 7.66 13 8.32 13 9 C8.05 9.33 3.1 9.66 -2 10 C-2.95514044 6.17943822 -3.08352672 4.64458987 -2 1 C-1.34 0.67 -0.68 0.34 0 0 Z " fill="#895933" transform="translate(37,21)"/>
<path d="M0 0 C2 2 2 2 2.125 5.625 C2.08375 6.73875 2.0425 7.8525 2 9 C3.64079242 7.35920758 3.60112342 5.22231235 4 3 C6.4044979 4.88178097 6.99790027 5.99224715 7.8125 9 C8 12 8 12 6 15 C4 15 4 15 1.3125 12.5625 C-0.43323177 10.43393232 -0.98403659 9.37759607 -1.1015625 6.59765625 C-0.84016107 4.36161428 -0.4928693 2.19595231 0 0 Z " fill="#584334" transform="translate(85,44)"/>
<path d="M0 0 C0.5775 0.639375 1.155 1.27875 1.75 1.9375 C3.98062401 3.98223868 5.07436391 4.58205199 8 5 C8 5.99 8 6.98 8 8 C2.25 8.125 2.25 8.125 0 7 C-0.33 7.66 -0.66 8.32 -1 9 C-1.99 8.34 -2.98 7.68 -4 7 C-3.6875 4.625 -3.6875 4.625 -3 2 C-2.01 1.34 -1.02 0.68 0 0 Z " fill="#8F7959" transform="translate(28,47)"/>
<path d="M0 0 C0 0.66 0 1.32 0 2 C1.98 2 3.96 2 6 2 C6 2.33 6 2.66 6 3 C4.02 3.33 2.04 3.66 0 4 C-0.33 3.01 -0.66 2.02 -1 1 C-4.63 1.33 -8.26 1.66 -12 2 C-12 2.66 -12 3.32 -12 4 C-12.61875 3.814375 -13.2375 3.62875 -13.875 3.4375 C-16.04160178 2.76313824 -16.04160178 2.76313824 -18 4 C-18 3.34 -18 2.68 -18 2 C-18.66 2 -19.32 2 -20 2 C-20 2.66 -20 3.32 -20 4 C-21.32 3.67 -22.64 3.34 -24 3 C-22.25209906 0.63519285 -21.05451234 0.01453662 -18.1875 -0.75 C-12.16513673 -1.41480633 -6.00680028 -0.54152846 0 0 Z " fill="#6F614E" transform="translate(64,12)"/>
<path d="M0 0 C1.4540625 0.0309375 1.4540625 0.0309375 2.9375 0.0625 C3.2675 1.0525 3.5975 2.0425 3.9375 3.0625 C2.9475 3.0625 1.9575 3.0625 0.9375 3.0625 C0.9375 3.7225 0.9375 4.3825 0.9375 5.0625 C0.339375 4.835625 -0.25875 4.60875 -0.875 4.375 C-1.9578125 4.2203125 -1.9578125 4.2203125 -3.0625 4.0625 C-4.64583333 5.47916667 -4.64583333 5.47916667 -6.0625 7.0625 C-7.0525 7.0625 -8.0425 7.0625 -9.0625 7.0625 C-9.3925 5.0825 -9.7225 3.1025 -10.0625 1.0625 C-8.6084375 1.0934375 -8.6084375 1.0934375 -7.125 1.125 C-3.56419433 1.0523305 -3.56080567 0.0726695 0 0 Z " fill="#949073" transform="translate(77.0625,62.9375)"/>
<path d="M0 0 C0.33 0.66 0.66 1.32 1 2 C1.66 2 2.32 2 3 2 C3 1.34 3 0.68 3 0 C3.99 0 4.98 0 6 0 C6 0.66 6 1.32 6 2 C7.65 1.67 9.3 1.34 11 1 C7.61831569 4.68006822 4.57478244 6.9785845 0 9 C-0.84454356 5.62182575 -1.10844919 3.32534757 0 0 Z " fill="#473930" transform="translate(80,94)"/>
<path d="M0 0 C0.804375 0.433125 0.804375 0.433125 1.625 0.875 C4.35280484 2.16711808 7.12612718 3.08558592 10 4 C10 4.33 10 4.66 10 5 C8.35 5 6.7 5 5 5 C5 6.32 5 7.64 5 9 C2.69 8.67 0.38 8.34 -2 8 C-2.125 5.125 -2.125 5.125 -2 2 C-1.34 1.34 -0.68 0.68 0 0 Z " fill="#AC703F" transform="translate(10,29)"/>
<path d="M0 0 C0.99 0.33 1.98 0.66 3 1 C3 1.66 3 2.32 3 3 C3.99 2.67 4.98 2.34 6 2 C5.34 1.67 4.68 1.34 4 1 C5.65 0.67 7.3 0.34 9 0 C9.70074844 3.153368 10 5.72724974 10 9 C8 8 8 8 7 5 C6.34 5 5.68 5 5 5 C5 5.66 5 6.32 5 7 C4.34 7 3.68 7 3 7 C3 6.34 3 5.68 3 5 C0.69 5 -1.62 5 -4 5 C-4 4.34 -4 3.68 -4 3 C-2.68 2.34 -1.36 1.68 0 1 C0 0.67 0 0.34 0 0 Z " fill="#AD882F" transform="translate(55,43)"/>
<path d="M0 0 C6.875 0.875 6.875 0.875 8 2 C8.04063832 3.66617115 8.042721 5.33388095 8 7 C6.02 7.33 4.04 7.66 2 8 C1.67 6.35 1.34 4.7 1 3 C0.34 3 -0.32 3 -1 3 C-0.67 2.01 -0.34 1.02 0 0 Z " fill="#946240" transform="translate(62,23)"/>
<path d="M0 0 C0.66 0.33 1.32 0.66 2 1 C-3.75714286 6.95566502 -3.75714286 6.95566502 -8.28515625 7.1171875 C-10.15494141 6.99730469 -10.15494141 6.99730469 -12.0625 6.875 C-13.31160156 6.81054688 -14.56070312 6.74609375 -15.84765625 6.6796875 C-19 6 -19 6 -20.43359375 3.9453125 C-20.62050781 3.30335937 -20.80742187 2.66140625 -21 2 C-20.10796875 2.15597656 -19.2159375 2.31195312 -18.296875 2.47265625 C-16.54117187 2.76462891 -16.54117187 2.76462891 -14.75 3.0625 C-13.58984375 3.25972656 -12.4296875 3.45695312 -11.234375 3.66015625 C-7.11792498 4.0926818 -5.12147352 3.77880105 -1.75 1.4375 C-1.1725 0.963125 -0.595 0.48875 0 0 Z " fill="#C6956F" transform="translate(33,26)"/>
<path d="M0 0 C0.99 0 1.98 0 3 0 C3 0.99 3 1.98 3 3 C6.63 3.33 10.26 3.66 14 4 C14 4.99 14 5.98 14 7 C4.92338441 8.59360426 4.92338441 8.59360426 1.375 6.3125 C0 4 0 4 0 0 Z " fill="#684F41" transform="translate(52,49)"/>
<path d="M0 0 C0.33 0 0.66 0 1 0 C0.46148032 5.27749285 -0.77343836 9.25645564 -3 14 C-3.99 14 -4.98 14 -6 14 C-6 11.03 -6 8.06 -6 5 C-5.34 4.67 -4.68 4.34 -4 4 C-4.66 3.01 -5.32 2.02 -6 1 C-3.525 1.99 -3.525 1.99 -1 3 C-0.67 2.01 -0.34 1.02 0 0 Z " fill="#C08D64" transform="translate(83,45)"/>
<path d="M0 0 C0.66 0.99 1.32 1.98 2 3 C-3.28 3 -8.56 3 -14 3 C-13.67 2.01 -13.34 1.02 -13 0 C-8.36148096 -1.30458348 -4.67177177 -0.91903707 0 0 Z " fill="#DDA366" transform="translate(58,32)"/>
<path d="M0 0 C0.99 0 1.98 0 3 0 C4.69324219 1.97544922 6.05754981 4.08632472 7.5 6.25 C7.995 6.8275 8.49 7.405 9 8 C9.99 8 10.98 8 12 8 C12.66 8 13.32 8 14 8 C14.33 9.98 14.66 11.96 15 14 C12 14 12 14 9.08203125 11.4453125 C7.98435681 10.34630754 6.89478953 9.23915907 5.8125 8.125 C5.25369141 7.56941406 4.69488281 7.01382813 4.11914062 6.44140625 C0 2.26694139 0 2.26694139 0 0 Z " fill="#372E23" transform="translate(78,60)"/>
<path d="M0 0 C1.66666667 0 3.33333333 0 5 0 C6.29758261 2.59516521 6.13269102 4.54183027 6.125 7.4375 C6.12757812 8.40558594 6.13015625 9.37367187 6.1328125 10.37109375 C6 13 6 13 5 16 C4.34 16 3.68 16 3 16 C1.84162374 11.94568308 2.16308743 9.78187881 4 6 C3.01 6 2.02 6 1 6 C0.67 4.02 0.34 2.04 0 0 Z " fill="#7E5C3E" transform="translate(79,42)"/>
<path d="M0 0 C1.875 0.25 1.875 0.25 4 1 C5.25 3.0625 5.25 3.0625 6 5 C5.01 5.495 5.01 5.495 4 6 C3.67 6.99 3.34 7.98 3 9 C2.34 8.34 1.68 7.68 1 7 C-1.60280568 7.32041397 -1.60280568 7.32041397 -4 8 C-3.67 7.38125 -3.34 6.7625 -3 6.125 C-1.85806765 4.08981656 -1.85806765 4.08981656 -2 2 C-1.34 2 -0.68 2 0 2 C0 1.34 0 0.68 0 0 Z " fill="#6E4524" transform="translate(74,45)"/>
<path d="M0 0 C1.32 0 2.64 0 4 0 C4.33 0.99 4.66 1.98 5 3 C3 6 3 6 -0.5 6.75 C-4 7 -4 7 -6 6 C-6 5.34 -6 4.68 -6 4 C-4.7934375 3.566875 -4.7934375 3.566875 -3.5625 3.125 C-0.8673532 2.26737432 -0.8673532 2.26737432 0 0 Z " fill="#3B2F28" transform="translate(72,100)"/>
<path d="M0 0 C2 1 2 1 3.125 3.8125 C4 7 4 7 4 11 C3.34 11 2.68 11 2 11 C2 12.65 2 14.3 2 16 C1.67 16 1.34 16 1 16 C0.01 11.05 -0.98 6.1 -2 1 C-1.34 0.67 -0.68 0.34 0 0 Z " fill="#A7936B" transform="translate(107,34)"/>
<path d="M0 0 C1.98 0.66 3.96 1.32 6 2 C5.01 4.97 4.02 7.94 3 11 C1.68 10.67 0.36 10.34 -1 10 C-1 9.01 -1 8.02 -1 7 C-0.01 6.67 0.98 6.34 2 6 C2 5.01 2 4.02 2 3 C2.33 2.67 2.66 2.34 3 2 C2.01 2 1.02 2 0 2 C0 1.34 0 0.68 0 0 Z " fill="#BF9E67" transform="translate(93,49)"/>
<path d="M0 0 C1.32 0.66 2.64 1.32 4 2 C4.26218749 5.14624993 4.24754367 6.61837017 2.5 9.3125 C1.7575 10.1478125 1.7575 10.1478125 1 11 C0.67 9.68 0.34 8.36 0 7 C-0.66 7 -1.32 7 -2 7 C-2.125 4.625 -2.125 4.625 -2 2 C-1.34 1.34 -0.68 0.68 0 0 Z " fill="#F5F1D5" transform="translate(6,42)"/>
<path d="M0 0 C0.66 0 1.32 0 2 0 C1.38489287 3.99819634 -0.7402135 6.71966475 -3 10 C-3 10.33 -3 10.66 -3 11 C-1.35 11.33 0.3 11.66 2 12 C2 12.33 2 12.66 2 13 C-0.875 13.125 -0.875 13.125 -4 13 C-4.66 12.34 -5.32 11.68 -6 11 C-5.70012049 7.20152621 -4.5832325 4.7898911 -2 2 C-1.34 2 -0.68 2 0 2 C0 1.34 0 0.68 0 0 Z " fill="#E5DCBA" transform="translate(19,17)"/>
<path d="M0 0 C0.61875 0.474375 1.2375 0.94875 1.875 1.4375 C3.90705546 3.02417441 3.90705546 3.02417441 6 4 C5.67 4.66 5.34 5.32 5 6 C4.113125 5.979375 3.22625 5.95875 2.3125 5.9375 C-0.62169631 5.99286219 -3.15493696 6.3305734 -6 7 C-6 6.01 -6 5.02 -6 4 C-3.5625 2.375 -3.5625 2.375 -1 1 C-0.67 0.67 -0.34 0.34 0 0 Z " fill="#655346" transform="translate(74,66)"/>
<path d="M0 0 C0.33 0.66 0.66 1.32 1 2 C0.34 2 -0.32 2 -1 2 C-1.33 2.99 -1.66 3.98 -2 5 C-5.375 5.625 -5.375 5.625 -9 6 C-9.66 5.34 -10.32 4.68 -11 4 C-7.26280719 0.48264206 -5.13496308 -0.47767098 0 0 Z " fill="#5C4E33" transform="translate(44,46)"/>
<path d="M0 0 C0.66 0 1.32 0 2 0 C2 0.99 2 1.98 2 3 C2.66 3.33 3.32 3.66 4 4 C2.68 4 1.36 4 0 4 C0 4.66 0 5.32 0 6 C-2.8125 8.6875 -2.8125 8.6875 -6 11 C-6.99 10.67 -7.98 10.34 -9 10 C-7.6581656 5.97449681 -5.5772427 5.11714364 -2 3 C-1.34 3 -0.68 3 0 3 C0 2.01 0 1.02 0 0 Z " fill="#3C2C19" transform="translate(49,53)"/>
<path d="M0 0 C0.99 3.63 1.98 7.26 3 11 C1.02 10.34 -0.96 9.68 -3 9 C-3 8.34 -3 7.68 -3 7 C-3.66 7 -4.32 7 -5 7 C-5 6.34 -5 5.68 -5 5 C-4.34 4.67 -3.68 4.34 -3 4 C-3 3.01 -3 2.02 -3 1 C-1 0 -1 0 0 0 Z " fill="#6B5B4C" transform="translate(86,31)"/>
<path d="M0 0 C1.89575251 -0.02721176 3.79161979 -0.04649136 5.6875 -0.0625 C6.74324219 -0.07410156 7.79898438 -0.08570312 8.88671875 -0.09765625 C11.72410262 -0.00865425 14.2438919 0.35060162 17 1 C16.67 1.66 16.34 2.32 16 3 C11.82384253 4.35110977 8.24507486 3.92619815 4 3 C1.78515625 1.453125 1.78515625 1.453125 0 0 Z " fill="#433425" transform="translate(44,20)"/>
<path d="M0 0 C3.40357628 1.45867555 5.78825606 2.99834751 8 6 C8.33810273 8.75765038 8.18635128 11.20473086 8 14 C7.34 14 6.68 14 6 14 C5.87625 12.081875 5.87625 12.081875 5.75 10.125 C5.53808712 7.93631811 5.53808712 7.93631811 5 6 C3.06616713 4.69934079 3.06616713 4.69934079 1 4 C0.25 1.875 0.25 1.875 0 0 Z " fill="#60554B" transform="translate(84,69)"/>
<path d="M0 0 C0 1.32 0 2.64 0 4 C-5.41538462 5.23076923 -5.41538462 5.23076923 -8.375 4.0625 C-8.91125 3.711875 -9.4475 3.36125 -10 3 C-10 2.34 -10 1.68 -10 1 C-6.61981469 -0.04005702 -3.5219721 -0.08004482 0 0 Z " fill="#819282" transform="translate(61,66)"/>
<path d="M0 0 C0.99 0.33 1.98 0.66 3 1 C3.33 2.65 3.66 4.3 4 6 C2.68 6.99 1.36 7.98 0 9 C-0.33 8.01 -0.66 7.02 -1 6 C-1.66 5.67 -2.32 5.34 -3 5 C-1.125 1.125 -1.125 1.125 0 0 Z " fill="#543F2D" transform="translate(72,29)"/>
<path d="M0 0 C0.33 1.65 0.66 3.3 1 5 C-2.72433382 3.7874262 -6.37802806 2.49140021 -10 1 C-10 0.34 -10 -0.32 -10 -1 C-6.18510326 -2.46726798 -3.70988378 -1.43336419 0 0 Z " fill="#A66938" transform="translate(60,29)"/>
<path d="M0 0 C2.04119788 1.61594832 4.04072937 3.2856382 6 5 C6 5.66 6 6.32 6 7 C5.34 7 4.68 7 4 7 C4 7.66 4 8.32 4 9 C3.34 9 2.68 9 2 9 C2 8.34 2 7.68 2 7 C1.01 6.67 0.02 6.34 -1 6 C-1.042721 4.33388095 -1.04063832 2.66617115 -1 1 C-0.67 0.67 -0.34 0.34 0 0 Z " fill="#FCF9DF" transform="translate(96,36)"/>
<path d="M0 0 C0.66 0 1.32 0 2 0 C2.66 2.64 3.32 5.28 4 8 C3.01 7.67 2.02 7.34 1 7 C1 6.34 1 5.68 1 5 C-0.65 5.33 -2.3 5.66 -4 6 C-2.84826645 3.53199953 -1.95216435 1.95216435 0 0 Z " fill="#9D8468" transform="translate(47,59)"/>
<path d="M0 0 C1.67542976 0.28604898 3.34385343 0.61781233 5 1 C5 1.66 5 2.32 5 3 C3.865625 3.12375 2.73125 3.2475 1.5625 3.375 C-0.2009375 3.684375 -0.2009375 3.684375 -2 4 C-2.33 4.66 -2.66 5.32 -3 6 C-3.99 5.67 -4.98 5.34 -6 5 C-6.33 4.01 -6.66 3.02 -7 2 C-4 1 -4 1 -1 1 C-0.67 0.67 -0.34 0.34 0 0 Z " fill="#625745" transform="translate(57,62)"/>
<path d="M0 0 C0.66 0 1.32 0 2 0 C1.67 1.32 1.34 2.64 1 4 C1.66 4.33 2.32 4.66 3 5 C2.34 7.31 1.68 9.62 1 12 C0.67 11.34 0.34 10.68 0 10 C-0.99 9.67 -1.98 9.34 -3 9 C-2.01 6.03 -1.02 3.06 0 0 Z " fill="#A7926F" transform="translate(4,32)"/>
<path d="M0 0 C2.75 -0.3125 2.75 -0.3125 6 0 C8.4375 2.25 8.4375 2.25 10 5 C9.75 7.3125 9.75 7.3125 9 9 C7 7 7 7 6 4 C2.99152582 2.77479736 2.99152582 2.77479736 0 2 C0 1.34 0 0.68 0 0 Z " fill="#CD9B72" transform="translate(63,21)"/>
<path d="M0 0 C0 0.99 0 1.98 0 3 C-0.66 3 -1.32 3 -2 3 C-2 3.66 -2 4.32 -2 5 C-3.175625 4.9690625 -3.175625 4.9690625 -4.375 4.9375 C-6.98114961 4.81315937 -6.98114961 4.81315937 -9 6 C-9 3 -9 3 -7.3125 1.3125 C-4.6402007 -0.20421041 -3.02346601 -0.2519555 0 0 Z " fill="#C29966" transform="translate(30,41)"/>
<path d="M0 0 C2.97 0.99 5.94 1.98 9 3 C9 3.33 9 3.66 9 4 C7.02 4 5.04 4 3 4 C3 4.66 3 5.32 3 6 C2.34 6 1.68 6 1 6 C1 5.34 1 4.68 1 4 C0.34 4 -0.32 4 -1 4 C-0.67 2.68 -0.34 1.36 0 0 Z " fill="#EAD9C0" transform="translate(7,36)"/>
<path d="M0 0 C1.65 0 3.3 0 5 0 C4.01 0.495 4.01 0.495 3 1 C3.33 2.65 3.66 4.3 4 6 C4.66 6 5.32 6 6 6 C5.67 6.66 5.34 7.32 5 8 C4.01 7.67 3.02 7.34 2 7 C1.67 7.66 1.34 8.32 1 9 C0.67 6.03 0.34 3.06 0 0 Z " fill="#CFAA4B" transform="translate(64,43)"/>
<path d="M0 0 C0.99 0.33 1.98 0.66 3 1 C3 1.66 3 2.32 3 3 C3.66 3.33 4.32 3.66 5 4 C5 4.99 5 5.98 5 7 C4.34 7 3.68 7 3 7 C3 6.34 3 5.68 3 5 C0.69 5 -1.62 5 -4 5 C-4 4.34 -4 3.68 -4 3 C-2.68 2.34 -1.36 1.68 0 1 C0 0.67 0 0.34 0 0 Z " fill="#8F5E2D" transform="translate(55,43)"/>
<path d="M0 0 C1.65 0.33 3.3 0.66 5 1 C4.67 2.32 4.34 3.64 4 5 C2.68 4.67 1.36 4.34 0 4 C0 4.66 0 5.32 0 6 C-0.66 6 -1.32 6 -2 6 C-2 4.68 -2 3.36 -2 2 C-1.34 1.67 -0.68 1.34 0 1 C0 0.67 0 0.34 0 0 Z " fill="#504337" transform="translate(35,74)"/>
<path d="M0 0 C0.33 0.99 0.66 1.98 1 3 C1.66 3 2.32 3 3 3 C2.625 5.9375 2.625 5.9375 2 9 C1.01 9.495 1.01 9.495 0 10 C0 9.34 0 8.68 0 8 C-0.66 8 -1.32 8 -2 8 C-1.34 5.36 -0.68 2.72 0 0 Z " fill="#AB9776" transform="translate(107,68)"/>
<path d="M0 0 C1.98 0 3.96 0 6 0 C5.34 0.66 4.68 1.32 4 2 C4.66 2.66 5.32 3.32 6 4 C5.34 4.66 4.68 5.32 4 6 C3.01 6 2.02 6 1 6 C0.67 4.02 0.34 2.04 0 0 Z " fill="#738E8B" transform="translate(67,64)"/>
<path d="M0 0 C1.65 0 3.3 0 5 0 C5.66 1.32 6.32 2.64 7 4 C4.625 4.625 4.625 4.625 2 5 C1.34 4.34 0.68 3.68 0 3 C0 2.01 0 1.02 0 0 Z " fill="#C5985E" transform="translate(89,40)"/>
<path d="M0 0 C0.99 0.66 1.98 1.32 3 2 C2.67 3.32 2.34 4.64 2 6 C1.34 6 0.68 6 0 6 C0 5.34 0 4.68 0 4 C-1.32 4.33 -2.64 4.66 -4 5 C-2.25 1.125 -2.25 1.125 0 0 Z " fill="#85907F" transform="translate(28,47)"/>
<path d="M0 0 C0.763125 0.0825 1.52625 0.165 2.3125 0.25 C1.9825 1.24 1.6525 2.23 1.3125 3.25 C1.9725 3.58 2.6325 3.91 3.3125 4.25 C0.3425 4.25 -2.6275 4.25 -5.6875 4.25 C-3.34903846 0.31153846 -3.34903846 0.31153846 0 0 Z " fill="#332B23" transform="translate(62.6875,103.75)"/>
<path d="M0 0 C2.475 0.495 2.475 0.495 5 1 C5.66 2.98 6.32 4.96 7 7 C5.35 7.66 3.7 8.32 2 9 C2.66 7.35 3.32 5.7 4 4 C3.34 3.34 2.68 2.68 2 2 C1.34 2 0.68 2 0 2 C0 1.34 0 0.68 0 0 Z " fill="#AD855C" transform="translate(35,20)"/>
<path d="M0 0 C1.32 0.33 2.64 0.66 4 1 C4 1.99 4 2.98 4 4 C5.32 4.33 6.64 4.66 8 5 C6 6 6 6 2 6 C0 3 0 3 0 0 Z " fill="#5F5148" transform="translate(41,66)"/>
<path d="M0 0 C1.875 0.25 1.875 0.25 4 1 C5.25 3.0625 5.25 3.0625 6 5 C4.35 5 2.7 5 1 5 C0.67 3.35 0.34 1.7 0 0 Z " fill="#875837" transform="translate(74,45)"/>
<path d="M0 0 C0.66 0 1.32 0 2 0 C2.66 1.32 3.32 2.64 4 4 C3.01 4.33 2.02 4.66 1 5 C0.67 5.99 0.34 6.98 0 8 C-0.66 7.67 -1.32 7.34 -2 7 C-2 6.34 -2 5.68 -2 5 C-1.34 5 -0.68 5 0 5 C0 3.35 0 1.7 0 0 Z " fill="#AC8D5B" transform="translate(9,24)"/>
<path d="M0 0 C2.31 0 4.62 0 7 0 C7 1.65 7 3.3 7 5 C6.67 4.34 6.34 3.68 6 3 C2.97065509 2.34227572 2.97065509 2.34227572 0 2 C0 1.34 0 0.68 0 0 Z " fill="#B67B55" transform="translate(56,26)"/>
<path d="M0 0 C0.33 0.99 0.66 1.98 1 3 C0.01 4.485 0.01 4.485 -1 6 C-2.32 6 -3.64 6 -5 6 C-5 5.01 -5 4.02 -5 3 C-2.5 1.3125 -2.5 1.3125 0 0 Z " fill="#50655E" transform="translate(73,67)"/>
<path d="M0 0 C0.33 1.32 0.66 2.64 1 4 C-0.875 4.625 -0.875 4.625 -3 5 C-3.66 4.34 -4.32 3.68 -5 3 C-2.25 0 -2.25 0 0 0 Z " fill="#6C7569" transform="translate(41,52)"/>
<path d="M0 0 C0.94875 0.04125 1.8975 0.0825 2.875 0.125 C3.205 0.785 3.535 1.445 3.875 2.125 C3.215 2.125 2.555 2.125 1.875 2.125 C1.875 2.785 1.875 3.445 1.875 4.125 C1.215 4.125 0.555 4.125 -0.125 4.125 C-0.455 3.795 -0.785 3.465 -1.125 3.125 C-2.45094105 2.76337971 -3.78438457 2.42771961 -5.125 2.125 C-3.125 0.125 -3.125 0.125 0 0 Z " fill="#4F4031" transform="translate(41.125,45.875)"/>
<path d="M0 0 C0.99 0 1.98 0 3 0 C3.33 1.65 3.66 3.3 4 5 C2.35 4.67 0.7 4.34 -1 4 C-0.67 2.68 -0.34 1.36 0 0 Z " fill="#B38953" transform="translate(63,68)"/>
<path d="M0 0 C2.31 0 4.62 0 7 0 C6.34 1.32 5.68 2.64 5 4 C4.67 3.34 4.34 2.68 4 2 C3.01 2.99 2.02 3.98 1 5 C0.67 3.35 0.34 1.7 0 0 Z " fill="#605543" transform="translate(78,21)"/>
<path d="M0 0 C-1.75 3.875 -1.75 3.875 -4 5 C-4.66 3.35 -5.32 1.7 -6 0 C-2.25 -1.125 -2.25 -1.125 0 0 Z " fill="#E9E0C7" transform="translate(99,86)"/>
<path d="M0 0 C1.625 1.375 1.625 1.375 3 3 C3 3.66 3 4.32 3 5 C2.01 5.33 1.02 5.66 0 6 C0 5.34 0 4.68 0 4 C-0.66 4 -1.32 4 -2 4 C-2 3.34 -2 2.68 -2 2 C-2.66 1.67 -3.32 1.34 -4 1 C-2 0 -2 0 0 0 Z " fill="#5B6050" transform="translate(48,64)"/>
<path d="M0 0 C0.99 0 1.98 0 3 0 C3 0.99 3 1.98 3 3 C3.66 3.33 4.32 3.66 5 4 C4.34 4 3.68 4 3 4 C3 4.66 3 5.32 3 6 C2.34 6 1.68 6 1 6 C0.67 4.02 0.34 2.04 0 0 Z " fill="#765127" transform="translate(52,49)"/>
<path d="M0 0 C1.32 0 2.64 0 4 0 C4 1.32 4 2.64 4 4 C3.34 4 2.68 4 2 4 C2 5.65 2 7.3 2 9 C1.67 9 1.34 9 1 9 C0.67 6.03 0.34 3.06 0 0 Z " fill="#AE9C7A" transform="translate(107,41)"/>
<path d="M0 0 C2.96175123 0.61277612 4.38058783 1.25372522 7 3 C5.35 3.66 3.7 4.32 2 5 C2 4.01 2 3.02 2 2 C1.34 2 0.68 2 0 2 C0 1.34 0 0.68 0 0 Z " fill="#5E6254" transform="translate(51,69)"/>
<path d="M0 0 C1.98 0 3.96 0 6 0 C6 0.99 6 1.98 6 3 C4.02 3 2.04 3 0 3 C0 2.01 0 1.02 0 0 Z " fill="#B37439" transform="translate(61,34)"/>
<path d="M0 0 C0.33 1.32 0.66 2.64 1 4 C2.65 4.33 4.3 4.66 6 5 C6 5.33 6 5.66 6 6 C3.125 6.125 3.125 6.125 0 6 C-0.66 5.34 -1.32 4.68 -2 4 C-2 3.01 -2 2.02 -2 1 C-1.34 0.67 -0.68 0.34 0 0 Z " fill="#F4E0C5" transform="translate(15,24)"/>
<path d="M0 0 C0.99 0.33 1.98 0.66 3 1 C2.67 2.32 2.34 3.64 2 5 C1.01 5 0.02 5 -1 5 C-0.67 3.35 -0.34 1.7 0 0 Z " fill="#1E0701" transform="translate(65,25)"/>
</svg>
